/* XPM */
static char *tile0651689510948[] = {
/* columns rows colors chars-per-pixel */
"64 64 16 1 ",
"  c #121323",
". c #131424",
"X c #191B31",
"o c #1A1C33",
"O c #212441",
"+ c #222543",
"@ c #2C2F56",
"# c #2D3158",
"$ c #363A6A",
"% c #373B6C",
"& c #3F447C",
"* c #3F447D",
"= c #474D8D",
"- c #484E8E",
"; c #50569E",
": c #5158A0",
/* pixels */
"$@$;*@@@*;*@*:**-:=&*==$@$@@@+oo@@$:&@@@*:*@*;**=:=***=$@$@@@++X",
"=**:==-==:;-;;;:::=****$$$@@@@X+***======::=::::::=*&**$$$@@@@+X",
"==;--:=-==-=-=-=--=***$$@@@@+Oo+*-:==:--=======-===&**%$@@@@+++X",
"-=:**=-***&&****$**$$$$$@O@O OoO*=;*&=-*********$**$%$$$@+@+ X+X",
"$==$****@@$$$**$$$@@$$$@+@@@+O X$==$****@$$$$**$$$@@$$$@+@@@+X  ",
"$*-**$$*$@$$$$$$$@+O$@$@+@@@+OX.$==*&*$*%@$$$$$$$@++$@$@+@@@OOX ",
"$$**$$$**&*$$$$$@+@@@@@@@@O++OoX@$&*$$@****$$$$$@+@@@@@@@@+++++ ",
"$$$*@$$$$$$$@@$$@O@@@@@@@@@OXoo.@$$&@$$$$$$$@@$$@+@@@@@@@@@+XoX.",
"$$%%@$%@$$$$@@$@@@@O++#@+O@@++  $$%$@$$@$%$$@@$@@@@++O@@++@@+X  ",
"@$@@$@@@@$@$$$@@@@O+++@++O+++O  @$@@$@@@@$$$$$@@@@++++@+OO++++  ",
"@++@@@+@+@@@$@@@+@++@+++++OOX. .@@O@@@+@+@@@$@@@+@++@++O++X+X   ",
"@@@@@++++@@+++@@++++++++X.+O .  @@@@@+++O@@O++@#OO+O++++X ++.  .",
"O++@@++++@+++X+++O+ O+O+Oo+X. X +++@@O+++@O++X++OO+ OO+OOXOX..X.",
"X X++X+@+XX+OXX  O+ ++ X+O+ .X  X.X++XO@+XX++oX  ++ OO.o+OO  XX ",
"X      ++ XX XX. o  ..  oo  X.  X    ..++.XX.o+  o      oX  X ..",
"X++ X+X+X X  ...   o     X      X++ X+X+o.X..      X..  .X.     ",
"==&**&*%@$@@@OoX@@%-%@@@%=$@$=***=*****$@$@@@+Xo@@$=%@@@%=%@%=&&",
";;=-&=&%$%@@@@X+**-;===-=::=::::::==*=*$$$@@@@o+=*=:=====::;:;;:",
"*-*&&&$$@@@@OOX+*----;=-=-===**=******$$@@@@O+o+*====:=======*&=",
"%&*%$$$$@+@+ XX+*-;*&=&&&&&&&&**%**$$$$$@+@+ +oO==:**==*&***&**&",
"$$@@$$@@+@@@++ o%-=$&&*&@$$$%&&$$$@@$$$@+@@@+O X$==$***&@@$$%&&$",
"$@++$@$@+@@@++X $==&&&%*%@$$$$$$$@++$@$@+@@@+OX $==**$$&$@$$$$$$",
"@+@@@@@@@@+++OXX@$&&$$@&&&&$$$$$@O@@@@@@@@++++Xo@$**$$@*&&&$$$$$",
"O+@@@@@@@@@+XXX @$%&@$$%$$$@@@$$@+@@@@@@@#@+ooX @$$*@$$$$$$@@@$$",
"@@@O++#@++@@++  $$$$@$$@$$$$@@$@@@@++O@@++@@+o. $*$$@$$@$$$$@@$@",
"@@++OO@OOO++++  @$@@%@@@@$#$$$@@@@++++@+++OO++  @$#@$@@@@$@$$$@@",
"+@O+@+++++++o   @OO@@@+@+@@@%@@@+@O+#+O+O+OO+   @++@@@+@O@@@$@@@",
"O++O++++X ++    @@@@@++@O@@O++@@OO+++++Oo +O .  @@@@@++@+@@+++@@",
"+++ O++++X+X  o +++@@++++@+++o+O+++ +++O+X+o. X ++O@@O+++@+++X++",
"X++ ++ X+++. X .X X++ +@++X++XX  ++.+O XO++  X  +.o+OX+@+XX++XX ",
" X      XX  o   X      ++ XX oX. X      XX  X   o . . .O+.oX Xo.",
"   X    .X   X..X++ X+o+X X     .. X     o   X  o++ o+oOX.X    .",
"@@$=%@@@$=$@%=***=&****$@$@@@+Xo@@$=$@@@%=%@%=&&*=&*&&&$@$@@@+X.",
"=&=:=-===:;:::::::==*=*$$$@@@@o+=*=:==-=-;::::::::==&=*$$$@@@@OX",
"=====:=-=====**=******$$@@@@++o+*====:--=====**=*&*&**%$@@@@+O+X",
"==:**==*********$&*$$%$$@O@+ +XO*=;**=-**&**&&**$**$%$$$@+@+.o+o",
"%==$***&@@$$$**$$$@@$$$@+@@@++ o%==$****@@$$$**$$$@@$$$@+@@@+XX ",
"$&=&**$*%@$$$$$$%@OO$@$@+@@@OOo $-=***%*$@$$$$$$$@O+$@$@+@@@+OX ",
"$$&*$%@***&$$$$$@+@@@@@@@@++++XX@$**$$$&**&$$$$$@+@@@@@@@@+OO++ ",
"$$$*@$$$$$$@@@$$@O@@@@@@@@@OooX @$$&@$$$$$$@@@$$@+@@@@@@@@@+XoX ",
"$$$$@$%@$$$$@@$@@@#O++@@+O@@+o  $$$$@$$@$%$$@@$@@@@+O+@#O+@@+X. ",
"@$@@$@@@@$@$$$@@@@O++O@++O+++O  @$@@$@@@@$@$$$@@@@+++O@+O+++++  ",
"@O+@@#O@+@@@$@@@+@++@++OO++Oo  .@+O@@@+@+@@@%@@@+#+O@OO+++++X  .",
"@@@@@+O++@@+++@@+O++O+++X.++.   @@@@@++@O@@O++@@O++O+++++.OO    ",
"+++@@+++O@+++o++oO+ ++O++X+o  X +++@@+O++@+++X+OX++ O+O++oOo  X.",
"X.X++X+@+Xo+OXo  O+ +O.XO++. X  X X++o+@+XX++X+  O+ O+.oOO+  XX ",
"X.  .. ++ oX Xo. o.     Xo  X   X   .  ++.XX.XX  o      oX  o   ",
"oO+.X+X+o.o  . .  .X.  ..X      X++ o+X+X.X..   .  o.    X      ",
"==****&$@$@@@+oX@@%=%@@@%=%@$=***=*&***$@$@@@+oX@@$=%@@@%=$@$=&&",
"::==*==$$$@@@@oO**=:=====::;;:::;:==*=*$$%@@@@oO=*=:=-===:::::;:",
"&=****$%@@@@++o+*-===:-======**=*=&&**$$@@@@++X+*====:====-==*&=",
"$**%$$$$@O@+.+o+*=:&&-=*&&&&****$*&$$$$$@+@+ +o+*=;**==**&****$*",
"$$@@%$$@+@@@O+.X$==%****@%$$$**$$$@@$$$@+@@@++ X%==$***&@$$$$**$",
"$@++$@%@O@@@++X.$==**$$*$@$$$$$$$@+O$@$@+@@@+Oo %-=***$*$@$$$$$$",
"@+@@@@@@@@+OOOXX@%**$$@*&&*$$$$$@+@@@@@@@@+O+Ooo@$**$$@*&**$$$$$",
"OO@@@@@@@@@+ooX @$$*@$$$$$$$@@$$@O@@@@@@@@@+oooX@$$*@$$$$$$@@@$%",
"@@@O++#@++@@+X. $$$$$$$@$$$$@@$@@@@+++@@++@@+o  $$$$@$$@$$$$@@$@",
"@@+++O@+++O+++  @$@@$@@@@$@$$$@@@@++O+@++OOO++  @$#@%@@@@$$%$$@@",
"+@++@+O++++Oo   @++@@@+@O@@@$@@@O@OO@+++++++X  .@OO@@@+@+@@@$@@@",
"++OO++++oo+O    @@@@@++@O@@+++@@+++O++O++o+O    @@@@@+OO+@@++O@@",
"++O o+O+OX+o  o +++@@O+++@+O+X+O++O X++++X+o. o +O+@@OO+O@+++X++",
" +o Xo X+++  o  o o++ +@+XX++Xo. +X Xo.X+O+  o  o.o+O +@+oX++XX ",
" o.    .XX  o   o   .oX@+ XX XX  X      oX  o   o.   XX@+.oX.XX ",
"               . Xo  o X  o  ..                . oo .X X .X .   "
};
