/* XPM */
static char *result[] = {
/* columns rows colors chars-per-pixel */
"64 64 3 1 ",
"  c #434343",
". c #535353",
"X c gray39",
/* pixels */
" .   ..... .  .          .... .. . .             X           X .",
". ..  ...      .     ..  .  . . .          .  .. X           .. ",
"       ..           ...        . .        ...             . ..  ",
"                               .      X.XXX.        .    ....   ",
"      .        .    . .  .              X XX       .   .  .     ",
"   ...           . ........                   ..        .     . ",
"   ....   .     ... .   ..       ..... .   . ....     ..     ...",
"   ....  . . .     .           .  ...... .......      .       . ",
"    . X      ..    ... .     .     . .......                   .",
"             .  . .       ......  ...... .... .     ...       . ",
"  . . .                   .......  . ..  ...       .....     .  ",
".     .. .                ......                   .....    ... ",
"..     ..  .          .  ....   X           .       . .      . .",
"... .           ..   ..   ...                ...   .    .       ",
".  ...     . ..... .  .    ...          .. .           XX      .",
"   .....   .. . .  .. .     .     . X........      .  .. X    . ",
"     .     . ...    .               ........   ..    ....    .. ",
"   XX...... . .           .   ..    ..   .     ...  ....... .   ",
"   ..... . ...           ...   .        ..      .. .........    ",
"  . ...  .X .             . . .         . .     ..  .   X .     ",
"     .......           . ...X.        .    .                    ",
"     ..  ...    .    ...  .   .       ..   ..   XX              ",
"  ... .. ..     ..... .    .                .   ..      .       ",
"        . .      ......     . X.                X .   ..        ",
"       .....    .......... ...... ..   .             ...        ",
"     .X  .. .  . ... .... ...........   .  .          .         ",
"    . .   ....         .X. .....  .  . . X..         ... .      ",
"     ...  ...        .. ... . .         X  ..           .   .X  ",
".     .              .....           .      ..    ..    ...     ",
".. . ...              ....        . .  ..   .   X...    ...... .",
". .....               . . ..            .      X... .     ..... ",
"  ..... .  .     .     .                     .X  . .   .... . ..",
".  .  .......   .          .    .        .. ...X X  . ....     .",
"   . . ......      .      ..   ...  ........ . . ..   ...      .",
".  .  . .. . .     ..... ....  ....  ...... ...                .",
".....              .......... ......   ..  . .                ..",
". ..                . ..   .   . ..        .         .       ...",
"       .       .      ... ....  . .   X   .X        ... .  .. . ",
"      ...           .  .. ..  ...... X     ..        . ...  ..  ",
"     .. .         .... .   . .  . ...          .XX.    ... .    ",
"   ..X       .   ...      ...      .          ... .   . .    .  ",
" .....X           .        .        .         X.   . ...X.      ",
" ...  XX .        .                       .         . .X ..     ",
"  .    X...  X X   .   ...   .    . X     ..         .          ",
"     .   ..  XX   ... ..        ...                 ..          ",
"    ...       .  ...       . . .       .    X     .....    XX X ",
"  . .. ..   X    XXX      ....X     . ...         ..X.   .      ",
" . ..   .X...X.   XX. ...  ...     .. . .  X      . ... .  X    ",
". .    .... X .    ..........       ..               .   .      ",
"   .    ..   ..   ... ...  .X. . .  .         .  .  ..          ",
"  .    . ..        .         .. ...               . .   .   .  .",
".                                .       .             .   .....",
"     .         ..       .           ..    ..  .      ...   ... .",
"..  ..     ..  ...         ...   ..X X.   .       .   .     .   ",
"  X  ..     .   ..      X.  .   ..    ..          ..X.     .    ",
"     ...   .          ....      .      .          .  ..   .     ",
"     X    .            .      .       .       ..                ",
"         .            .                                         ",
"    X.  .        .     .          .    . .... ..        .       ",
" ....       .. ..        X          ....... . .   XX ... ..   . ",
". ..      ..            .    ..    ....... .....          X ....",
"..        .           ..    .. .X   ... X   ....            .. .",
".               .    ..                    X...         .       ",
"      .        .  .  ..  .      X             .        ..   X   "
};
