/* XPM */
static char *result[] = {
/* columns rows colors chars-per-pixel */
"64 64 16 1 ",
"  c #000008",
". c gray20",
"X c #004300",
"o c #005F00",
"O c #007F00",
"+ c #434343",
"@ c #535353",
"# c gray39",
"$ c #777777",
"% c #0F8B0B",
"& c #239B1F",
"* c #37AB33",
"= c #53B74B",
"- c #6BC767",
"; c #979797",
": c #8BD383",
/* pixels */
"                                                                ",
" ........ ............................................ ........ ",
" .+++++++. .++++++++++++++++++++++++++++++++++++++++. .+++++++. ",
" .+@@@@@@@. .+@@@@@@@@@@@@@@@@@@@@@@@@@@@@@@@@@@@@+. .@@@@@@@+. ",
" .+@######@. .+##################################+. .@######@+. ",
" .+@#$$$$$#@. .+#$$$$$$$$$$$$$$$$$$$$$$$$$$$$$$#+. .@#$$$$$#@+. ",
" .+@#$$$$$$#@. .+#$;;;;;;;;;;;;;;;;;;;;;;;;;;$#+. .@#$$$$$$#@+. ",
" .+@#$$$$$$$#@. .+#$;;;;;;;;;;;;;;;;;;;;;;;;$#+. .@#$$$$$$$#@+. ",
" .+@#$$$$$$$$#@. .+#$;;;;;;;;;;;;;;;;;;;;;;$#+. .@#$$$$$$$$#@+. ",
"  .+#$$$$$$$;$#@. .+#$$$$$$$$$$$$$$$$$$$$$$#+. .@#$$$$$$$$$#+.  ",
" . .+#$$$$$;;;$#@. .+#$$$$$$$$$$$$$$$$$$$$#+. .@#$;$$$$$$$#+. . ",
" .. .+#$$$;;;;;$#@. .+####################+. .@#$;;;$$$$$#+. .. ",
" .+. .+#$;;;;;$$$#@. .+@@@@@@@@@@@@@@@@@@+. .@#$;;;;;$$$#+. .+. ",
" .++. .+#$;;;$$$$$#@. .++++++++++++++++++. .@#$$$;;;;;$#+. .++. ",
" .+@+. .+#$;$$$$$$$#@. .................. .@#$$$$$;;;$#+. .+@+. ",
" .+@#+. .+#$$$$$$$$#@@.                  .@@#$$$$$$;$#+. .+#@+. ",
" .+@##+. .+#$$$$$$#@++. XXXXXXXXXXXXXXXX .++@#$$$$$$#+. .+##@+. ",
" .+@#$#+. .+#$$$$#@++. XooooooooooooooooX .++@#$$$$#+. .+#$#@+. ",
" .+@#$$#+. .+#$$#@++. XoOOOOOOOOOOOOOOOOoX .++@#$$#+. .+#$$#@+. ",
" .+@#$;$#+. .+##@++. XoO%%%%%%%%%%%%%%%%OoX .++@##+. .+#$;$#@+. ",
" .+@#$;;$#+. .+@++. XoO%&&&&&&&&&&&&&&&&%OoX .++@+. .+#$;;$#@+. ",
" .+@#$;;;$#+. .++. XoO%&****************&%OoX .++. .+#$;;;$#@+. ",
" .+@#$;;;$$#+. .. XoO%&*================*&%OoX .. .+#$$;;;$#@+. ",
" .+@#$;;;$$#@+.  XoO%&*==--------------==*&%OoX  .+@#$$;;;$#@+. ",
" .+@#$;;;$$#@+. XoO%&*==-::::::::::::::-==*&%OoX .+@#$$;;;$#@+. ",
" .+@#$;;;$$#@+. XoO%&*=-::::::::::::::::-=*&%OoX .+@#$$;;;$#@+. ",
" .+@#$;;;$$#@+. XoO%&*=-::::::::::::::::-=*&%OoX .+@#$$;;;$#@+. ",
" .+@#$;;;$$#@+. XoO%&*=-::::::::::::::::-=*&%OoX .+@#$$;;;$#@+. ",
" .+@#$;;;$$#@+. XoO%&*=-::::::::::::::::-=*&%OoX .+@#$$;;;$#@+. ",
" .+@#$;;;$$#@+. XoO%&*=-::::::::::::::::-=*&%OoX .+@#$$;;;$#@+. ",
" .+@#$;;;$$#@+. XoO%&*=-::::::::::::::::-=*&%OoX .+@#$$;;;$#@+. ",
" .+@#$;;;$$#@+. XoO%&*=-::::::::::::::::-=*&%OoX .+@#$$;;;$#@+. ",
" .+@#$;;;$$#@+. XoO%&*=-::::::::::::::::-=*&%OoX .+@#$$;;;$#@+. ",
" .+@#$;;;$$#@+. XoO%&*=-::::::::::::::::-=*&%OoX .+@#$$;;;$#@+. ",
" .+@#$;;;$$#@+. XoO%&*=-::::::::::::::::-=*&%OoX .+@#$$;;;$#@+. ",
" .+@#$;;;$$#@+. XoO%&*=-::::::::::::::::-=*&%OoX .+@#$$;;;$#@+. ",
" .+@#$;;;$$#@+. XoO%&*=-::::::::::::::::-=*&%OoX .+@#$$;;;$#@+. ",
" .+@#$;;;$$#@+. XoO%&*=-::::::::::::::::-=*&%OoX .+@#$$;;;$#@+. ",
" .+@#$;;;$$#@+. XoO%&*=-::::::::::::::::-=*&%OoX .+@#$$;;;$#@+. ",
" .+@#$;;;$$#@+. XoO%&*==-::::::::::::::-==*&%OoX .+@#$$;;;$#@+. ",
" .+@#$;;;$$#@+.  XoO%&*==--------------==*&%OoX  .+@#$$;;;$#@+. ",
" .+@#$;;;$$#+. .. XoO%&*================*&%OoX .. .+#$$;;;$#@+. ",
" .+@#$;;;$#+. .++. XoO%&****************&%OoX .++. .+#$;;;$#@+. ",
" .+@#$;;$#+. .+@++. XoO%&&&&&&&&&&&&&&&&%OoX .++@+. .+#$;;$#@+. ",
" .+@#$;$#+. .+##@++. XoO%%%%%%%%%%%%%%%%OoX .++@##+. .+#$;$#@+. ",
" .+@#$$#+. .+#$$#@++. XoOOOOOOOOOOOOOOOOoX .++@#$$#+. .+#$$#@+. ",
" .+@#$#+. .+#$$$$#@++. XooooooooooooooooX .++@#$$$$#+. .+#$#@+. ",
" .+@##+. .+#$$$$$$#@++. XXXXXXXXXXXXXXXX .++@#$$$$$$#+. .+##@+. ",
" .+@#+. .+#$$$$$$$$#@@.                  .@@#$$$$$$$$#+. .+#@+. ",
" .+@+. .+#$$$$$$$$$#@. .................. .@#$$$$$$$;$#+. .+@+. ",
" .++. .+#$;$$$$$$$#@. .++++++++++++++++++. .@#$$$$$;;;$#+. .++. ",
" .+. .+#$;;;$$$$$#@. .+@@@@@@@@@@@@@@@@@@+. .@#$$$;;;;;$#+. .+. ",
" .. .+#$;;;;;$$$#@. .+####################+. .@#$;;;;;$$$#+. .. ",
" . .+#$$$;;;;;$#@. .+#$$$$$$$$$$$$$$$$$$$$#+. .@#$;;;$$$$$#+. . ",
"  .+#$$$$$;;;$#@. .+#$$$$$$$$$$$$$$$$$$$$$$#+. .@#$;$$$$$$$#+.  ",
" .+@#$$$$$$;$#@. .+#$;;;;;;;;;;;;;;;;;;;;;;$#+. .@#$$$$$$$$#@+. ",
" .+@#$$$$$$$#@. .+#$;;;;;;;;;;;;;;;;;;;;;;;;$#+. .@#$$$$$$$#@+. ",
" .+@#$$$$$$#@. .+#$;;;;;;;;;;;;;;;;;;;;;;;;;;$#+. .@#$$$$$$#@+. ",
" .+@#$$$$$#@. .+#$$$$$$$$$$$$$$$$$$$$$$$$$$$$$$#+. .@#$$$$$#@+. ",
" .+@######@. .+##################################+. .@######@+. ",
" .+@@@@@@@. .+@@@@@@@@@@@@@@@@@@@@@@@@@@@@@@@@@@@@+. .@@@@@@@+. ",
" .+++++++. .++++++++++++++++++++++++++++++++++++++++. .+++++++. ",
" ........ ............................................ ........ ",
"                                                                "
};
