/* XPM */
static char *b2bcde9162a846ab8b23748ba5b8a2dczziMCKqClXLNiLNg[] = {
/* columns rows colors chars-per-pixel */
"64 64 19 1 ",
"  c #000008",
". c gray8",
"X c gray16",
"o c #313131",
"O c gray20",
"+ c #373737",
"@ c gray22",
"# c #393939",
"$ c gray26",
"% c gray28",
"& c #4C4C4C",
"* c #515151",
"= c gray32",
"- c #535353",
"; c gray36",
": c #872F00",
"> c #AB7228",
", c #F39317",
"< c gray53",
/* pixels */
".............*<<--+oo.....................-<<-*+oo..............",
"o$;;;;;;;;;&..........X;;;;;;;;;;;;;;;;;$..........X;;;;;;;;;;&.",
".;&;;;;;;;;&.-<<--+o+.X;;;;;;;;;;;;;;;;;$.-<<--ooo.X;;;;;;;;;&+.",
".;;&;;;;;;;&.-<<-*ooo.X;;;;;;;;;;;;;;;;;$.-<<--+++.X;;;;;;;;&oX.",
".;;*%******&.-<<--++o.X*****************$.-<<--ooo.X*******%oXX.",
".;;*$$$$$$$$.-<<--oo+.X$$$$$$$$$$$$$$$$$$.-<<--oo+.X$$$$$$$$+XX.",
".;;*$$$$$$$$.-<<--ooo.X$$$$$$$$$$$$$$$$$$.-<<--+oo.X$$$$$$$$oXX.",
".;;*$+X+$$$$.-<<**++o.X$$$$$$$$$$$$$$$$$$.-<<-*o+o.X$$$$@X@$oXX.",
".;;*$X.X$$$$..........X$$$$$$$$$$$$$$$$$$..........X$$$$X.X$oXX.",
".;;*$@X@$$$$..-<--+o..X$$$$$$$$$$$$$$$$$$..*<--+o..X$$$$@X+$+XX.",
".;;*$$$$$$$$..........X$$$$$$$$$$$$$$$$$$..........X$$$$$$$$oXX.",
".;;*$$$$$$$$..-<**+o..X$$$$$$$$$$$$$$$$$$..-<**+o..X$$$$$$$$oXX.",
".;;*$$$$$$$$..........X$$$$$$$$$$$$$$$$$$..........X$$$$$$$$+XX.",
".;;*$$$$$$$$XXXXXXXXXXX$$$$$$$$$$$$$$$$$$XXXXXXXXXXX$$$$$$$$oXX.",
".;;*$$$$$$$$$$$$$$$$$$$$$$$$$$$$$$$$$$$$$$$$$$$$$$$$$$$$$$$$oXX.",
".;;*$$$$$XXXXXXXXXXXXXXXXXXXXXXXXXXXXXXXXXXXXXXXXXXXXX$$$$$$+XX.",
".;;*$$$$$X                                           X$$$$$$+XX.",
".;;*$$$$$X,,,:       :,,,,,,,:       :,,,,,,,:       X$$$$$$oXX.",
".;;*$$$$$X,,:       :,,,,,,,:       :,,,,,,,:       :X$$$$$$oXX.",
".;;*$$$$$X,:       :,,,,,,,:       :,,,,,,,:       :,X$$$$$$+XX.",
".;;*$$$$$X:       :,,,,,,,:       :,,,,,,,:       :,,X$$$$$$oXX.",
".;;*$$$$$X       :,,,,,,,:       :,,,,,,,:       :,,,X$$$$$$oXX.",
".;;*$$$$$X      :,,,,,,,:       :,,,,,,,:       :,,,,X$$$$$$+XX.",
".;;*$+X@$X     :,,,,,,,:       :,,,,,,,:       :,,,,,X$$+X+$oXX.",
".;;*$X.X$X    :,,,,,,,:       :,,,,,,,:       :,,,,,,X$$X.X$oXX.",
".;;*$@X@$@$$$$$$$$$$$$$$$$$$$$$$$$$$$$$$$$$$$$$$$$$$$X$$@X+$+XX.",
".;;*$$$$%@$;;;;;;;;;;;;;;;;;;;;;;;;;;;;;;;;;;;;;;;;;$X$$$$$$oXX.",
".;;*$$$$$$$$$$$$$$$$$$$$$$$$$$$$$$$$$$$$$$$$$$$$$$$$$$$$$$$$oXX.",
".;;*@+oooo+oo+oo+oo+oo+oo+oo+oo++oo+o+oooo+o+oo+o+oooo+o+oo+@XX.",
".;*oXXXXXXXXXXXXXXXXXXXXXXXXXXXXXXXXXXXXXXXXXXXXXXXXXXXXXXXXXoX.",
".*+XXXXXXXXXXXXXXXXXXXXXXXXXXXXXXXXXXXXXXXXXXXXXXXXXXXXXXXXXXXo.",
"................................................................",
"................................................................",
".*;;;;;;;;;;;;;;;;;;;;;;;;;;;;;;;;;;;;;;;;;;;;;;;;;;;;;;;;;;;;&.",
".;*;;;;;;;;;;;;;;;;;;;;;;;;;;;;;;;;;;;;;;;;;;;;;;;;;;;;;;;;;;$X.",
".;;*;;;;;;;;;;;;;;;;;;;;;;;;;;;;;;;;;;;;;;;;;;;;;;;;;;;;;;;;&XX.",
".;;*$******************************************************&oXX.",
".;;*$$$$$XXXXXXXXXXXXXXXXXXXXXXXXXXXXXXXXXXXXXXXXXXXXX$$$$$$+XX.",
".;;*$$$$$X                                           X$$$$$$oXX.",
".;;*$+X+$X,,,:       :,,,,,,,:       :,,,,,,,:       X$$@X@$oXX.",
".;;*%X.X$X,,:       :,,,,,,,:       :,,,,,,,:       :X$$X.X$oXX.",
".;;*$+X+$X,:       :,,,,,,,:       :,,,,,,,:       :,X$$@X+$+XX.",
".;;*$$$$$X:       :,,,,,,,:       :,,,,,,,:       :,,X$$$$$$oXX.",
".;;*$$$$$X       :,,,,,,,:       :,,,,,,,:       :,,,X$$$$$$oXX.",
".;;*$$$$$X      :,,,,,,,:       :,,,,,,,:       :,,,,X$$$$$$+XX.",
".;;*$$$$$X     :,,,,,,,:       :,,,,,,,:       :,,,,,X$$$$$$oXX.",
".;;*$$$$$o    :,,,,,,,:       :,,,,,,,:       :,,,,,>X$$$$$$oXX.",
".;;*$$$$%@$$$$$$$$$$$$$$$$$$$$$$$$$$$$$$$$$$$$$$$$$$$X$$$$$$+XX.",
".;;*$$$$$@$*;;;;;;;;;;;;;;;;;;;;;;;;;;;;;;;;;;;;;;;*$@$$$$$$oXX.",
".;;*$$$$$$$$$$$$$$$$$$$$$$$$$$$$$$$$$$$$$$$$$$$$$$$$$$$$$$$$OXX.",
".;;*$$$$$$$$+oXXXXXXXXo$$$$$$$$$$$$$$$$$$oo+oXXXXXoX$$$$$$$$OXX.",
".;;*$$$$$$$$..........X$$$$$$$$$$$$$$$$$$..........+$$$$$$$$OXX.",
".;;*$$$$$$$$..*<--+o..X$$$$$$$$$$$$$$$$$$..*<--+o..+$$$$$$$$OXX.",
".;;*$$$$$$$$..........X$$$$$$$$$$$$$$$$$$..........X$$$$$$$$OXX.",
".;;*$$$$$$$$..*<*-o+..X$$$$$$$$$$$$$$$$$$..-<-*oo..X$$$$$$$$OXX.",
".;;*$+X+$$$$..........X$$$$$$$$$$$$$$$$$$..........X$$$$+X@$OXX.",
".;;*$X.X$$$$.-<<--++o.X$$$$$$$$$$$$$$$$$$.-<<--+o+.X$$$$X.X$oXX.",
".;;*$+X+$$$$.-<<--ooo.X$$$$$$$$$$$$$$$$$$.-<<--ooo.X$$$$@X+$+XX.",
".;;*$$$$$$$$.-<<--+o+.X$$$$$$$$$$$$$$$$$$.-<<--o+o.X$$$$$$$$oXX.",
".;;*$$$$$$$$.-<<-*ooo.Xo+oo+oo+o+oo+o+oo$.-<<--++o.X$$$$$$$$oXX.",
".;;$+oo+oo+$.-<<--++o.XXXXXXXXXXXXXXXXXX$.-<<-*ooo.ooo+o+oo+$XX.",
".;%XXXXXXXX$.-<<--ooo.XXXXXXXXXXXXXXXXXX$.-<<--+o+.XXXXXXXXXX$X.",
".&XXXXXXXXX$..........XXXXXXXXXXXXXXXXXX$..........XXXXXXXXXXX$.",
".............-<<--oo+.....................-<<--oo+.............."
};
