/* XPM */
static char *result[] = {
/* columns rows colors chars-per-pixel */
"64 64 8 1 ",
"  c gray6",
". c gray12",
"X c gray20",
"o c #434343",
"O c gray39",
"+ c gray53",
"@ c #979797",
"# c #A7A7A7",
/* pixels */
" .XooooooooooX.  .XooooooooooX.  .XooooooooooX.  .XooooooooooX. ",
" .XooooooooooX.  .XooooooooooX.  .XooooooooooX.  .XooooooooooX. ",
" .XooooooooooX.  .XooooooooooX.  .XooooooooooX.  .XooooooooooX. ",
" .XooooooooooX.  .XooooooooooX.  .XooooooooooX.  .XooooooooooX. ",
" .XooooooooooX.  .XooooooooooX.  .XooooooooooX.  .XooooooooooX. ",
" .Xooo+OoXoooX.  .Xooo+OoXoooX.  .Xooo+OoXoooX.  .Xooo+OoXoooX. ",
" .Xoo+#@OoXooX.  .Xoo+#@OoXooX.  .Xoo+#@OoXooX.  .Xoo+#@OoXooX. ",
" .XooO@+OoXooX.  .XooO@+OoXooX.  .XooO@+OoXooX.  .XooO@+OoXooX. ",
" .XooOOOOoXooX.  .XooOOOOoXooX.  .XooOOOOoXooX.  .XooOOOOoXooX. ",
" .XooooooX.ooX.  .XooooooX.ooX.  .XooooooX.ooX.  .XooooooX.ooX. ",
" .XooXXXX.XooX.  .XooXXXX.XooX.  .XooXXXX.XooX.  .XooXXXX.XooX. ",
" .XoooXXXXoooX.  .XoooXXXXoooX.  .XoooXXXXoooX.  .XoooXXXXoooX. ",
" .XooooooooooX.  .XooooooooooX.  .XooooooooooX.  .XooooooooooX. ",
" .XooooooooooX.  .XooooooooooX.  .XooooooooooX.  .XooooooooooX. ",
" .XooooooooooX.  .XooooooooooX.  .XooooooooooX.  .XooooooooooX. ",
" .XooooooooooX.  .XooooooooooX.  .XooooooooooX.  .XooooooooooX. ",
" .XooooooooooX.  .XooooooooooX.  .XooooooooooX.  .XooooooooooX. ",
" .XooooooooooX.  .XooooooooooX.  .XooooooooooX.  .XooooooooooX. ",
" .XooooooooooX.  .XooooooooooX.  .XooooooooooX.  .XooooooooooX. ",
" .XooooooooooX.  .XooooooooooX.  .XooooooooooX.  .XooooooooooX. ",
" .XooooooooooX.  .XooooooooooX.  .XooooooooooX.  .XooooooooooX. ",
" .Xooo+OoXoooX.  .Xooo+OoXoooX.  .Xooo+OoXoooX.  .Xooo+OoXoooX. ",
" .Xoo+#@OoXooX.  .Xoo+#@OoXooX.  .Xoo+#@OoXooX.  .Xoo+#@OoXooX. ",
" .XooO@+OoXooX.  .XooO@+OoXooX.  .XooO@+OoXooX.  .XooO@+OoXooX. ",
" .XooOOOOoXooX.  .XooOOOOoXooX.  .XooOOOOoXooX.  .XooOOOOoXooX. ",
" .XooooooX.ooX.  .XooooooX.ooX.  .XooooooX.ooX.  .XooooooX.ooX. ",
" .XooXXXX.XooX.  .XooXXXX.XooX.  .XooXXXX.XooX.  .XooXXXX.XooX. ",
" .XoooXXXXoooX.  .XoooXXXXoooX.  .XoooXXXXoooX.  .XoooXXXXoooX. ",
" .XooooooooooX.  .XooooooooooX.  .XooooooooooX.  .XooooooooooX. ",
" .XooooooooooX.  .XooooooooooX.  .XooooooooooX.  .XooooooooooX. ",
" .XooooooooooX.  .XooooooooooX.  .XooooooooooX.  .XooooooooooX. ",
" .XooooooooooX.  .XooooooooooX.  .XooooooooooX.  .XooooooooooX. ",
" .XooooooooooX.  .XooooooooooX.  .XooooooooooX.  .XooooooooooX. ",
" .XooooooooooX.  .XooooooooooX.  .XooooooooooX.  .XooooooooooX. ",
" .XooooooooooX.  .XooooooooooX.  .XooooooooooX.  .XooooooooooX. ",
" .XooooooooooX.  .XooooooooooX.  .XooooooooooX.  .XooooooooooX. ",
" .XooooooooooX.  .XooooooooooX.  .XooooooooooX.  .XooooooooooX. ",
" .Xooo+OoXoooX.  .Xooo+OoXoooX.  .Xooo+OoXoooX.  .Xooo+OoXoooX. ",
" .Xoo+#@OoXooX.  .Xoo+#@OoXooX.  .Xoo+#@OoXooX.  .Xoo+#@OoXooX. ",
" .XooO@+OoXooX.  .XooO@+OoXooX.  .XooO@+OoXooX.  .XooO@+OoXooX. ",
" .XooOOOOoXooX.  .XooOOOOoXooX.  .XooOOOOoXooX.  .XooOOOOoXooX. ",
" .XooooooX.ooX.  .XooooooX.ooX.  .XooooooX.ooX.  .XooooooX.ooX. ",
" .XooXXXX.XooX.  .XooXXXX.XooX.  .XooXXXX.XooX.  .XooXXXX.XooX. ",
" .XoooXXXXoooX.  .XoooXXXXoooX.  .XoooXXXXoooX.  .XoooXXXXoooX. ",
" .XooooooooooX.  .XooooooooooX.  .XooooooooooX.  .XooooooooooX. ",
" .XooooooooooX.  .XooooooooooX.  .XooooooooooX.  .XooooooooooX. ",
" .XooooooooooX.  .XooooooooooX.  .XooooooooooX.  .XooooooooooX. ",
" .XooooooooooX.  .XooooooooooX.  .XooooooooooX.  .XooooooooooX. ",
" .XooooooooooX.  .XooooooooooX.  .XooooooooooX.  .XooooooooooX. ",
" .XooooooooooX.  .XooooooooooX.  .XooooooooooX.  .XooooooooooX. ",
" .XooooooooooX.  .XooooooooooX.  .XooooooooooX.  .XooooooooooX. ",
" .XooooooooooX.  .XooooooooooX.  .XooooooooooX.  .XooooooooooX. ",
" .XooooooooooX.  .XooooooooooX.  .XooooooooooX.  .XooooooooooX. ",
" .Xooo+OoXoooX.  .Xooo+OoXoooX.  .Xooo+OoXoooX.  .Xooo+OoXoooX. ",
" .Xoo+#@OoXooX.  .Xoo+#@OoXooX.  .Xoo+#@OoXooX.  .Xoo+#@OoXooX. ",
" .XooO@+OoXooX.  .XooO@+OoXooX.  .XooO@+OoXooX.  .XooO@+OoXooX. ",
" .XooOOOOoXooX.  .XooOOOOoXooX.  .XooOOOOoXooX.  .XooOOOOoXooX. ",
" .XooooooX.ooX.  .XooooooX.ooX.  .XooooooX.ooX.  .XooooooX.ooX. ",
" .XooXXXX.XooX.  .XooXXXX.XooX.  .XooXXXX.XooX.  .XooXXXX.XooX. ",
" .XoooXXXXoooX.  .XoooXXXXoooX.  .XoooXXXXoooX.  .XoooXXXXoooX. ",
" .XooooooooooX.  .XooooooooooX.  .XooooooooooX.  .XooooooooooX. ",
" .XooooooooooX.  .XooooooooooX.  .XooooooooooX.  .XooooooooooX. ",
" .XooooooooooX.  .XooooooooooX.  .XooooooooooX.  .XooooooooooX. ",
" .XooooooooooX.  .XooooooooooX.  .XooooooooooX.  .XooooooooooX. "
};
