/* XPM */
static char *result[] = {
/* columns rows colors chars-per-pixel */
"64 64 3 1 ",
"  c #343434",
". c gray24",
"X c gray28",
/* pixels */
".X..  XX  .          X.        ...                 X      ....  ",
"XXX.. XX   . .X .   X X       .....          . X         ...... ",
"  .. X X. ..... .. XXX   .   .... .. .X X      X.  .  ....... ..",
"      X  .X. .   XX X.  .    ..X     ..XX.    .X   .  .....    .",
"X     X  X       X  X         .X.    ....... ...  .    ...  . ..",
" X X X          .    X  . X    ...  ..XX. .. ..       .. . .XX..",
"X.X X    . XX X.    X... XXX    .   X         .   . X .     XXX.",
"XX   . .....   XX          .   XX. .      .  .             ..XX ",
"X . .   .....  XXX ..     ...   X..          .X .      .   . X .",
"   ..  XX....  XX   .. X ....X X.. X  .     ..... ..X       . ..",
"       XX. .    .     X......XXXX      .  .X .X    .X  .   .    ",
"   .. .X    .  ...       ... XXX   X  .XX..   X.. ..    . ...   ",
".... ..    .     .X        .XXX.      XXXX.X   .  .X    ......  ",
"  .   .X .X.                .X       XXXXXX.  .    X   ... .....",
"   .  XXXXXX.    .X X    ...X         XXXX    ... .   .. .......",
"X XX. .X  X .. .. .XX   .. ..     .     X     .  ... .XX.... . .",
"X X...     ....   XXX..          .         X ..  X...X... .     ",
"  . XX   ..X      . ..            .     . XXX    ...   .        ",
"     XX....          .. .         .     . X   . .              .",
"  . XX   ..  . . .. ... .   XX X .X     ..                    ..",
".... .    . ... ......    .XX......... X. .                 ....",
"..           . .... .XX X ..XX. ......XXX.        .        .....",
"     .  X..X .. ...   XXX..       .  X X...         .     ..XX..",
".        .X          .  .. .      . XXX....   XX.       .....XX.",
"....XXX ..          ..         . ....X...X .  X...      ...  XX.",
"....XXX  ..   ...   .      X  . .. .. ..XX     .        ..    XX",
"  . XX  .... ....      .X .            .               ..     X ",
"   . .  ...   .     . . ..         X     .     .  XX XX .  XX. .",
"  .X    XXX         .X         X         ..X  ...        . X ...",
"X...X.   XX.       XXX          X XX    ... .X..  X     .     . ",
"...X...   ....      X.          ...XXXXXX.  ..  .      . . . .  ",
"...X....  .. ..    X...         X.XX X.X.             .   .   . ",
" ...X..       X.  ....         X XX . ...    . .         .   ...",
"X  .....   X   .    ..      XX          .... ..          .. . ..",
"XX....... X.   .           ..    .. .       .         . ....   .",
"X.........            ...XX.X.          .              ...... ..",
"....X....      X.  .  ... X....          . X   .       .XX.... .",
"X..XX    .   ....      .    ....    .     X     .  ..  XXXX..   ",
"X .                     .    .           XX  .   XXX. XXX  .XX X",
"         .           . ...  .       .. .XX   ..X. X  .XX     X  ",
".   . . .      X X XX.  .....X  X.... . .XX ......    .    X.   ",
"      ..   X    X.X .    ...XXXXXX .     XX ......   .    X...  ",
".          .  .. X      XXX ..  XXX            ..X ..XX  X.X.XX.",
"..XX   .      .   X X XX X  ...X XXX            XX ...X XXX..X..",
" XXXX XX     .   XX         ..    X    .     . .    X .. X .....",
"  XX XX     .          X   ..    .   .... . ....   X        ....",
"  ..  X. . ..       . .   .     XX   . .X      .    X .     ....",
"  .   . . .    .  ....       ...X . ... X          ...    .. .X.",
"  X. ...           ....      ... ... ..X       .  ...    ..  XXX",
" XX   .            .....   ..X.XXX.        .   ..XX.     .    X ",
"  X  ..  ...    X    .. .    . X XX        .  ... X       . .  X",
"     .    ..  .XX                 .    ....    .           .  XX",
" .       X    ..     .   X  ..      .......     .       X      X",
".       X           .    .......... .  ...              X    X .",
" . X. X ..  . .           . .......     .X.  .  X    X .     XXX",
"  ..   ...               ....... .     .X.  .   .      ..    XXX",
"   .. ....        ..     ... .   X. .  ..    . .... ... .   ..X ",
"  X  X ..        ...        . X XXXX.   X   .........      ... .",
" XXXXXX     X ......  XX    .XXX .XXX  X    ... . .          .  ",
" .XXXX .. XXX.....            XX...X    X  XX.X... .    .       ",
"    .   . XXX ..   .             .X..  .X.XX..XX.   .    ..  X X",
"     .     . .XXX        . X.     XX. .X.X......X   .. .      XX",
".   ..... .. . X       ......     .  ..... .. .    .. .       X ",
"..  .   ...     .. ..... .  ..       . ..  .       .      XX X  "
};
