/* XPM */
static char *a52a5eb6e97a4000e9c4fbc8bd6953d8XRnQOTWRAsV1sP21[] = {
/* columns rows colors chars-per-pixel */
"64 64 12 1 ",
"  c gray12",
". c gray17",
"X c gray20",
"o c gray22",
"O c #3C3C3C",
"+ c #3E3E3E",
"@ c gray25",
"# c gray26",
"$ c #434343",
"% c gray27",
"& c #494949",
"* c #535353",
/* pixels */
"O#*************************************************************O",
"%OO###########################################################OX",
"*OOOOOOOOOooOOO#&###OO###OOOOOOOoooOO##&###Ooo###OOOOOOOOOOOOOX.",
"*#OOOOOOOooOOO#&###OO###OOOOOOOoooOO##&###Ooo###OOOOOOOOOOOOOOX ",
"*#OOOOOOooOOO#&###OO###OOOOOOOoooOO##&###Ooo###OOOOOOOOOOOOOOOX ",
"*#OOOOOooOOO#&###OO###OOOOOOOoooOO##&###Ooo###OOOOOOOOOOOOOOOoX ",
"*#OOOOooOOO#&###OO###OOOOOOOoooOO##&###Ooo###OOOOOOOOOOOOOOOooX ",
"*#OOOooOOO#&###OO###OOOOOOOoooOO##&###Ooo###OOOOOOOOOOOOOOOoooX ",
"*#OOooOOO#&###OO###OOOOOOOoooOO##&###Ooo###OOOOOOOOOOOOOOOoooOX ",
"*#OooOOO#&###OO###OOOOOOOoooOO##&###Ooo###OOOOOOOOOOOOOOOoooOOX ",
"*#ooOOO#&###OO###OOOOOOOoooOO##&###Ooo###OOOOOOOOOOOOOOOoooOO#X ",
"*#oOOO#&###OO###OOOOOOOoooOO##&###Ooo###OOOOOOOOOOOOOOOoooOO##X ",
"*#OOO#&###OO###OOOOOOOoooOO##&###Ooo###OOOOOOOOOOOOOOOoooOO##&X ",
"*#OO#&###OO###OOOOOOOoooOO##&###Ooo###OOOOOOOOOOOOOOOoooOO##&#X ",
"*#O#&###OO###OOOOOOOoooOO##&###Ooo###OOOOOOOOOOOOOOOoooOO##&##X ",
"*##&###OO###OOOOOOOoooOO##&###Ooo###OOOOOOOOOOOOOOOoooOO##&###X ",
"*#&###OO###OOOOOOOoooOO##&###Ooo###OOOOOOOOOOOOOOOoooOO##&###OX ",
"*####OO###OOOOOOOoooOO##&###Ooo###OOOOOOOOOOOOOOOoooOO##&###OoX ",
"*###OO###OOOOOOOoooOO##&###Ooo###OOOOOOOOOOOOOOOoooOO##&###OooX ",
"*##OO###OOOOOOOoooOO##&###Ooo###OOOOOOOOOOOOOOOoooOO##&###Ooo#X ",
"*#OO###OOOOOOOoooOO##&###Ooo###OOOOOOOOOOOOOOOoooOO##&###Ooo##X ",
"*#O###OOOOOOOoooOO##&###Ooo###OOOOOOOOOOOOOOOoooOO##&###Ooo###X ",
"*####OOOOOOOoooOO##&###Ooo###OOOOOOOOOOOOOOOoooOO##&###Ooo###OX ",
"*###OOOOOOOoooOO##&###Ooo###OOOOOOOOOOOOOOOoooOO##&###Ooo###OOX ",
"*##OOOOOOOoooOO##&###Ooo###OOOOOOOOOOOOOOOoooOO##&###Ooo###OOOX ",
"*#OOOOOOOoooOO##&###Ooo###OOOOOOOOOOOOOOOoooOO##&###Ooo###OOOOX ",
"*#OOOOOOoooOO##&###Ooo###OOOOOOOOOOOOOOOoooOO##&###Ooo###OOOOOX ",
"*#OOOOOoooOO##&###Ooo###OOOOOOOOOOOOOOOoooOO##&###Ooo###OOOOOOX ",
"*#OOOOoooOO##&###Ooo###OOOOOOOOOOOOOOOoooOO##&###Ooo###OOOOOOOX ",
"*#OOOoooOO##&###Ooo###OOOOOOOOOOOOOOOoooOO##&###Ooo###OOOOOOOOX ",
"*#OOoooOO##&###Ooo###OOOOOOOOOOOOOOOoooOO##&###Ooo###OOOOOOOOOX ",
"*#OoooOO##&###Ooo###OOOOOOOOOOOOOOOoooOO##&###Ooo###OOOOOOOOOOX ",
"*#oooOO##&###Ooo###OOOOOOOOOOOOOOOoooOO##&###Ooo###OOOOOOOOOOOX ",
"*#ooOO##&###Ooo###OOOOOOOOOOOOOOOoooOO##&###Ooo###OOOOOOOOOOOOX ",
"*#oOO##&###Ooo###OOOOOOOOOOOOOOOoooOO##&###Ooo###OOOOOOOOOOOOOX ",
"*#OO##&###Ooo###OOOOOOOOOOOOOOOoooOO##&###Ooo###OOOOOOOOOOOOOOX ",
"*#O##&###Ooo###OOOOOOOOOOOOOOOoooOO##&###Ooo###OOOOOOOOOOOOOOOX ",
"*###&###Ooo###OOOOOOOOOOOOOOOoooOO##&###Ooo###OOOOOOOOOOOOOOOoX ",
"*##&###Ooo###OOOOOOOOOOOOOOOoooOO##&###Ooo###OOOOOOOOOOOOOOOooX ",
"*#&###Ooo###OOOOOOOOOOOOOOOoooOO##&###Ooo###OOOOOOOOOOOOOOOoooX ",
"*####Ooo###OOOOOOOOOOOOOOOoooOO##&###Ooo###OOOOOOOOOOOOOOOoooOX ",
"*###Ooo###OOOOOOOOOOOOOOOoooOO##&###Ooo###OOOOOOOOOOOOOOOoooOOX ",
"*##Ooo###OOOOOOOOOOOOOOOoooOO##&###Ooo###OOOOOOOOOOOOOOOoooOO#X ",
"*#Ooo###OOOOOOOOOOOOOOOoooOO##&###Ooo###OOOOOOOOOOOOOOOoooOO##X ",
"*#oo###OOOOOOOOOOOOOOOoooOO##&###Ooo###OOOOOOOOOOOOOOOoooOO##&X ",
"*#o###OOOOOOOOOOOOOOOoooOO##&###Ooo###OOOOOOOOOOOOOOOoooOO##&#X ",
"*####OOOOOOOOOOOOOOOoooOO##&###Ooo###OOOOOOOOOOOOOOOoooOO##&##X ",
"*###OOOOOOOOOOOOOOOoooOO##&###Ooo###OOOOOOOOOOOOOOOoooOO##&###X ",
"*##OOOOOOOOOOOOOOOoooOO##&###Ooo###OOOOOOOOOOOOOOOoooOO##&###OX ",
"*#OOOOOOOOOOOOOOOoooOO##&###Ooo###OOOOOOOOOOOOOOOoooOO##&###OoX ",
"*#OOOOOOOOOOOOOOoooOO##&###Ooo###OOOOOOOOOOOOOOOoooOO##&###OooX ",
"*#OOOOOOOOOOOOOoooOO##&###Ooo###OOOOOOOOOOOOOOOoooOO##&###Ooo#X ",
"*#OOOOOOOOOOOOoooOO##&###Ooo###OOOOOOOOOOOOOOOoooOO##&###Ooo##X ",
"*#OOOOOOOOOOOoooOO##&###Ooo###OOOOOOOOOOOOOOOoooOO##&###Ooo###X ",
"*#OOOOOOOOOOoooOO##&###Ooo###OOOOOOOOOOOOOOOoooOO##&###Ooo###OX ",
"*#OOOOOOOOOoooOO##&###Ooo###OOOOOOOOOOOOOOOoooOO##&###Ooo###OOX ",
"*#OOOOOOOOoooOO##&###Ooo###OOOOOOOOOOOOOOOoooOO##&###Ooo###OOOX ",
"*#OOOOOOOoooOO##&###Ooo###OOOOOOOOOOOOOOOoooOO##&###Ooo###OOOOX ",
"*#OOOOOOoooOO##&###Ooo###OOOOOOOOOOOOOOOoooOO##&###Ooo###OOOOOX ",
"*#OOOOOoooOO##&###Ooo###OOOOOOOOOOOOOOOoooOO##&###Ooo###OOOOOOX ",
"*#OOOOoooOO##&###Ooo###OOOOOOOOOOOOOOOoooOO##&###Ooo###OOOOOOOX ",
"*#OOOoooOO##&###Ooo###OOOOOOOOOOOOOOOoooOO##&###Ooo###OOOOOOOOX ",
"*OXXXXXXXXXXXXXXXXXXXXXXXXXXXXXXXXXXXXXXXXXXXXXXXXXXXXXXXXXXXXX ",
"O                                                               "
};
