/* XPM */
static char *result[] = {
/* columns rows colors chars-per-pixel */
"64 64 8 1 ",
"  c gray6",
". c gray12",
"X c gray20",
"o c #434343",
"O c gray39",
"+ c gray53",
"@ c #979797",
"# c #A7A7A7",
/* pixels */
"                                                                ",
"................................................................",
"XXXXXXXXXXXXXXXXXXXXXXXXXXXXXXXXXXXXXXXXXXXXXXXXXXXXXXXXXXXXXXXX",
"oooooooooooooooooooooooooooooooooooooooooooooooooooooooooooooooo",
"oooooooooooooooooooooooooooooooooooooooooooooooooooooooooooooooo",
"oooooo+OOoXooooooooooo+OOoXooooooooooo+OOoXooooooooooo+OOoXooooo",
"ooooo+#@OoXXooooooooo+#@OoXXooooooooo+#@OoXXooooooooo+#@OoXXoooo",
"oooooO@+OoXXoooooooooO@+OoXXoooooooooO@+OoXXoooooooooO@+OoXXoooo",
"ooooooOOOoXXooooooooooOOOoXXooooooooooOOOoXXooooooooooOOOoXXoooo",
"oooooXoooX.XoooooooooXoooX.XoooooooooXoooX.XoooooooooXoooX.Xoooo",
"ooooooXXX.XoooooooooooXXX.XoooooooooooXXX.XoooooooooooXXX.Xooooo",
"oooooooooooooooooooooooooooooooooooooooooooooooooooooooooooooooo",
"oooooooooooooooooooooooooooooooooooooooooooooooooooooooooooooooo",
"XXXXXXXXXXXXXXXXXXXXXXXXXXXXXXXXXXXXXXXXXXXXXXXXXXXXXXXXXXXXXXXX",
"................................................................",
"                                                                ",
"                                                                ",
"................................................................",
"XXXXXXXXXXXXXXXXXXXXXXXXXXXXXXXXXXXXXXXXXXXXXXXXXXXXXXXXXXXXXXXX",
"oooooooooooooooooooooooooooooooooooooooooooooooooooooooooooooooo",
"oooooooooooooooooooooooooooooooooooooooooooooooooooooooooooooooo",
"oooooo+OOoXooooooooooo+OOoXooooooooooo+OOoXooooooooooo+OOoXooooo",
"ooooo+#@OoXXooooooooo+#@OoXXooooooooo+#@OoXXooooooooo+#@OoXXoooo",
"oooooO@+OoXXoooooooooO@+OoXXoooooooooO@+OoXXoooooooooO@+OoXXoooo",
"ooooooOOOoXXooooooooooOOOoXXooooooooooOOOoXXooooooooooOOOoXXoooo",
"oooooXoooX.XoooooooooXoooX.XoooooooooXoooX.XoooooooooXoooX.Xoooo",
"ooooooXXX.XoooooooooooXXX.XoooooooooooXXX.XoooooooooooXXX.Xooooo",
"oooooooooooooooooooooooooooooooooooooooooooooooooooooooooooooooo",
"oooooooooooooooooooooooooooooooooooooooooooooooooooooooooooooooo",
"XXXXXXXXXXXXXXXXXXXXXXXXXXXXXXXXXXXXXXXXXXXXXXXXXXXXXXXXXXXXXXXX",
"................................................................",
"                                                                ",
"                                                                ",
"................................................................",
"XXXXXXXXXXXXXXXXXXXXXXXXXXXXXXXXXXXXXXXXXXXXXXXXXXXXXXXXXXXXXXXX",
"oooooooooooooooooooooooooooooooooooooooooooooooooooooooooooooooo",
"oooooooooooooooooooooooooooooooooooooooooooooooooooooooooooooooo",
"oooooo+OOoXooooooooooo+OOoXooooooooooo+OOoXooooooooooo+OOoXooooo",
"ooooo+#@OoXXooooooooo+#@OoXXooooooooo+#@OoXXooooooooo+#@OoXXoooo",
"oooooO@+OoXXoooooooooO@+OoXXoooooooooO@+OoXXoooooooooO@+OoXXoooo",
"ooooooOOOoXXooooooooooOOOoXXooooooooooOOOoXXooooooooooOOOoXXoooo",
"oooooXoooX.XoooooooooXoooX.XoooooooooXoooX.XoooooooooXoooX.Xoooo",
"ooooooXXX.XoooooooooooXXX.XoooooooooooXXX.XoooooooooooXXX.Xooooo",
"oooooooooooooooooooooooooooooooooooooooooooooooooooooooooooooooo",
"oooooooooooooooooooooooooooooooooooooooooooooooooooooooooooooooo",
"XXXXXXXXXXXXXXXXXXXXXXXXXXXXXXXXXXXXXXXXXXXXXXXXXXXXXXXXXXXXXXXX",
"................................................................",
"                                                                ",
"                                                                ",
"................................................................",
"XXXXXXXXXXXXXXXXXXXXXXXXXXXXXXXXXXXXXXXXXXXXXXXXXXXXXXXXXXXXXXXX",
"oooooooooooooooooooooooooooooooooooooooooooooooooooooooooooooooo",
"oooooooooooooooooooooooooooooooooooooooooooooooooooooooooooooooo",
"oooooo+OOoXooooooooooo+OOoXooooooooooo+OOoXooooooooooo+OOoXooooo",
"ooooo+#@OoXXooooooooo+#@OoXXooooooooo+#@OoXXooooooooo+#@OoXXoooo",
"oooooO@+OoXXoooooooooO@+OoXXoooooooooO@+OoXXoooooooooO@+OoXXoooo",
"ooooooOOOoXXooooooooooOOOoXXooooooooooOOOoXXooooooooooOOOoXXoooo",
"oooooXoooX.XoooooooooXoooX.XoooooooooXoooX.XoooooooooXoooX.Xoooo",
"ooooooXXX.XoooooooooooXXX.XoooooooooooXXX.XoooooooooooXXX.Xooooo",
"oooooooooooooooooooooooooooooooooooooooooooooooooooooooooooooooo",
"oooooooooooooooooooooooooooooooooooooooooooooooooooooooooooooooo",
"XXXXXXXXXXXXXXXXXXXXXXXXXXXXXXXXXXXXXXXXXXXXXXXXXXXXXXXXXXXXXXXX",
"................................................................",
"                                                                "
};
