/* XPM */
static char *result[] = {
/* columns rows colors chars-per-pixel */
"64 64 9 1 ",
"  c #4B0B00",
". c #5F1700",
"X c #661A00",
"o c #6B1B00",
"O c #731F00",
"+ c #7F2800",
"@ c #872F00",
"# c #933600",
"$ c #9B3B00",
/* pixels */
"                                                                ",
" ..............................  .............................. ",
" ..............................  .............................. ",
" ..............................  .............................. ",
" ..............................  .............................. ",
" ..............................  .............................. ",
" ..............................  .............................. ",
" .................XX...........  .................XX........... ",
" ...X...X...XXX..XXXX...X......  ...X...X...XXX..XXXX...X...... ",
" ...XXXXXXXXXXXXXXXXXXXXXX.....  ...XXXXXXXXXXXXXXXXXXXXXX..... ",
" ..XXXXXXXXXXXXXXXOOXXOOXXXXXX.  ..XXXXXXXXXXXXXXXOOXXOOXXXXXX. ",
" .XXXXXXXOOXXXOOOOOOOOOOXXXXXX.  .XXXXXXXOOXXXOOOOOOOOOOXXXXXX. ",
" .XXXOOOOOOOOOOOOOOOOOOOOOOXXX.  .XXXOOOOOOOOOOOOOOOOOOOOOOXXX. ",
" .OOOOOOOOOOOOOOOO++OOOOOOOXXX.  .OOOOOOOOOOOOOOOO++OOOOOOOXXX. ",
" .OOOOOOOOO++OOO++++++O++OOOOO.  .OOOOOOOOO++OOO++++++O++OOOOO. ",
" .OOOOO++++@@+OO++@@@@@@@@OOOO.  .OOOOO++++@@+OO++@@@@@@@@OOOO. ",
" .OOO+@++++@@@O++@@@@@@@@@++OO.  .OOO+@++++@@@O++@@@@@@@@@++OO. ",
" .O+++@@+++@@@++@@@@@@@@@@@++O.  .O+++@@+++@@@++@@@@@@@@@@@++O. ",
" .O+++@@@@@@@@@+@@@@@@@@@@@@@O.  .O+++@@@@@@@@@+@@@@@@@@@@@@@O. ",
" .O++@@@@@@@@@@@@@@@@@@@@@@@@O.  .O++@@@@@@@@@@@@@@@@@@@@@@@@O. ",
" .O@@@@@@@@@@@@@@@@@@@@@@@@@@O.  .O@@@@@@@@@@@@@@@@@@@@@@@@@@O. ",
" .O@@@@@@@@@@@@@@@@@@@@@@@@@@O.  .O@@@@@@@@@@@@@@@@@@@@@@@@@@O. ",
" .O@@@@@@@@@@@@@@@@@@@@@@@@@@O.  .O@@@@@@@@@@@@@@@@@@@@@@@@@@O. ",
" .O@@@@@@@@####@#####@@@@@@@@O.  .O@@@@@@@@####@#####@@@@@@@@O. ",
" .O@@@######$$##$$$$#@###@@@@O.  .O@@@######$$##$$$$#@###@@@@O. ",
" .O@@###$$##$$$$$$$$###$$@@@@O.  .O@@###$$##$$$$$$$$###$$@@@@O. ",
" .O@@#$$$$##$$$$$$$$###$$#@@@O.  .O@@#$$$$##$$$$$$$$###$$#@@@O. ",
" .O@##$$$$#$$$$$$$$$$$$$$$#@@O.  .O@##$$$$#$$$$$$$$$$$$$$$#@@O. ",
" .O@#$$$$$#$$$$$$$$$$$$$$$$@@O.  .O@#$$$$$#$$$$$$$$$$$$$$$$@@O. ",
" .O@#$$$$$$$$$$$$$$$$$$$#$#@@O.  .O@#$$$$$$$$$$$$$$$$$$$#$#@@O. ",
" .O@###$$$$$$$$$$$$$$$$$#$#@@O.  .O@###$$$$$$$$$$$$$$$$$#$#@@O. ",
" .O@####$$$#####$$$##$$$###@@O.  .O@####$$$#####$$$##$$$###@@O. ",
" .O@@@@#$$##@@@##@######@@@@@O.  .O@@@@#$$##@@@##@######@@@@@O. ",
" .O@@@@####@@@@@@@@@###@@@@@@O.  .O@@@@####@@@@@@@@@###@@@@@@O. ",
" .O@@@@@@@@@@@@@@@@@@@@@@@@@@O.  .O@@@@@@@@@@@@@@@@@@@@@@@@@@O. ",
" .O@@@@@@@@@@@@@@@@@@@@@@@@@@O.  .O@@@@@@@@@@@@@@@@@@@@@@@@@@O. ",
" .O@@@@@@@@@@@@@@@@@@@@@@@@@@O.  .O@@@@@@@@@@@@@@@@@@@@@@@@@@O. ",
" .O@@@@@@@@@@@@@@@@@@@@@@@@@@O.  .O@@@@@@@@@@@@@@@@@@@@@@@@@@O. ",
" .O+@@@@@@@@@@@@@@@@@@@@@@@++O.  .O+@@@@@@@@@@@@@@@@@@@@@@@++O. ",
" .O+@@@@@@@@@@@@@@@@@@@@@@++OO.  .O+@@@@@@@@@@@@@@@@@@@@@@++OO. ",
" .O++@@+@+@@@@++@@@++@@@@+++OO.  .O++@@+@+@@@@++@@@++@@@@+++OO. ",
" .OO++++++++++++O++++@@@+++OOO.  .OO++++++++++++O++++@@@+++OOO. ",
" .OOO++++O++OOOOO++O+++++OOOOO.  .OOO++++O++OOOOO++O+++++OOOOO. ",
" .OOOOOOOOOOOOOOOOOOOOOOOOOOOO.  .OOOOOOOOOOOOOOOOOOOOOOOOOOOO. ",
" .OOOOOOOOOOOOOOOOOOOOOOOOOOOO.  .OOOOOOOOOOOOOOOOOOOOOOOOOOOO. ",
" .OOOOOOOOOOOOOOOOOOOOOOOOOOOO.  .OOOOOOOOOOOOOOOOOOOOOOOOOOOO. ",
" .OOOOOOOOOOOOOOOOOOOOOOOOOOOO.  .OOOOOOOOOOOOOOOOOOOOOOOOOOOO. ",
" .OOOOOOOOOOOOOOOOOOOOOOOOOOOO.  .OOOOOOOOOOOOOOOOOOOOOOOOOOOO. ",
" .OOOOOOOOOOOOOOOOOOOOOOOOOOOO.  .OOOOOOOOOOOOOOOOOOOOOOOOOOOO. ",
" .OOOOOOOOOOOOOOOOOOOOOOOOOOOo.  .OOOOOOOOOOOOOOOOOOOOOOOOOOOo. ",
" .oOOOOOOOOOOOOOOOOOOOOOOOOOoo.  .oOOOOOOOOOOOOOOOOOOOOOOOOOoo. ",
" .ooooooOOOooOOOOOOooOOOOOOOoo.  .ooooooOOOooOOOOOOooOOOOOOOoo. ",
" .ooooooOOooooOOOOooooOoooOOo..  .ooooooOOooooOOOOooooOoooOOo.. ",
" .ooooooOoo..ooooo...oooooOo...  .ooooooOoo..ooooo...oooooOo... ",
" ......ooo...ooooo...ooooooo...  ......ooo...ooooo...ooooooo... ",
" ......ooo....oo..........oo...  ......ooo....oo..........oo... ",
" ..............................  .............................. ",
" ..............................  .............................. ",
" ..............................  .............................. ",
" ..............................  .............................. ",
" ..............................  .............................. ",
" ..............................  .............................. ",
" ..............................  .............................. ",
"                                                                "
};
