/* XPM */
static char *_3a3015182c04bd9c822cea125bde0a7YI29mOGgPUn1X9Dr[] = {
/* columns rows colors chars-per-pixel */
"64 64 8 1 ",
"  c #434343",
". c gray39",
"X c #777777",
"o c gray53",
"O c #BBBBBB",
"+ c #CBCBCB",
"@ c gray86",
"# c gray92",
/* pixels */
"                                                                ",
"  .Xoooooooooo....ooooooooooX.    .Xoooooooooo....ooooooooooX.  ",
" .XoO+@###@++OooooO++@###@+OoX.  .XoO+@###@++OooooO++@###@+OoX. ",
" XoO+@########@@@@########@+OoX  XoO+@########@@@@########@+OoX ",
" oO+@######################@+Oo  oO+@######################@+Oo ",
" o+@########################@+o  o+@########################@+o ",
" o+##########################+o  o+##########################+o ",
" o+##########################+o  o+##########################+o ",
" o+##########################+o  o+##########################+o ",
" o+##########################+o  o+##########################+o ",
" o+@########################@+o  o+@########################@+o ",
" oO+@######################@+Oo  oO+@######################@+Oo ",
" XoO+@########@@@@########@+OoX  XoO+@########@@@@########@+OoX ",
" .XoO+@###@++OooooO++@###@+OoX.  .XoO+@###@++OooooO++@###@+OoX. ",
"  .Xoooooooooo....ooooooooooX.    .Xoooooooooo....ooooooooooX.  ",
"                                                                ",
"                                                                ",
"  .Xoooooooooo....ooooooooooX.    .Xoooooooooo....ooooooooooX.  ",
" .XoO+@###@++OooooO++@###@+OoX.  .XoO+@###@++OooooO++@###@+OoX. ",
" XoO+@########@@@@########@+OoX  XoO+@########@@@@########@+OoX ",
" oO+@######################@+Oo  oO+@######################@+Oo ",
" o+@########################@+o  o+@########################@+o ",
" o+##########################+o  o+##########################+o ",
" o+##########################+o  o+##########################+o ",
" o+##########################+o  o+##########################+o ",
" o+##########################+o  o+##########################+o ",
" o+@########################@+o  o+@########################@+o ",
" oO+@######################@+Oo  oO+@######################@+Oo ",
" XoO+@########@@@@########@+OoX  XoO+@########@@@@########@+OoX ",
" .XoO+@###@++OooooO++@###@+OoX.  .XoO+@###@++OooooO++@###@+OoX. ",
"  .Xoooooooooo....ooooooooooX.    .Xoooooooooo....ooooooooooX.  ",
"                                                                ",
"                                                                ",
"  .Xoooooooooo....ooooooooooX.    .Xoooooooooo....ooooooooooX.  ",
" .XoO+@###@++OooooO++@###@+OoX.  .XoO+@###@++OooooO++@###@+OoX. ",
" XoO+@########@@@@########@+OoX  XoO+@########@@@@########@+OoX ",
" oO+@######################@+Oo  oO+@######################@+Oo ",
" o+@########################@+o  o+@########################@+o ",
" o+##########################+o  o+##########################+o ",
" o+##########################+o  o+##########################+o ",
" o+##########################+o  o+##########################+o ",
" o+##########################+o  o+##########################+o ",
" o+@########################@+o  o+@########################@+o ",
" oO+@######################@+Oo  oO+@######################@+Oo ",
" XoO+@########@@@@########@+OoX  XoO+@########@@@@########@+OoX ",
" .XoO+@###@++OooooO++@###@+OoX.  .XoO+@###@++OooooO++@###@+OoX. ",
"  .Xoooooooooo....ooooooooooX.    .Xoooooooooo....ooooooooooX.  ",
"                                                                ",
"                                                                ",
"  .Xoooooooooo....ooooooooooX.    .Xoooooooooo....ooooooooooX.  ",
" .XoO+@###@++OooooO++@###@+OoX.  .XoO+@###@++OooooO++@###@+OoX. ",
" XoO+@########@@@@########@+OoX  XoO+@########@@@@########@+OoX ",
" oO+@######################@+Oo  oO+@######################@+Oo ",
" o+@########################@+o  o+@########################@+o ",
" o+##########################+o  o+##########################+o ",
" o+##########################+o  o+##########################+o ",
" o+##########################+o  o+##########################+o ",
" o+##########################+o  o+##########################+o ",
" o+@########################@+o  o+@########################@+o ",
" oO+@######################@+Oo  oO+@######################@+Oo ",
" XoO+@########@@@@########@+OoX  XoO+@########@@@@########@+OoX ",
" .XoO+@###@++OooooO++@###@+OoX.  .XoO+@###@++OooooO++@###@+OoX. ",
"  .Xoooooooooo....ooooooooooX.    .Xoooooooooo....ooooooooooX.  ",
"                                                                "
};
