/* XPM */
static char *result[] = {
/* columns rows colors chars-per-pixel */
"32 32 6 1 ",
"  c #000008",
". c gray12",
"X c gray20",
"o c #235B13",
"O c #535353",
"+ c #9B0000",
/* pixels */
"XXXXXXXXXXXXXXXXXXXXXXXXXXXXXXXX",
"XOOOOOOOOOOOOOOOOOOOOOOOOOOOOOOX",
"XOOOOXXXXXXXXXXXXXXXXXXXXXXOOOOX",
"XOOXXX.                  .XXXOOX",
"XOOX.                      .XOOX",
"XOXX  .XX.                  XXOX",
"XOX. .XOOX.                 .XOX",
"XOX  XOOOOX                  XOX",
"XOX  XOOOOX                  XOX",
"XOX  .XOOX.                  XOX",
"XOX   .XX.                   XOX",
"XOX                          XOX",
"XOX                      .   XOX",
"XOX                      X   XOX",
"XOX                      X.  XOX",
"XOX                      X.  XOX",
"XOX                      X.  XOX",
"XOX                      X.  XOX",
"XOX                     .X.  XOX",
"XOX                    .XX.  XOX",
"XOX                   .XXX.  XOX",
"XOX.           .XXXXXXXXXX  .XOX",
"XOXX             ........   XXOX",
"XOOX.                      .XOOX",
"XOOOXX.                  .XXXOOX",
"XOOOOXXXXXXXXXXXXXXXXXXXXXXOOOOX",
"XOOOOOOOOOOOOOOOOOOOOOOOOOOOOOOX",
"XOOOOOOOOOOOOOOOOOOOOOOOOOOOOOOX",
"XOOooXO++XOOOOXXXXXXXXXXXXXXXXOX",
"XOOooXO++XOOOOXXXXXXXXXXXXXXXXOX",
"XOOXXXOXXXOOOOOOOOOOOOOOOOOOOOOX",
"XXXXXXXXXXXXXXXXXXXXXXXXXXXXXXXX"
};
