/* XPM */
static char *result[] = {
/* columns rows colors chars-per-pixel */
"64 64 3 1 ",
"  c #000008",
". c #5F1700",
"X c #872F00",
/* pixels */
" XXXXXX.         XXXXXX.         XXXXXX.         XXXXXX.        ",
" XXXXX.       .  XXXXX.       .  XXXXX.       .  XXXXX.       . ",
" XXXX.       .X  XXXX.       .X  XXXX.       .X  XXXX.       .X ",
" XXX.       .XX  XXX.       .XX  XXX.       .XX  XXX.       .XX ",
" XX.       .XXX  XX.       .XXX  XX.       .XXX  XX.       .XXX ",
" X.       .XXXX  X.       .XXXX  X.       .XXXX  X.       .XXXX ",
" .       .XXXXX  .       .XXXXX  .       .XXXXX  .       .XXXXX ",
"        .XXXXXX         .XXXXXX         .XXXXXX         .XXXXXX ",
"       .XXXXXXX        .XXXXXXX        .XXXXXXX        .XXXXXXX ",
"      .XXXXXXX.       .XXXXXXX.       .XXXXXXX.       .XXXXXXX. ",
"     .XXXXXXX.       .XXXXXXX.       .XXXXXXX.       .XXXXXXX.  ",
"    .XXXXXXX.       .XXXXXXX.       .XXXXXXX.       .XXXXXXX.   ",
"   .XXXXXXX.       .XXXXXXX.       .XXXXXXX.       .XXXXXXX.    ",
"  .XXXXXXX.       .XXXXXXX.       .XXXXXXX.       .XXXXXXX.     ",
" .XXXXXXX.       .XXXXXXX.       .XXXXXXX.       .XXXXXXX.      ",
" XXXXXXX.        XXXXXXX.        XXXXXXX.        XXXXXXX.       ",
" XXXXXX.         XXXXXX.         XXXXXX.         XXXXXX.        ",
" XXXXX.       .  XXXXX.       .  XXXXX.       .  XXXXX.       . ",
" XXXX.       .X  XXXX.       .X  XXXX.       .X  XXXX.       .X ",
" XXX.       .XX  XXX.       .XX  XXX.       .XX  XXX.       .XX ",
" XX.       .XXX  XX.       .XXX  XX.       .XXX  XX.       .XXX ",
" X.       .XXXX  X.       .XXXX  X.       .XXXX  X.       .XXXX ",
" .       .XXXXX  .       .XXXXX  .       .XXXXX  .       .XXXXX ",
"        .XXXXXX         .XXXXXX         .XXXXXX         .XXXXXX ",
"       .XXXXXXX        .XXXXXXX        .XXXXXXX        .XXXXXXX ",
"      .XXXXXXX.       .XXXXXXX.       .XXXXXXX.       .XXXXXXX. ",
"     .XXXXXXX.       .XXXXXXX.       .XXXXXXX.       .XXXXXXX.  ",
"    .XXXXXXX.       .XXXXXXX.       .XXXXXXX.       .XXXXXXX.   ",
"   .XXXXXXX.       .XXXXXXX.       .XXXXXXX.       .XXXXXXX.    ",
"  .XXXXXXX.       .XXXXXXX.       .XXXXXXX.       .XXXXXXX.     ",
" .XXXXXXX.       .XXXXXXX.       .XXXXXXX.       .XXXXXXX.      ",
" XXXXXXX.        XXXXXXX.        XXXXXXX.        XXXXXXX.       ",
" XXXXXX.         XXXXXX.         XXXXXX.         XXXXXX.        ",
" XXXXX.       .  XXXXX.       .  XXXXX.       .  XXXXX.       . ",
" XXXX.       .X  XXXX.       .X  XXXX.       .X  XXXX.       .X ",
" XXX.       .XX  XXX.       .XX  XXX.       .XX  XXX.       .XX ",
" XX.       .XXX  XX.       .XXX  XX.       .XXX  XX.       .XXX ",
" X.       .XXXX  X.       .XXXX  X.       .XXXX  X.       .XXXX ",
" .       .XXXXX  .       .XXXXX  .       .XXXXX  .       .XXXXX ",
"        .XXXXXX         .XXXXXX         .XXXXXX         .XXXXXX ",
"       .XXXXXXX        .XXXXXXX        .XXXXXXX        .XXXXXXX ",
"      .XXXXXXX.       .XXXXXXX.       .XXXXXXX.       .XXXXXXX. ",
"     .XXXXXXX.       .XXXXXXX.       .XXXXXXX.       .XXXXXXX.  ",
"    .XXXXXXX.       .XXXXXXX.       .XXXXXXX.       .XXXXXXX.   ",
"   .XXXXXXX.       .XXXXXXX.       .XXXXXXX.       .XXXXXXX.    ",
"  .XXXXXXX.       .XXXXXXX.       .XXXXXXX.       .XXXXXXX.     ",
" .XXXXXXX.       .XXXXXXX.       .XXXXXXX.       .XXXXXXX.      ",
" XXXXXXX.        XXXXXXX.        XXXXXXX.        XXXXXXX.       ",
" XXXXXX.         XXXXXX.         XXXXXX.         XXXXXX.        ",
" XXXXX.       .  XXXXX.       .  XXXXX.       .  XXXXX.       . ",
" XXXX.       .X  XXXX.       .X  XXXX.       .X  XXXX.       .X ",
" XXX.       .XX  XXX.       .XX  XXX.       .XX  XXX.       .XX ",
" XX.       .XXX  XX.       .XXX  XX.       .XXX  XX.       .XXX ",
" X.       .XXXX  X.       .XXXX  X.       .XXXX  X.       .XXXX ",
" .       .XXXXX  .       .XXXXX  .       .XXXXX  .       .XXXXX ",
"        .XXXXXX         .XXXXXX         .XXXXXX         .XXXXXX ",
"       .XXXXXXX        .XXXXXXX        .XXXXXXX        .XXXXXXX ",
"      .XXXXXXX.       .XXXXXXX.       .XXXXXXX.       .XXXXXXX. ",
"     .XXXXXXX.       .XXXXXXX.       .XXXXXXX.       .XXXXXXX.  ",
"    .XXXXXXX.       .XXXXXXX.       .XXXXXXX.       .XXXXXXX.   ",
"   .XXXXXXX.       .XXXXXXX.       .XXXXXXX.       .XXXXXXX.    ",
"  .XXXXXXX.       .XXXXXXX.       .XXXXXXX.       .XXXXXXX.     ",
" .XXXXXXX.       .XXXXXXX.       .XXXXXXX.       .XXXXXXX.      ",
" XXXXXXX.        XXXXXXX.        XXXXXXX.        XXXXXXX.       "
};
