/* XPM */
static char *tile0661689510948[] = {
/* columns rows colors chars-per-pixel */
"64 64 8 1 ",
"  c #202020",
". c #2A2A2A",
"X c #353535",
"o c #434343",
"O c #515151",
"+ c gray37",
"@ c #6A6A6A",
"# c #777777",
/* pixels */
"OoO#+ooo+#+o+#++@#@++@@OoOoooX..ooO#+ooo+#+o+#++@#@+++@OoOoooXX.",
"@++#@@@@@##@######@++++OOOoooo.X+++@@@@@@##@######@++++OOOooooX.",
"@@#@@#@@@@@@@@@@@@@+++OOooooXX.X+@#@@#@@@@@@@@@@@@@+++OOooooXXX.",
"@@#++@@+++++++++O++OOOOOoXoX X.X+@#++@@+++++++++O++OOOOOoXoX .X.",
"O@@O++++ooOOO++OOOooOOOoXoooXX .O@@O++++oOOOO++OOOooOOOoXoooX.  ",
"O+@++OO+OoOOOOOOOoXXOoOoXoooXX. O@@+++O+OoOOOOOOOoXXOoOoXoooXX. ",
"OO++OOO++++OOOOOoXooooooooXXXX..oO++OOo++++OOOOOoXooooooooXXXXX ",
"OOO+oOOOOOOOooOOoXoooooooooX... oOO+oOOOOOOOooOOoXoooooooooX... ",
"OOOOoOOoOOOOooOooooXXXooXXooXX  OOOOoOOoOOOOooOooooXXXooXXooX.  ",
"oOooOooooOoOOOooooXXXXoXXXXXXX  oOooOooooOOOOOooooXXXXoXXXXXXX  ",
"oXXoooXoXoooOoooXoXXoXXXXXXX.   ooXoooXoXoooOoooXoXXoXXXXX.X.   ",
"oooooXXXXooXXXooXXXXXXXX. XX    oooooXXXXooXXXooXXXXXXXX. XX    ",
"XXXooXXXXoXXX.XXXXX XXXXX.X.  . XXXooXXXXoXXX.XXXXX XXXXX.X.  . ",
". .XX.XoX..XX..  XX XX .XXX  .  . .XX.XoX..XX..  XX XX .XXX  .. ",
".      XX .. ..  .      ..  .   .      XX .. .X  .      ..  .   ",
".XX .X.X. .        .     .      .XX .X.X. .        .     .      ",
"@@+++++OoOoooX..ooO@OoooO@OoO@+++@+++++OoOoooX..ooO@OoooO@OoO@++",
"##@@+@+OOOoooo.X++@#@@@@@##@######@@+@+OOOoooo.X@+@#@@@@@#######",
"+@++++OOooooXX.X+@@@@#@@@@@@@++@++++++OOooooXX.X+@@@@#@@@@@@@++@",
"O++OOOOOoXoX ..X+@#++@++++++++++O++OOOOOoXoX X.X@@#++@@+++++++++",
"OOooOOooXoooXX .O@@O++++oOOOO++OOOooOOOoXoooXX .O@@O++++ooOOO++O",
"OoXXOoOoXoooXX. O@@+++O+OoOOOOOOOoXXOoOoXoooXX. O@@++OO+OoOOOOOO",
"oXooooooooXXXX..oO++OOo++++OOOOOoXooooooooXXXX..oO++OOo++++OOOOO",
"XXoooooooooX... oOO+oOOOOOOoooOOoXoooooooooX... oOO+oOOOOOOoooOO",
"oooXXXooXXooXX  OOOOoOOoOOOOooOooooXXXooXXooX.  O+OOoOOoOOOOooOo",
"ooXXXXoXXXXXXX  oOooOooooOoOOOooooXXXXoXXXXXXX  oOooOooooOoOOOoo",
"XoXXoXXXXXXX.   oXXoooXoXoooOoooXoXXoXXXXXXXX   oXXoooXoXoooOooo",
"XXXXXXXX. XX    oooooXXoXooXXXooXXXXXXXX. XX    oooooXXoXooXXXoo",
"XXX XXXXX.X.  . XXXooXXXXoXXX.XXXXX XXXXX.X.  . XXXooXXXXoXXX.XX",
".XX XX .XXX  .  . .XX XoXX.XX..  XX XX .XXX  .  X .XX.XoX..XX.. ",
" .      ..  .   .      XX .. ..  .      ..  .   .      XX .. .. ",
"   .     .   .  .XX .X.X. .        .     .   .  .XX .X.X. .     ",
"ooO@OoooO@OoO@+++@+++++OoOoooX..ooO@OoooO@OoO@+++@+++++OoOoooX. ",
"@+@#@@@@@#########@@+@+OOOoooo.X@+@#@@@@@#########@@+@+OOOooooX.",
"@@@@@#@@@@@@@++@++++++OOooooXX.X+@@@@#@@@@@@@++@++++++OOooooXXX.",
"@@#++@@+++++++++O++OOOOOoXoX X.X+@#++@@+++++++++O++OOOOOoXoX .X.",
"O@@O++++ooOOO++OOOooOOOoXoooXX .O@@O++++ooOOO++OOOooOOOoXoooX.. ",
"O+@+++O+OoOOOOOOOoXXOoOoXoooXX. O@@+++O+OoOOOOOOOoXXOoOoXoooXX. ",
"OO++OOo++++OOOOOoXooooooooXXXX..oO++OOO++++OOOOOoXooooooooXXXXX ",
"OOO+oOOOOOOoooOOoXoooooooooX... oOO+oOOOOOOoooOOoXoooooooooX... ",
"OOOOoOOoOOOOooOooooXXXooXXooX.  OOOOoOOoOOOOooOooooXXXooXXooX.  ",
"oOooOooooOoOOOooooXXXXoXXXXXXX  oOooOooooOoOOOooooXXXXoXXXXXXX  ",
"oXXoooXoXoooOoooXoXXoXXXXXXX.   oXXoooXoXoooOoooXoXXoXXXXXXX.   ",
"oooooXXXXooXXXooXXXXXXXX. XX    oooooXXoXooXXXooXXXXXXXXX XX    ",
"XXXooXXXXoXXX.XX.XX XXXXX.X.  . XXXooXXXXoXXX.XX.XX XXXXX.X.  . ",
". .XX.XoX..XX..  XX XX .XXX  .  . .XX.XoX..XX.X  XX XX .XXX  .. ",
".      XX .. ..  .      ..  .   .      XX .. ..  .      ..  .   ",
".XX .X.X. .        .     .      .XX .X.X. .        .     .      ",
"@@+++++OoOoooX..ooO@OoooO@OoO@+++@+++++OoOoooX..ooO@OoooO@OoO@++",
"##@@+@@OOOoooo.X++@#@@@@@#########@@+@+OOOoooo.X@+@#@@@@@#######",
"+@++++OOooooXX.X+@@@@#@@@@@@@++@+@++++OOooooXX.X+@@@@#@@@@@@@++@",
"O++OOOOOoXoX X.X+@#++@@+++++++++O++OOOOOoXoX X.X+@#++@@+++++++O+",
"OOooOOOoXoooXX .O@@O++++oOOOO++OOOooOOOoXoooXX .O@@O++++oOOOO++O",
"OoXXOoOoXoooXX. O@@++OO+OoOOOOOOOoXXOoOoXoooXX. O@@+++O+OoOOOOOO",
"oXooooooooXXXX..oO++OOo++++OOOOOoXooooooooXXXX..oO++OOo++++OOOOO",
"XXoooooooooX... oOO+oOOOOOOOooOOoXoooooooooX....oOO+oOOOOOOoooOO",
"oooXXXooXXooX.  OOOOOOOoOOOOooOooooXXXooXXooX.  OOOOoOOoOOOOooOo",
"ooXXXXoXXXXXXX  oOooOooooOoOOOooooXXXXoXXXXXXX  oOooOooooOOOOOoo",
"XoXXoXXXXXXX.   oXXoooXoXoooOoooXoXXoXXXXXXX.   oXXoooXoXoooOooo",
"XXXXXXXX..XX    oooooXXoXooXXXooXXXXXXXXX.XX    oooooXXXXooXXXoo",
"XXX .XXXX.X.  . XXXooXXXXoXXX.XXXXX .XXXX.X.  . XXXooXXXXoXXX.XX",
" X. .. .XXX  .  . .XX XoX..XX..  X. .. .XXX  .  . .XX XoX..XX.. ",
" .      ..  .   .    ..oX .. ..  .      ..  .   .    ..oX .. .. ",
"                 ..  . .  .                      ..  . .  .     "
};
