/* XPM */
static char *result[] = {
/* columns rows colors chars-per-pixel */
"64 64 22 1 ",
"  c #000008",
". c gray12",
"X c #230000",
"o c #3B0000",
"O c #3B0700",
"+ c gray20",
"@ c #4B0B00",
"# c #530000",
"$ c #5F1700",
"% c #6B0000",
"& c #731F00",
"* c #434343",
"= c #535353",
"- c gray39",
"; c #830000",
": c #9B0000",
"> c #B30000",
", c #872F00",
"< c #9B3B00",
"1 c #AF4F00",
"2 c #EB6300",
"3 c #979797",
/* pixels */
"................................................................",
".--------------------------------------------------------------.",
".-===++++==============================================++++===+.",
".-=*++*+..********************************************++*+..**+.",
".-=++*-.+.+******************************************++*-.+.+*+.",
".-=+*-.-*.+******************************************+*-.-*.+*+.",
".-=++.-*+.+******************************************++.-*+.+*+.",
".-=+.+*+..+******************************************+.+*+..+*+.",
".-=*.....+********************************************.....+**+.",
".-=**++++**********************************************++++***+.",
".-=***********************************************************+.",
".-=********..........................................*********+.",
".-=********.========================================.*********+.",
".-=********.=**************************************+.*********+.",
".-=********.=**************************************+.*********+.",
".-=********.=**+++++++++++++++++++++++++++++++++***+.*********+.",
".-=********.=*+++++++++++++++++++++++++++++++++++**+.*********+.",
".-=********.=*++.....-333-    ++++    -333-.....-=*+.*********+.",
".-=********.=*++..                            ..-=*+.*********+.",
".-=********.=*++. @OOOOOOOOOOOOOOOOOOOOOOOOOO@ .-=*+.*********+.",
".++++++++++.=*++ @O,$$$$$$$$$$$$$$$$$$$$$$$$,O@ -=*+.++++++++++.",
"............=*++ @,12111111111111111111111121,@ -=*+............",
".XXXXXXXXXX.=*++ @,<111111111111111111111111<,@ -=*+.XXXXXXXXXX.",
".oooooooooo.=*++ @,&$$$$$$$$$$$$$$$$$$$$$$$$&,@ -=*+.oooooooooo.",
".##########.=*++ @O,$$$$$$$$$$$$$$$$$$$$$$$$,O@ -=*+.##########.",
".%%%%%%%%%%.=*++ O@OOOOOOOOOOOOOOOOOOOOOOOOOO@O -=*+.%%%%%%%%%%.",
".;;;;;;;;;;.=*++. O@@@@@@@@@@@@@@@@@@@@@@@@@@O .-=*+.;;;;;;;;;;.",
".::::::::::.=*++..                            ..-=*+.::::::::::.",
".>>>>>>>>>>.=*++......+++. == ++++ == .+++......-=*+.>>>>>>>>>>.",
".>>>>>>>>>>.=*++.....-333- ** ++++ ** -333-.....-=*+.>>>>>>>>>>.",
".>>>>>>>>>>.=*++.....+===+ ** ++++ ** +===+.....-=*+.>>>>>>>>>>.",
".>>>>>>>>>>.=*++......+++. ** ++++ ** .+++......-=*+.>>>>>>>>>>.",
".>>>>>>>>>>.=*++.....-333- ++ ++++ ++ -333-.....-=*+.>>>>>>>>>>.",
".>>>>>>>>>>.=*++.....+===+ ++ ++++ ++ +===+.....-=*+.>>>>>>>>>>.",
".>>>>>>>>>>.=*++......+++. ++ ++++ ++ .+++......-=*+.>>>>>>>>>>.",
".>>>>>>>>>>.=*++.....-333- ++ ++++ ++ -333-.....-=*+.>>>>>>>>>>.",
".::::::::::.=*++.....+===+ .. ++++ .. +===+.....-=*+.::::::::::.",
".;;;;;;;;;;.=*++......+++. .. ++++ .. .+++......-=*+.;;;;;;;;;;.",
".%%%%%%%%%%.=*++.....-333-    ++++    -333-.....-=*+.%%%%%%%%%%.",
".##########.=*++.....+===+    ++++    +===+.....-=*+.##########.",
".oooooooooo.=*++......+++.    ++++    .+++......-=*+.oooooooooo.",
".XXXXXXXXXX.=*++.....-333-    ++++    -333-.....-=*+.XXXXXXXXXX.",
"............=*++.....+===+    ++++    +===+.....-=*+............",
".---------*.=*++......+++.    ++++    .+++......-=*+.---------+.",
".-=********.=*++.....-333-    ++++    -333-.....-=*+.*********+.",
".-=********.=*++.....+===+    ++++    +===+.....-=*+.*********+.",
".-=********.=*++......+++.    ++++    .+++......-=*+.*********+.",
".-=********.=**+--------------------------------==*+.*********+.",
".-=********.=***=================================**+.*********+.",
".-=********.=**************************************+.*********+.",
".-=********.=**************************************+.*********+.",
".-=********.=+++++++++++++++++++++++++++++++++++++++.*********+.",
".-=********..........................................*********+.",
".-=*********++++++++++++.++**---***+++++.+++++++++++**********+.",
".-=**++++***************.++**---***+++++.++************++++***+.",
".-=*++*+..**************.................++***********++*+..**+.",
".-=++*-.+.+*************.++**---***+++++.++**********++*-.+.+*+.",
".-=+*-.-*.+*************.++**---***+++++.++**********+*-.-*.+*+.",
".-=++.-*+.+*************.................++**********++.-*+.+*+.",
".-=+.+*+..+*************.++**---***+++++.++**********+.+*+..+*+.",
".-=*.....+**************.++**---***+++++.++***********.....+**+.",
".-=**++++***************.................++************++++***+.",
".-++++++++++++++++++++++.++**---***+++++.++++++++++++++++++++++.",
".........................++**---***+++++........................"
};
