/* XPM */
static char *_aac9f70bb304b1bddd0f09331a5ffbdNeIjgT9YxaHmtd9i[] = {
/* columns rows colors chars-per-pixel */
"64 64 6 1 ",
"  c #370C0C",
". c #4F1813",
"X c #602018",
"o c #722D21",
"O c #863B29",
"+ c #A5563A",
/* pixels */
"OOOOOOOOooooXXXX..  ..XOOOOOOoooOOO++OOOoooXXX   ..XXooOOOOOO++O",
"OOOOOOOoooOOXXXX..   ..XOOOOOooOOO+O+OOOOoooX    .XXoooOOOOOOO+O",
"OOOOooooXXXO.XX...   ..XXXOOoooOOO++ooooooooX   ..XXoooOOOOOOO++",
"+oooooooXXXX.......  ...XXOoooooOOOOoooooX..    ..XXooOOOOOOOO++",
"OooooooooXXX.......  ....XXooXooO+Ooooooo....   ..XoooOOOOOOOOO+",
"OooXoooXXXXX......   ...XXXXoXXooOooooXX....   ..XXoooooXoOOOOOO",
"ooXXXXXXXXXXXXXX..    ..XXXXoXXXooooooXX...    .XXXXXooXXooOOOoo",
"ooXXXXXXXXXooXXXX..   ..XXXXoXXXooooooX...     .XXXXoooXXooooooo",
"XXXooXXXXXooooXX...   ..XXXXoXXXoXXooX....    ..XXXXooXXXooooXXX",
"oooXXXXXXoooooX....   ..XXXXoXXXoXXoXX...     ..XXXXXXXXXooooXoo",
"ooooXoXXooooooX...    ..XXXXoXXooXooooo.      ...XXXXXXXXoXooooo",
"ooXXXXXoooooOOX  .    ..XXXXXXXoooooooX.       ...XXXXXXXXoooooo",
"oXooXXXoooooOOX  .     XXXXXoXooooooooXX.      ....XXXXoXoXooXoo",
"ooXXXXoooOoOOOOX      .XXXXXXXXooooooXXXX.     ....XXXXXXXXooooo",
"oXXX.XoooOOOOOOXX    ..XXXXXXXXoOOOoooXXo..    ...XXXXXXXXXXooXo",
"XoXXXoooO++OOOOO     ..XXXXoXXXoOOOooooOoo...  ...XXXXoXXXoXXXoo",
"XooXXoooO+++OOOO     ..XXXXooooooOoooO+ooooo......XXXXXXXXXXXoXo",
"oooXXoooO++++OOO     ..XXXXoooOOOOOoOOOOoooXXXX.....XXXXXoXoXooo",
"XXXXXXoO++++++OO     ...XXoooOOOOOOO++OOOoooXXX......XXXXXoooooo",
"ooXXooO+++++++OO     ..XXXXooOOOoOOO++OOOOooXXX.......XXXXoooooo",
"oOXOoo+++++++OOOX    ..XXXXoooOOOOO+++OOOOOoXXX... ...XXXXXooooo",
"oo+O+O++++++OOOOX   ...XXXoooOOOOOO++++OOOOOoooX.. ....XXXXOoOoo",
"OO+++O++++++OOOOX   ..XXXoooOOOOOOO+++++OOOOoooX.. ....XXOOOoooo",
"OO+O+++++++OOOOOX   ..XXXooOOOOOOO+++++OOOOOooX... ...XXXOOOOoOo",
"oO+++++++++OOOooX   .XXXoooOOOO++++++++OOOOoooXX.. ...XXOOO++Ooo",
"o++++++++++OOOooX   .XXXooOOOOOO++++++++++ooooXX.. ...XXOO+++Ooo",
"++++++++++OOOoooX   .XXoooOOOOOO++++++++oOOoooXX.. ...XXOO++++Oo",
"+++oo++OO+OOOOoo    .ooooOOOOOO++++++++++OOOooXX.. ...XXOO+++++o",
"OOooOOOOOOOOOOoo    .oooOOOO++O++OOO++++++OOooXX.. ...XXOO+++++O",
"OooOOOOOOOOOOoo    .XXXOOOOo++OOOOOOO++OOOooooXX.  ...XXOO++++OO",
"oo+OOOOOOOOOoXX    .XooOOOOO+++OOOOOO+OOOOoooXXX.  ...XXOOO++OOO",
"oO+O+OOOOOooXX    ..XooOOOOOO++OOOOOOOOOOooooXXX.   ..XOOOO+OOoo",
"OOO++OOOoooXXX   ..XXooOOOOOO++OOOOOOOOOooooXXXX..  ..XOOOOOOooo",
"OO+O+OOOOoooX    .XXoooOOOOOOO+OOOOOOOOoooOOXXXX..   ..XOOOOOooO",
"OO++ooooooooX   ..XXoooOOOOOOO++OOOOooooXXXO.XX...   ..XXXOOoooO",
"OOOOoooooX..    ..XXooOOOOOOOO+++oooooooXXXX.......  ...XXOooooo",
"O+Ooooooo....   ..XoooOOOOOOOOO+OooooooooXXX.......  ....XXooXoo",
"oOooooXX....   ..XXoooooXoOOOOOOOooXoooXXXXX........ ...XXXXoXXo",
"ooooooXX...    .XXXXoooXXooOOOooooXXXXXXXXXX.X......  ....XXoXXo",
"ooooooX...     .XXXXooooXoooooooooXXXXXXXXXXX......   ...XXXoXXo",
"oXXooX....    ..XXXXoooXXooooXXXXoXooXXXXXXoXXX....   ..XXXXoooo",
"ooooXX...     ..XXXXXXXXXooooXoooooXoXXXXXoXXXX....   ..XXXooooo",
"oooooXoX...   ...XXXXXXXXoXoooooooooooXXXXXXX.....    ...XXooooo",
"OOooooX........  ...XXXXXXoooooooooXooXooooooo....     .XXooXooO",
"OOOOooXXXX.....   ...XXoXoXooooooooooooooooooX....    ..XXooooOO",
"OOOOOoooooXXX... ...XXXXXooooooooooooooooooooXXX..    ..XXooXoOO",
"OOOOOoooOXXXX... ...XXXXoooXoooooooooooooooooXoXX.   ....XXXoooO",
"OOOOOoO+ooXX........XXXXXXoooooooooooooooOOooooo.    ....XXXoooO",
"OOOOOO+ooooOXX... ..XXXXXooooooooooooOOOO+++Oooo.     ...XXoooOO",
"OOOOOOOOoooXXXX.. ..XXXXXoooooOOO++OoOOOO++++ooo       ...XoooOO",
"OOOO++OOOoooXXX.. ...XXXXXOOoo+O+OOOOoOO++++++OO      ...XXooOOO",
"OOOO++OOOOooXXX.. ....XXXXOOoOOO+OoOO+++++++++OO      ..XXXooOOO",
"OOO+++OOOOOoXXX... ...XXXXXOO+OOO+o+OO+++++++OOOX    ..XXXXoooOO",
"OOO++++OOOOOoooX.. ....XXXX+O++++O+O+O++++++OOOOX   ...XXXoooOOO",
"OOO+++++OOOOoooX.. ....XXOOOOo+++O+++O++++++OOOOX   ..XXXoooOOOO",
"OO+++++OOOOOooX... ...XXXOOO+++++O+O+++++++OOOOOX   ..XXXooOOOOO",
"+++++++OOOOoooXX.. ...XXOOO+++++oO+++++++++OOOooX   .XXXoooOOOO+",
"++++++++++ooooXX.. ...XXOO++++++O++++++++++OOOooX   .XXXooOOOOOO",
"++++++++oOOoooXX.. ...XXOO+++++o++++++++++OOOoooX   .XXoooOOOOOO",
"+++++++++OOOooXX.. ...XXOO+++++o+++oo++OO+OOOOoo    .ooooOOOOOO+",
"+OOO++++++OOooXX.. ...XXOO+++++OOOooOOOOOOOOOOoo    .oooOOOO++O+",
"OOOOO++OOOooooXX.  ...XXOO++++OOOooOOOOOOOOOOoo    .XXXOOOOo++OO",
"OOOOO+OOOOoooXXX.  ...XXOOO++OOOoo+OOOOOOOOOoXX    .XooOOOOO+++O",
"OOOOOOOOOooooXXX.   ..XOOOO+OOoooO+O+OOOOOooXX    ..XooOOOOOO++O"
};
