/* XPM */
static char *result[] = {
/* columns rows colors chars-per-pixel */
"64 64 4 1 ",
"  c gray12",
". c gray20",
"X c #434343",
"o c #535353",
/* pixels */
" .XooX.  .XooX.  .XooX.  .XooX.  .XooX.  .XooX.  .XooX.  .XooX. ",
" .XooX.  .XooX.  .XooX.  .XooX.  .XooX.  .XooX.  .XooX.  .XooX. ",
" .XooX.  .XooX.  .XooX.  .XooX.  .XooX.  .XooX.  .XooX.  .XooX. ",
" .XooX.  .XooX.  .XooX.  .XooX.  .XooX.  .XooX.  .XooX.  .XooX. ",
" .XooX.  .XooX.  .XooX.  .XooX.  .XooX.  .XooX.  .XooX.  .XooX. ",
" .XooX.  .XooX.  .XooX.  .XooX.  .XooX.  .XooX.  .XooX.  .XooX. ",
" .XooX.  .XooX.  .XooX.  .XooX.  .XooX.  .XooX.  .XooX.  .XooX. ",
" .XooX.  .XooX.  .XooX.  .XooX.  .XooX.  .XooX.  .XooX.  .XooX. ",
" .XooX.  .XooX.  .XooX.  .XooX.  .XooX.  .XooX.  .XooX.  .XooX. ",
" .XooX.  .XooX.  .XooX.  .XooX.  .XooX.  .XooX.  .XooX.  .XooX. ",
" .XooX.  .XooX.  .XooX.  .XooX.  .XooX.  .XooX.  .XooX.  .XooX. ",
" .XooX.  .XooX.  .XooX.  .XooX.  .XooX.  .XooX.  .XooX.  .XooX. ",
" .XooX.  .XooX.  .XooX.  .XooX.  .XooX.  .XooX.  .XooX.  .XooX. ",
" .XooX.  .XooX.  .XooX.  .XooX.  .XooX.  .XooX.  .XooX.  .XooX. ",
" .XooX.  .XooX.  .XooX.  .XooX.  .XooX.  .XooX.  .XooX.  .XooX. ",
" .XooX.  .XooX.  .XooX.  .XooX.  .XooX.  .XooX.  .XooX.  .XooX. ",
" .XooX.  .XooX.  .XooX.  .XooX.  .XooX.  .XooX.  .XooX.  .XooX. ",
" .XooX.  .XooX.  .XooX.  .XooX.  .XooX.  .XooX.  .XooX.  .XooX. ",
" .XooX.  .XooX.  .XooX.  .XooX.  .XooX.  .XooX.  .XooX.  .XooX. ",
" .XooX.  .XooX.  .XooX.  .XooX.  .XooX.  .XooX.  .XooX.  .XooX. ",
" .XooX.  .XooX.  .XooX.  .XooX.  .XooX.  .XooX.  .XooX.  .XooX. ",
" .XooX.  .XooX.  .XooX.  .XooX.  .XooX.  .XooX.  .XooX.  .XooX. ",
" .XooX.  .XooX.  .XooX.  .XooX.  .XooX.  .XooX.  .XooX.  .XooX. ",
" .XooX.  .XooX.  .XooX.  .XooX.  .XooX.  .XooX.  .XooX.  .XooX. ",
" .XooX.  .XooX.  .XooX.  .XooX.  .XooX.  .XooX.  .XooX.  .XooX. ",
" .XooX.  .XooX.  .XooX.  .XooX.  .XooX.  .XooX.  .XooX.  .XooX. ",
" .XooX.  .XooX.  .XooX.  .XooX.  .XooX.  .XooX.  .XooX.  .XooX. ",
" .XooX.  .XooX.  .XooX.  .XooX.  .XooX.  .XooX.  .XooX.  .XooX. ",
" .XooX.  .XooX.  .XooX.  .XooX.  .XooX.  .XooX.  .XooX.  .XooX. ",
" .XooX.  .XooX.  .XooX.  .XooX.  .XooX.  .XooX.  .XooX.  .XooX. ",
" .XooX.  .XooX.  .XooX.  .XooX.  .XooX.  .XooX.  .XooX.  .XooX. ",
" .XooX.  .XooX.  .XooX.  .XooX.  .XooX.  .XooX.  .XooX.  .XooX. ",
" .XooX.  .XooX.  .XooX.  .XooX.  .XooX.  .XooX.  .XooX.  .XooX. ",
" .XooX.  .XooX.  .XooX.  .XooX.  .XooX.  .XooX.  .XooX.  .XooX. ",
" .XooX.  .XooX.  .XooX.  .XooX.  .XooX.  .XooX.  .XooX.  .XooX. ",
" .XooX.  .XooX.  .XooX.  .XooX.  .XooX.  .XooX.  .XooX.  .XooX. ",
" .XooX.  .XooX.  .XooX.  .XooX.  .XooX.  .XooX.  .XooX.  .XooX. ",
" .XooX.  .XooX.  .XooX.  .XooX.  .XooX.  .XooX.  .XooX.  .XooX. ",
" .XooX.  .XooX.  .XooX.  .XooX.  .XooX.  .XooX.  .XooX.  .XooX. ",
" .XooX.  .XooX.  .XooX.  .XooX.  .XooX.  .XooX.  .XooX.  .XooX. ",
" .XooX.  .XooX.  .XooX.  .XooX.  .XooX.  .XooX.  .XooX.  .XooX. ",
" .XooX.  .XooX.  .XooX.  .XooX.  .XooX.  .XooX.  .XooX.  .XooX. ",
" .XooX.  .XooX.  .XooX.  .XooX.  .XooX.  .XooX.  .XooX.  .XooX. ",
" .XooX.  .XooX.  .XooX.  .XooX.  .XooX.  .XooX.  .XooX.  .XooX. ",
" .XooX.  .XooX.  .XooX.  .XooX.  .XooX.  .XooX.  .XooX.  .XooX. ",
" .XooX.  .XooX.  .XooX.  .XooX.  .XooX.  .XooX.  .XooX.  .XooX. ",
" .XooX.  .XooX.  .XooX.  .XooX.  .XooX.  .XooX.  .XooX.  .XooX. ",
" .XooX.  .XooX.  .XooX.  .XooX.  .XooX.  .XooX.  .XooX.  .XooX. ",
" .XooX.  .XooX.  .XooX.  .XooX.  .XooX.  .XooX.  .XooX.  .XooX. ",
" .XooX.  .XooX.  .XooX.  .XooX.  .XooX.  .XooX.  .XooX.  .XooX. ",
" .XooX.  .XooX.  .XooX.  .XooX.  .XooX.  .XooX.  .XooX.  .XooX. ",
" .XooX.  .XooX.  .XooX.  .XooX.  .XooX.  .XooX.  .XooX.  .XooX. ",
" .XooX.  .XooX.  .XooX.  .XooX.  .XooX.  .XooX.  .XooX.  .XooX. ",
" .XooX.  .XooX.  .XooX.  .XooX.  .XooX.  .XooX.  .XooX.  .XooX. ",
" .XooX.  .XooX.  .XooX.  .XooX.  .XooX.  .XooX.  .XooX.  .XooX. ",
" .XooX.  .XooX.  .XooX.  .XooX.  .XooX.  .XooX.  .XooX.  .XooX. ",
" .XooX.  .XooX.  .XooX.  .XooX.  .XooX.  .XooX.  .XooX.  .XooX. ",
" .XooX.  .XooX.  .XooX.  .XooX.  .XooX.  .XooX.  .XooX.  .XooX. ",
" .XooX.  .XooX.  .XooX.  .XooX.  .XooX.  .XooX.  .XooX.  .XooX. ",
" .XooX.  .XooX.  .XooX.  .XooX.  .XooX.  .XooX.  .XooX.  .XooX. ",
" .XooX.  .XooX.  .XooX.  .XooX.  .XooX.  .XooX.  .XooX.  .XooX. ",
" .XooX.  .XooX.  .XooX.  .XooX.  .XooX.  .XooX.  .XooX.  .XooX. ",
" .XooX.  .XooX.  .XooX.  .XooX.  .XooX.  .XooX.  .XooX.  .XooX. ",
" .XooX.  .XooX.  .XooX.  .XooX.  .XooX.  .XooX.  .XooX.  .XooX. "
};
