/* XPM */
static char *result[] = {
/* columns rows colors chars-per-pixel */
"64 64 10 1 ",
"  c #000008",
". c gray6",
"X c gray12",
"o c #2A2A2A",
"O c gray20",
"+ c #393939",
"@ c #434343",
"# c #535353",
"$ c #777777",
"% c None",
/* pixels */
"OOOOOOOOOOOOOOOOOOOOOOOOOOOOOOOOOOOOOOOOOOOOOOOOOOOOOOOOOOOOOOOO",
"OO@###$@@###############################################$@@##@OO",
"O@O@##@O@###############################################@O@#@O@O",
"O#@O@@@@@@@@@@@@@@@@@@@@@@@@@@@@@@@@@@@@@@@@@@@@@@@@@@@@@@@@O@@O",
"O##@OOOOOOOOOOOOOOOOOOOOOOOOOOOOOOOOOOOOOOOOOOOOOOOOOOOOOOOO@#@O",
"O$@@O                                                      @##@O",
"O@O@O                                                      @$@@O",
"O@@@O .................................................... @@O@O",
"O##@O ..XXXXXXXXXXXXXXXXXXXXXXXXXXXXXXXXXXXXXXXXXXXXXXXXXX @@@@O",
"O##@O XXoOOOOOO++@#@@++OOooooOOO++@@@###@@@+++OOOOOOOOoooo @##@O",
"O##@O                                                      @##@O",
"O##@O .................................................... @##@O",
"O##@O ..XXXXXXXXXXXXXXXXXXXXXXXXXXXXXXXXXXXXXXXXXXXXXXXXXX @##@O",
"O##@O XXoOOOOO+++@@##@@+++OOOOooOOOO+++@@@##@@@++OOOOOOooo @##@O",
"O##@O                                                      @##@O",
"O##@O .................................................... @##@O",
"O##@O ..XXXXXXXXXXXXXXXXXXXXXXXXXXXXXXXXXXXXXXXXXXXXXXXXXX @##@O",
"O##@O XXoOOOOO++@##@@++++OOOoooooooOOOOO++@#@@++OOOOOOOOoo @##@O",
"O##@O                                                      @##@O",
"O##@O .................................................... @##@O",
"O##@O ..XXXXXXXXXXXXXXXXXXXXXXXXXXXXXXXXXXXXXXXXXXXXXXXXXX @##@O",
"O##@O XXoOOOOOO++@@#@@+++OOooooOOO++++@@@####@@@@++OOOoooo @##@O",
"O##@O                                                      @##@O",
"O##@O .................................................... @##@O",
"O$@@O ..XXXXXXXXXXXXXXXXXXXXXXXXXXXXXXXXXXXXXXXXXXXXXXXXXX @$@@O",
"O@O@O XXoOOOOOO++@@@###@@++OOOooooOOOOO+++@##@@++OOOOOOOoo @@O@O",
"O@@@O                                                      @@@@O",
"O##@O@@@@@@@@@@@@@@@@@@@@@@@@@@@@@@@@@@@@@@@@@@@@@@@@@@@@@@O@#@O",
"O#@O@#$@@###############################################$@@@O@@O",
"O@O@##@O@###############################################@O@#@O@O",
"OO@@@@@@@@@@@@@@@@@@@@@@@@@@@@@@@@@@@@@@@@@@@@@@@@@@@@@@@@@@@@OO",
"OOOOOOOOOOOOOOOOOOOOOOOOOOOOOOOOOOOOOOOOOOOOOOOOOOOOOOOOOOOOOOOO",
"OOOOOOOOOOOOOOOOOOOOOOOOOOOOOOOOOOOOOOOOOOOOOOOOOOOOOOOOOOOOOOOO",
"OO@###$@@##########@@@@@@@@@@@@@@@@@@@@@@@@@@###########$@@##@OO",
"O@O@##@O@########@@@@+OO%OO##@@+OO%O#@+OOO+@@@@@########@O@#@O@O",
"O#@O@@@@@@@@@@@@@@@+OO%%%%%OO#+OO%%%%#OO%%OO+@@@@@@@@@@@@@@@O@@O",
"O##@OOOOOOOOOOOOOOOO%%%%%%%%%OO%%%%%%%O%%%%OOOOOOOOOOOOOOOOO@#@O",
"O$@@O   XXXXX.%%%%%%%%%%%%%%%%%%%%%%%%%%%%%%%%%%%%%%%.XXXX @##@O",
"O@O@O  XXXoooX%%%%%%%%%%%%%%%%%%%%%%%%%%%%%%%%%%%%%%%XOoo  @$@@O",
"O@@@O ....XXXX%%%%%%%%%%%%%%%%%%%%%%%%%%%%%%%%%%%X........ @@O@O",
"O##@O ..XXXX.....%%%%%%%%%%%%%%%%%%%%%%%%%%%%%%%XXXXXXXXXX @@@@O",
"O##@O XXoOOOXXXXXX%%%%%%%%%%%%%%%%%%%%%%%%%%%%%%XOOOOOoooo @##@O",
"O##@O     XXOOO++X%%%%%%%%%%%%%%%%%%%%%%%%%%%%%%%XXXXXX    @##@O",
"O##@O .........XXX%%%%%%%%%%%%%%%%%%%%%%%%%%%%%%%%........ @##@O",
"O##@O ..XXXX....%%%%%%%%%%%%%%%%%%%%%%%%%%%%%%%%%%XXXXXXXX @##@O",
"O##@O XXoOOOXXXXX%%%%%%%%%%%%%%%%%%%%%%%%%%%%%%%%%%%XOOooo @##@O",
"O##@O     XX++@XX%%%%%%%%%%%%%%%%%%%%%%%%%%%%%%%%%%%%XXXX  @##@O",
"O##@O .........X%%%%%%%%%%%%%%%%%%%%%%%%%%%%%%%%%%%%%..... @##@O",
"O##@O ..XXXXXXXX%%%%%%%%%%%%%%%%%%%%%%%%%%%%%%%%%%XXXXXXXX @##@O",
"O##@O XXoOOOOO++X%%%%%%%%%%%%%%%%%%%%%%%%%%%%%%%%%XOOOOOoo @##@O",
"O##@O     XXXXXXX%%%%%%%%%%%%%%%%%%%%%%%%%%%%%%%%%%XXXXXX  @##@O",
"O##@O ..........%%%%%%%%%%%%%%%%%%%%%%%%%%%%%%%%%%%%%%X... @##@O",
"O##@O ..XXXXXXX%%%%%%%%%%%%%%%%%%%%%%%%%%%%%%%%%%%%.....XX @##@O",
"O##@O XXoOOOXX%%%%%%%%%%%%%%%%%%%%%%%%%%%%%%%%%%%%%XXXXXoo @##@O",
"O##@O   XXXXX%%%%%%%%%%%%%%%%%%%%%%%%%%%%%%%%%%%%%%+XOOo   @##@O",
"O##@O .......%%%%%%%%%%%%%%%%%%%%%%%%%%%%%%%%%%%%%%%X..... @##@O",
"O$@@O ..XXXXXXX%%%%%%%%%%%%%%%%%%%%%%%%%%%%%%%%%%...XXXXXX @$@@O",
"O@O@O XXoOOOOOX%%%%%%%%%%%%%%%%%%%%%%%%%%%%%%%%XXXXXOOOOoo @@O@O",
"O@@@O        XOO%%%%%%%%%%%%%%%%%%%%%%%%%%%%%%X@@++O       @@@@O",
"O##@O@@@@@@@@@@+OO%%%%%%%%%%%%%%%%%%%%O%%%%%%%      @@@@@@@O@#@O",
"O#@O@#$@@####@@@+OO%%%%%%%%OO%%%%%%%OOOO%%%%%O+@@@@#####$@@@O@@O",
"O@O@##@O@######@@@+O%OOOOOO@+OO%%%%O+@@O%%%%O+@@@@@#####@O@#@O@O",
"OO@@@@@@@@@@@@@@@@@+O++@@@@@@++O%OO+@@@@OO%OO+@@@@@@@@@@@@@@@@OO",
"OOOOOOOOOOOOOOOOOOOOOOOOOOOOOOOOOOOOOOOOOOOOOOOOOOOOOOOOOOOOOOOO"
};
