/* XPM */
static char *tile0341689510948[] = {
/* columns rows colors chars-per-pixel */
"64 64 9 1 ",
"  c #000008",
". c gray12",
"X c gray20",
"o c #434343",
"O c #535353",
"+ c gray39",
"@ c #777777",
"# c gray53",
"$ c #A7A7A7",
/* pixels */
"              XooooX                        XooooX              ",
" X##########X XooooX X####################X XooooX X##########X ",
" o@@@@@@@@@@o .XXXX. o@@@@@@@@@@@@@@@@@@@@o .XXXX. o@@@@@@@@@@o ",
" o+$#O++++++o.      .o++++++++++++++++++++o.      .o+++++$#O++o ",
" o+#+XO+++++OooooooooO++++++++++++++++++++OooooooooO+++++#+XO+o ",
" o+OXXO++++++OOOOOOOO++++++++++++++++++++++OOOOOOOO++++++OXXO+o ",
" o++OO++++++++++++++++++++++++++++++++++++++++++++++++++++OO++o ",
" o++++++++++++++++++++++++++++++++++++++++++++++++++++++++++++o ",
" o++++++++++++++++++++++++++++++++++++++++++++++++++++++++++++o ",
" o++++++++++++++++++++++++++++++++++++++++++++++++++++++++++++o ",
" o+++++++++++OOOOOOOO++++++++++++++++++++++OOOOOOOO+++++++++++o ",
" o+$#O++++++OooooooooO++++++++++++++++++++OooooooooO+++++$#O++o ",
" oO#+XO+++++o.      .o++++++++++++++++++++o.      .o+++++#+XOOo ",
" oOOXXOOOOOOo .XXXX. oOOOOOOOOOOOOOOOOOOOOo .XXXX. oOOOOOOXXOOo ",
" XooooooooooX XooooX XooooooooooooooooooooX XooooX XooooooooooX ",
"              XooooX                        XooooX              ",
"              XooooX                        XooooX              ",
" X##########X XooooX X####################X XooooX X##########X ",
" o@@@@@@@@@@o .XXXX. o@@@@@@@@@@@@@@@@@@@@o .XXXX. o@@@@@@@@@@o ",
" o+$#O++++++o.      .o++++++++++++++++++++o.      .o+++++$#O++o ",
" o+#+XO+++++OooooooooO++++++++++++++++++++OooooooooO+++++#+XO+o ",
" o+OXXO++++++OOOOOOOO++++++++++++++++++++++OOOOOOOO++++++OXXO+o ",
" o++OO++++++++++++++++++++++++++++++++++++++++++++++++++++OO++o ",
" o++++++++++++++++++++++++++++++++++++++++++++++++++++++++++++o ",
" o++++++++++++++++++++++++++++++++++++++++++++++++++++++++++++o ",
" o++++++++++++++++++++++++++++++++++++++++++++++++++++++++++++o ",
" o+++++++++++OOOOOOOO++++++++++++++++++++++OOOOOOOO+++++++++++o ",
" o+$#O++++++OooooooooO++++++++++++++++++++OooooooooO+++++$#O++o ",
" oO#+XO+++++o.      .o++++++++++++++++++++o.      .o+++++#+XOOo ",
" oOOXXOOOOOOo .XXXX. oOOOOOOOOOOOOOOOOOOOOo .XXXX. oOOOOOOXXOOo ",
" XooooooooooX XooooX XooooooooooooooooooooX XooooX XooooooooooX ",
"              XooooX                        XooooX              ",
"              XooooX                        XooooX              ",
" X##########X XooooX X####################X XooooX X##########X ",
" o@@@@@@@@@@o .XXXX. o@@@@@@@@@@@@@@@@@@@@o .XXXX. o@@@@@@@@@@o ",
" o+$#O++++++o.      .o++++++++++++++++++++o.      .o+++++$#O++o ",
" o+#+XO+++++OooooooooO++++++++++++++++++++OooooooooO+++++#+XO+o ",
" o+OXXO++++++OOOOOOOO++++++++++++++++++++++OOOOOOOO++++++OXXO+o ",
" o++OO++++++++++++++++++++++++++++++++++++++++++++++++++++OO++o ",
" o++++++++++++++++++++++++++++++++++++++++++++++++++++++++++++o ",
" o++++++++++++++++++++++++++++++++++++++++++++++++++++++++++++o ",
" o++++++++++++++++++++++++++++++++++++++++++++++++++++++++++++o ",
" o+++++++++++OOOOOOOO++++++++++++++++++++++OOOOOOOO+++++++++++o ",
" o+$#O++++++OooooooooO++++++++++++++++++++OooooooooO+++++$#O++o ",
" oO#+XO+++++o.      .o++++++++++++++++++++o.      .o+++++#+XOOo ",
" oOOXXOOOOOOo .XXXX. oOOOOOOOOOOOOOOOOOOOOo .XXXX. oOOOOOOXXOOo ",
" XooooooooooX XooooX XooooooooooooooooooooX XooooX XooooooooooX ",
"              XooooX                        XooooX              ",
"              XooooX                        XooooX              ",
" X##########X XooooX X####################X XooooX X##########X ",
" o@@@@@@@@@@o .XXXX. o@@@@@@@@@@@@@@@@@@@@o .XXXX. o@@@@@@@@@@o ",
" o+$#O++++++o.      .o++++++++++++++++++++o.      .o+++++$#O++o ",
" o+#+XO+++++OooooooooO++++++++++++++++++++OooooooooO+++++#+XO+o ",
" o+OXXO++++++OOOOOOOO++++++++++++++++++++++OOOOOOOO++++++OXXO+o ",
" o++OO++++++++++++++++++++++++++++++++++++++++++++++++++++OO++o ",
" o++++++++++++++++++++++++++++++++++++++++++++++++++++++++++++o ",
" o++++++++++++++++++++++++++++++++++++++++++++++++++++++++++++o ",
" o++++++++++++++++++++++++++++++++++++++++++++++++++++++++++++o ",
" o+++++++++++OOOOOOOO++++++++++++++++++++++OOOOOOOO+++++++++++o ",
" o+$#O++++++OooooooooO++++++++++++++++++++OooooooooO+++++$#O++o ",
" oO#+XO+++++o.      .o++++++++++++++++++++o.      .o+++++#+XOOo ",
" oOOXXOOOOOOo .XXXX. oOOOOOOOOOOOOOOOOOOOOo .XXXX. oOOOOOOXXOOo ",
" XooooooooooX XooooX XooooooooooooooooooooX XooooX XooooooooooX ",
"              XooooX                        XooooX              "
};
