/* XPM */
static char *tile0681689510949[] = {
/* columns rows colors chars-per-pixel */
"64 64 6 1 ",
"  c #000008",
". c #270707",
"X c #43130F",
"o c #4F1713",
"O c #5F1F17",
"+ c #6F2B1F",
/* pixels */
"oooooooooooooooooooooooooooooooooooooooooooooooooooooooooooooooo",
"++++++++++++++++++++++++++++++++++++++++++++++++++++++++++++++++",
"OOOOOOOOOOOOOOOOOOOOOOOOOOOOOOOOOOOOOOOOOOOOOOOOOOOOOOOOOOOOOOOO",
"OOOOOOOOOOOOOOOOOOOOOOOOOOOOOOOOOOOOOOOOOOOOOOOOOOOOOOOOOOOOOOOO",
"OOOOOOOOOOOOOOOOOOOOOOOOOOOOOOOOOOOOOOOOOOOOOOOOOOOOOOOOOOOOOOOO",
"OOOOOOOOOOOOOOOOOOOOOOOOOOOOOOOOOOOOOOOOOOOOOOOOOOOOOOOOOOOOOOOO",
"OOOOOOOOOOOOOOOOOOOOOOOOOOOOOOOOOOOOOOOOOOOOOOOOOOOOOOOOOOOOOOOO",
"oooooooooooooooooooooooooooooooooooooooooooooooooooooooooooooooo",
"XXXXXXXXXXXXXXXXXXXXXXXXXXXXXXXXXXXXXXXXXXXXXXXXXXXXXXXXXXXXXXXX",
"XXXXXXXXXXXXXXXXXXXXXXXXXXXXXXXXXXXXXXXXXXXXXXXXXXXXXXXXXXXXXXXX",
"XXXXXXXXXXXXXX....................................XXXXXXXXXXXXXX",
"XXXXXXXXXXXXX.                                    .XXXXXXXXXXXXX",
"XXXXXXXXXXXX.                                      .XXXXXXXXXXXX",
"XXXXXXXXXXX.                                        .XXXXXXXXXXX",
"XXXXXXXXXX.                                          .XXXXXXXXXX",
"XXXXXXXXX.                                            .XXXXXXXXX",
"XXXXXXXX.                                              .XXXXXXXX",
"XXXXXXXX.                                              .XXXXXXXX",
"XXXXXXXX.                                              .XXXXXXXX",
"XXXXXXXX.                                              .XXXXXXXX",
"XXXXXXXX.                                              .XXXXXXXX",
"XXXXXXXX.                                              .XXXXXXXX",
"XXXXXXXX.                                              .XXXXXXXX",
"XXXXXXXX.                                              .XXXXXXXX",
"XXXXXXXX.                                              .XXXXXXXX",
"XXXXXXXX.                                              .XXXXXXXX",
"XXXXXXXX.                                              .XXXXXXXX",
"XXXXXXXX.                                              .XXXXXXXX",
"XXXXXXXX.                                              .XXXXXXXX",
"XXXXXXXX.                                              .XXXXXXXX",
"XXXXXXXX.                                              .XXXXXXXX",
"XXXXXXXX.                                              .XXXXXXXX",
"XXXXXXXX.                                              .XXXXXXXX",
"XXXXXXXX.                                              .XXXXXXXX",
"XXXXXXXX.                                              .XXXXXXXX",
"XXXXXXXX.                                              .XXXXXXXX",
"XXXXXXXX.                                              .XXXXXXXX",
"XXXXXXXX.                                              .XXXXXXXX",
"XXXXXXXX.                                              .XXXXXXXX",
"XXXXXXXX.                                              .XXXXXXXX",
"XXXXXXXX.                                              .XXXXXXXX",
"XXXXXXXX.                                              .XXXXXXXX",
"XXXXXXXX.                                              .XXXXXXXX",
"XXXXXXXX.                                              .XXXXXXXX",
"XXXXXXXX.                                              .XXXXXXXX",
"XXXXXXXX.                                              .XXXXXXXX",
"XXXXXXXX.                                              .XXXXXXXX",
"XXXXXXXX.                                              .XXXXXXXX",
"XXXXXXXX.                                              .XXXXXXXX",
"XXXXXXXX.                                              .XXXXXXXX",
"XXXXXXXX.                                              .XXXXXXXX",
"XXXXXXXX.                                              .XXXXXXXX",
"XXXXXXXX.                                              .XXXXXXXX",
"XXXXXXXX.                                              .XXXXXXXX",
"XXXXXXXX.                                              .XXXXXXXX",
"XXXXXXXX.                                              .XXXXXXXX",
"XXXXXXXX.                                              .XXXXXXXX",
"XXXXXXXX.                                              .XXXXXXXX",
"XXXXXXXX.                                              .XXXXXXXX",
"XXXXXXXX.                                              .XXXXXXXX",
"XXXXXXXX.                                              .XXXXXXXX",
"XXXXXXXX.                                              .XXXXXXXX",
"XXXXXXXX.                                              .XXXXXXXX",
"XXXXXXXX.                                              .XXXXXXXX"
};
