/* XPM */
static char *result[] = {
/* columns rows colors chars-per-pixel */
"64 64 5 1 ",
"  c gray12",
". c gray20",
"X c #535353",
"o c gray39",
"O c None",
/* pixels */
"OOOO.XoX.  .OOOOOOOO.XoX.  .OOOOOOOO.XoX.  .OOOOOOOO.XoX.  .OOOO",
"OOOO.XoX.  .OOOOOOOO.XoX.  .OOOOOOOO.XoX.  .OOOOOOOO.XoX.  .OOOO",
"OOOO.XoX.  .OOOOOOOO.XoX.  .OOOOOOOO.XoX.  .OOOOOOOO.XoX.  .OOOO",
"OOOO.XoX.  .OOOOOOOO.XoX.  .OOOOOOOO.XoX.  .OOOOOOOO.XoX.  .OOOO",
"OOOO.XoX.  .OOOOOOOO.XoX.  .OOOOOOOO.XoX.  .OOOOOOOO.XoX.  .OOOO",
"OOOO.XoX.  .OOOOOOOO.XoX.  .OOOOOOOO.XoX.  .OOOOOOOO.XoX.  .OOOO",
"OOOO.XoX.  .OOOOOOOO.XoX.  .OOOOOOOO.XoX.  .OOOOOOOO.XoX.  .OOOO",
"OOOO.XoX.  .OOOOOOOO.XoX.  .OOOOOOOO.XoX.  .OOOOOOOO.XoX.  .OOOO",
"OOOO.XoX.  .OOOOOOOO.XoX.  .OOOOOOOO.XoX.  .OOOOOOOO.XoX.  .OOOO",
"OOOO.XoX.  .OOOOOOOO.XoX.  .OOOOOOOO.XoX.  .OOOOOOOO.XoX.  .OOOO",
"OOOO.XoX.  .OOOOOOOO.XoX.  .OOOOOOOO.XoX.  .OOOOOOOO.XoX.  .OOOO",
"OOOO.XoX.  .OOOOOOOO.XoX.  .OOOOOOOO.XoX.  .OOOOOOOO.XoX.  .OOOO",
"OOOO.XoX.  .OOOOOOOO.XoX.  .OOOOOOOO.XoX.  .OOOOOOOO.XoX.  .OOOO",
"OOOO.XoX.  .OOOOOOOO.XoX.  .OOOOOOOO.XoX.  .OOOOOOOO.XoX.  .OOOO",
"OOOO.XoX.  .OOOOOOOO.XoX.  .OOOOOOOO.XoX.  .OOOOOOOO.XoX.  .OOOO",
"OOOO.XoX.  .OOOOOOOO.XoX.  .OOOOOOOO.XoX.  .OOOOOOOO.XoX.  .OOOO",
"OOOO.XoX.  .OOOOOOOO.XoX.  .OOOOOOOO.XoX.  .OOOOOOOO.XoX.  .OOOO",
"OOOO.XoX.  .OOOOOOOO.XoX.  .OOOOOOOO.XoX.  .OOOOOOOO.XoX.  .OOOO",
"OOOO.XoX.  .OOOOOOOO.XoX.  .OOOOOOOO.XoX.  .OOOOOOOO.XoX.  .OOOO",
"OOOO.XoX.  .OOOOOOOO.XoX.  .OOOOOOOO.XoX.  .OOOOOOOO.XoX.  .OOOO",
"OOOO.XoX.  .OOOOOOOO.XoX.  .OOOOOOOO.XoX.  .OOOOOOOO.XoX.  .OOOO",
"OOOO.XoX.  .OOOOOOOO.XoX.  .OOOOOOOO.XoX.  .OOOOOOOO.XoX.  .OOOO",
"OOOO.XoX.  .OOOOOOOO.XoX.  .OOOOOOOO.XoX.  .OOOOOOOO.XoX.  .OOOO",
"OOOO.XoX.  .OOOOOOOO.XoX.  .OOOOOOOO.XoX.  .OOOOOOOO.XoX.  .OOOO",
"OOOO.XoX.  .OOOOOOOO.XoX.  .OOOOOOOO.XoX.  .OOOOOOOO.XoX.  .OOOO",
"OOOO.XoX.  .OOOOOOOO.XoX.  .OOOOOOOO.XoX.  .OOOOOOOO.XoX.  .OOOO",
"OOOO.XoX.  .OOOOOOOO.XoX.  .OOOOOOOO.XoX.  .OOOOOOOO.XoX.  .OOOO",
"OOOO.XoX.  .OOOOOOOO.XoX.  .OOOOOOOO.XoX.  .OOOOOOOO.XoX.  .OOOO",
"OOOO.XoX.  .OOOOOOOO.XoX.  .OOOOOOOO.XoX.  .OOOOOOOO.XoX.  .OOOO",
"OOOO.XoX.  .OOOOOOOO.XoX.  .OOOOOOOO.XoX.  .OOOOOOOO.XoX.  .OOOO",
"OOOO.XoX.  .OOOOOOOO.XoX.  .OOOOOOOO.XoX.  .OOOOOOOO.XoX.  .OOOO",
"OOOO.XoX.  .OOOOOOOO.XoX.  .OOOOOOOO.XoX.  .OOOOOOOO.XoX.  .OOOO",
"OOOO.XoX.  .OOOOOOOO.XoX.  .OOOOOOOO.XoX.  .OOOOOOOO.XoX.  .OOOO",
"OOOO.XoX.  .OOOOOOOO.XoX.  .OOOOOOOO.XoX.  .OOOOOOOO.XoX.  .OOOO",
"OOOO.XoX.  .OOOOOOOO.XoX.  .OOOOOOOO.XoX.  .OOOOOOOO.XoX.  .OOOO",
"OOOO.XoX.  .OOOOOOOO.XoX.  .OOOOOOOO.XoX.  .OOOOOOOO.XoX.  .OOOO",
"OOOO.XoX.  .OOOOOOOO.XoX.  .OOOOOOOO.XoX.  .OOOOOOOO.XoX.  .OOOO",
"OOOO.XoX.  .OOOOOOOO.XoX.  .OOOOOOOO.XoX.  .OOOOOOOO.XoX.  .OOOO",
"OOOO.XoX.  .OOOOOOOO.XoX.  .OOOOOOOO.XoX.  .OOOOOOOO.XoX.  .OOOO",
"OOOO.XoX.  .OOOOOOOO.XoX.  .OOOOOOOO.XoX.  .OOOOOOOO.XoX.  .OOOO",
"OOOO.XoX.  .OOOOOOOO.XoX.  .OOOOOOOO.XoX.  .OOOOOOOO.XoX.  .OOOO",
"OOOO.XoX.  .OOOOOOOO.XoX.  .OOOOOOOO.XoX.  .OOOOOOOO.XoX.  .OOOO",
"OOOO.XoX.  .OOOOOOOO.XoX.  .OOOOOOOO.XoX.  .OOOOOOOO.XoX.  .OOOO",
"OOOO.XoX.  .OOOOOOOO.XoX.  .OOOOOOOO.XoX.  .OOOOOOOO.XoX.  .OOOO",
"OOOO.XoX.  .OOOOOOOO.XoX.  .OOOOOOOO.XoX.  .OOOOOOOO.XoX.  .OOOO",
"OOOO.XoX.  .OOOOOOOO.XoX.  .OOOOOOOO.XoX.  .OOOOOOOO.XoX.  .OOOO",
"OOOO.XoX.  .OOOOOOOO.XoX.  .OOOOOOOO.XoX.  .OOOOOOOO.XoX.  .OOOO",
"OOOO.XoX.  .OOOOOOOO.XoX.  .OOOOOOOO.XoX.  .OOOOOOOO.XoX.  .OOOO",
"OOOO.XoX.  .OOOOOOOO.XoX.  .OOOOOOOO.XoX.  .OOOOOOOO.XoX.  .OOOO",
"OOOO.XoX.  .OOOOOOOO.XoX.  .OOOOOOOO.XoX.  .OOOOOOOO.XoX.  .OOOO",
"OOOO.XoX.  .OOOOOOOO.XoX.  .OOOOOOOO.XoX.  .OOOOOOOO.XoX.  .OOOO",
"OOOO.XoX.  .OOOOOOOO.XoX.  .OOOOOOOO.XoX.  .OOOOOOOO.XoX.  .OOOO",
"OOOO.XoX.  .OOOOOOOO.XoX.  .OOOOOOOO.XoX.  .OOOOOOOO.XoX.  .OOOO",
"OOOO.XoX.  .OOOOOOOO.XoX.  .OOOOOOOO.XoX.  .OOOOOOOO.XoX.  .OOOO",
"OOOO.XoX.  .OOOOOOOO.XoX.  .OOOOOOOO.XoX.  .OOOOOOOO.XoX.  .OOOO",
"OOOO.XoX.  .OOOOOOOO.XoX.  .OOOOOOOO.XoX.  .OOOOOOOO.XoX.  .OOOO",
"OOOO.XoX.  .OOOOOOOO.XoX.  .OOOOOOOO.XoX.  .OOOOOOOO.XoX.  .OOOO",
"OOOO.XoX.  .OOOOOOOO.XoX.  .OOOOOOOO.XoX.  .OOOOOOOO.XoX.  .OOOO",
"OOOO.XoX.  .OOOOOOOO.XoX.  .OOOOOOOO.XoX.  .OOOOOOOO.XoX.  .OOOO",
"OOOO.XoX.  .OOOOOOOO.XoX.  .OOOOOOOO.XoX.  .OOOOOOOO.XoX.  .OOOO",
"OOOO.XoX.  .OOOOOOOO.XoX.  .OOOOOOOO.XoX.  .OOOOOOOO.XoX.  .OOOO",
"OOOO.XoX.  .OOOOOOOO.XoX.  .OOOOOOOO.XoX.  .OOOOOOOO.XoX.  .OOOO",
"OOOO.XoX.  .OOOOOOOO.XoX.  .OOOOOOOO.XoX.  .OOOOOOOO.XoX.  .OOOO",
"OOOO.XoX.  .OOOOOOOO.XoX.  .OOOOOOOO.XoX.  .OOOOOOOO.XoX.  .OOOO"
};
