/* XPM */
static char *result[] = {
/* columns rows colors chars-per-pixel */
"64 64 4 1 ",
"  c #132B4B",
". c #1B3767",
"X c #23437F",
"o c #2B5397",
/* pixels */
"X.XXX.  ....XXXX..XXX...  ....XX..XXXX.    ...XooXXXXX...  ....X",
"XXXX.    . .XXXXXXXX...   .....X.XXXX..     ...XooXXX...   .....",
"XX...      ...XooXX....   .....XXXXXX..      ..XooXX....   .....",
"XX...       ...XooX...     ...XoXXXX...      ..XooXX...     ...X",
"XX..         ..XooX....    ...XoXXoXX..     ..XXoXXX....    ...X",
"oX..         ..XooXX...   ...XooXXXXX...   ...XXX.XXX...   ....X",
"oX..        ..XXoXXXX..    .XXoXX..ooXX..  ..XXX...XXX..    ..Xo",
"XXX..     ....XXX.XoXX.   .XXoXX....XXoX.....XXX...XoXX.   ..Xoo",
"XXXX..    ...XXX...XXXX  ..XooX......XooX...XXX.. ..XXXX  ..XXoX",
".XXX.........XXX....XXX...XXXX........XXXX.XXXX..  ..XXX....XoX.",
"..XXo.......XXX.. ...XX...XXXX...   ...XoX.XXX..   ...XX...XXo..",
" ..XXXX....XXXX..  ...XX..XXX....   ....ooXXXX..    ...XX..XoX. ",
"  .XXXXXXX.XXX..    ..XXXXoo....     ...XooXX...     ..XXXXoo.. ",
"  ...XooXXXXXX..   ....XoooX...       ..XXoX..       ...XXoXX.  ",
"   ...XooXXXX...  .....ooXX....     ...XXXXX..      ...XXooX..  ",
"    ..XooooX..   ...XXXXXXX....     ..XXXXX...     ....XooXX..  ",
"    ..XooXoX..   ..XXXXXXX....     ...XX.XX...    ....XXXXXX..  ",
"   ..XXoXXoX... ..XXXX..XXXoo..    ...XX..XX...  ....X....XXX.  ",
"  .XXXXX.XooX....XXXX....XXXoX..  ...XX...XX... ....X.....XXoXX ",
" XXXXXX...XoX..XXXXX......XXXoX.....XXX.....X......XX.......ooXX",
"XXXXX.  ..XXXXXXXX.....  ..XXoXoX.XXXXX..  ..X....XXX.. .....XXo",
"XXXoX.....XXXXXXXX...    .....XXXXXXX..     .X...oXX...   ...XXX",
"..XooX...XXX.. .XX...       ..XXXXXX...     ..XooXXX..    ..XXX.",
"...XXXX.XXXX..  oX..        ..XXXXXX...  . ..XXoXXXXX..   ..XX..",
". ..XoX.XXX..   XXX.        ..XXXX.XXX.......XoX..XXX......XX...",
"  ...ooXXXX..   .Xo...      ..XX....XXX.....XXo....XXo....Xo....",
"   ..XoXXX...   ..X...    ...X......XooXXX..XoX.  ..XXXX..XX... ",
"   ...XXX..      ..X........X.........oXoXXXoo..   .XXXXXXXX..  ",
"    ...XX..      ...o...........  ......ooXoXX.    ...XooXX...  ",
"   ...XX...       ..XoXXXX.X...    ......oooX..     ...XooX..   ",
"   ...XX...       ...XXXXXX....      ....XoXX..      ..XooX...  ",
"   ...XXX...       ..XXXXX....       ....XoXX..      ..XooX...  ",
"   ...XXX..       ...XXXXX...        ...XXoX...      ..XooX.... ",
"  ....XoX..       ...XXX.....        ....XoXX..     ..XXoXXX... ",
"   ..XooX..      ....XoX....         ....XXXX...   ...XXX.XXX.. ",
"  ..XooXXX..      ..XooX...         .....X.ooXX..  ..XXX...oXX. ",
" ..XXoXXXXX..    ..XooXXX..         ....XX..XXoX.....XXX...XXXX ",
"...XoX..XXX...  ..XXoXXXXX..        ...XX....XooX...XXX.. ..XXX.",
"..XXo....XXo......XoX..XXX....       ..XX.....XXXX.XXXX..  ..XX.",
"..XoX.  ..XXXX...XXo....XXXX...    ...XoX..  ..XoX.XXX..   ...XX",
"XXoo..   .XXXX...XoX.  ..XXXX........Xoo..   ...ooXXXX..    ..XX",
"XXXX.    ...XoX.Xoo..   .XXXXX.......XXX..    ..XoXXX...    ...X",
"XXX..     ...XX.XXX.    ...XooXXXXXXXXX..     ...XXX..       ..X",
"XXX..      ..XXXXX..     ...XooXXXooXX...      ...XX..       ..X",
"oX...      ..XXXXX..      ..XooXXXXooX..      ...XX...       .XX",
"oXX..     ..XXooXX..     ..XXoXXXXXooX...     ...XX...      ...X",
"XXX...   ...XXXXXX...   ...XXX....XXoXX..     ...XX...      ...X",
".ooXX..  ..XXX..ooXX..  ..XXX......XXo........XXoX.X..      ...X",
"..XXoX.....XXX...XXoX.....XXX........XX......ooX...X..      ..XX",
"...XooX...XXX.....XooX...XXX..........XX....XoX....XX..    ..XX.",
"....XXXX.XXXX......XXXX.XXXX...  ......XX..XoX.....XXX..   ..XX.",
".  ..XoX.XXX.. .  ..XoX.XXX...    ......XX.XXX.  ..XXX......XoX.",
"   ...ooXXXX..    ...ooXXXX...     ......XXXX.    ..XXo....Xoo..",
"    ..XoXXX...     ..XoXXX...      ......XX...     ..XXXX..XXX..",
"    ...XXX..       ...XXX..         ....XXX...      .XXXXXXXX.. ",
"     ...XX..        ...XX...        ....XXX..       ...XooXX... ",
"    ...XX...       ...XX.....       ....XoX..        ...XooX..  ",
"    ...XX...       ...XX.....       ...XooX..         ..XooX... ",
"   ....XoX..      ....XoX.....     ...XooXXX..    .   ..XooXX...",
"    ..XooX..       ..XooX......   ...XXoXXXXX..   .  ..XXoXXXX..",
".....XXoX.XX..    ..XXXX.XXo....  ...XoX..XXX........XXXX.XXo...",
"....ooX...XXX..   ..XXX....XX.......XXo....XXo....X..XXX....XX..",
"...XoX....XXX......XoX......XX......XoX.  ..XXXX..X.XoX......XX.",
"..XoX......XXo....Xoo... ....XX....Xoo..   .XXXXXXXXoo... ....XX"
};
