/* XPM */
static char *result[] = {
/* columns rows colors chars-per-pixel */
"64 64 6 1 ",
"  c gray12",
". c gray20",
"X c #434343",
"o c #535353",
"O c gray39",
"+ c None",
/* pixels */
"XXXXXXXXXXXXXXXXXXXXXXXXXXXXXXXXXXXXXXXXXXXXXXXXXXXXXXXXXXXXXXXX",
"XXXXXXXXXXXXXXXXXXXXXXXXXXXXXXXXXXXXXXXXXXXXXXXXXXXXXXXXXXXXXXXX",
"XXXXXXXXX..............XXXXXXXXXXXXXXXXXX..............XXXXXXXXX",
"XXXXXXXX.              .XXXXXXXXXXXXXXXX.              .XXXXXXXX",
"XXXXXXX. ++++++++++++++ .XXXXXXXXXXXXXX. ++++++++++++++ .XXXXXXX",
"XXXXXX. ++++++++++++++++ .XXXXXXXXXXXX. ++++++++++++++++ .XXXXXX",
"XXXXX. ++++++++++++++++++ .XXXXXXXXXX. ++++++++++++++++++ .XXXXX",
"XXXX. ++++++++++++++++++++ .XXXXXXXX. ++++++++++++++++++++ .XXXX",
"XXX. ++++++++++++++++++++++OoXXXXXX. ++++++++++++++++++++++OoXXX",
"XXX. ++++++++++++++++++++++OoXXXXXX. ++++++++++++++++++++++OoXXX",
"XXX. ++++++++++++++++++++++OoXXXXXX. ++++++++++++++++++++++OoXXX",
"XXX. ++++++++++++++++++++++OoXXXXXX. ++++++++++++++++++++++OoXXX",
"XXX. ++++++++++++++++++++++OoXXXXXX. ++++++++++++++++++++++OoXXX",
"XXX. ++++++++++++++++++++++OoXXXXXX. ++++++++++++++++++++++OoXXX",
"XXX. ++++++++++++++++++++++OoXXXXXX. ++++++++++++++++++++++OoXXX",
"XXX. ++++++++++++++++++++++OoXXXXXX. ++++++++++++++++++++++OoXXX",
"XXX. ++++++++++++++++++++++OoXXXXXX. ++++++++++++++++++++++OoXXX",
"XXX. ++++++++++++++++++++++OoXXXXXX. ++++++++++++++++++++++OoXXX",
"XXX. ++++++++++++++++++++++OoXXXXXX. ++++++++++++++++++++++OoXXX",
"XXX. ++++++++++++++++++++++OoXXXXXX. ++++++++++++++++++++++OoXXX",
"XXX. ++++++++++++++++++++++OoXXXXXX. ++++++++++++++++++++++OoXXX",
"XXX. ++++++++++++++++++++++OoXXXXXX. ++++++++++++++++++++++OoXXX",
"XXX. ++++++++++++++++++++++OoXXXXXX. ++++++++++++++++++++++OoXXX",
"XXX. ++++++++++++++++++++++OoXXXXXX. ++++++++++++++++++++++OoXXX",
"XXXX. ++++++++++++++++++++OoXXXXXXXX. ++++++++++++++++++++OoXXXX",
"XXXXX. ++++++++++++++++++OoXXXXXXXXXX. ++++++++++++++++++OoXXXXX",
"XXXXXX. ++++++++++++++++OoXXXXXXXXXXXX. ++++++++++++++++OoXXXXXX",
"XXXXXXX. ++++++++++++++OoXXXXXXXXXXXXXX. ++++++++++++++OoXXXXXXX",
"XXXXXXXX.OOOOOOOOOOOOOOoXXXXXXXXXXXXXXXX.OOOOOOOOOOOOOOoXXXXXXXX",
"XXXXXXXXXooooooooooooooXXXXXXXXXXXXXXXXXXooooooooooooooXXXXXXXXX",
"XXXXXXXXXXXXXXXXXXXXXXXXXXXXXXXXXXXXXXXXXXXXXXXXXXXXXXXXXXXXXXXX",
"XXXXXXXXXXXXXXXXXXXXXXXXXXXXXXXXXXXXXXXXXXXXXXXXXXXXXXXXXXXXXXXX",
"XXXXXXXXXXXXXXXXXXXXXXXXXXXXXXXXXXXXXXXXXXXXXXXXXXXXXXXXXXXXXXXX",
"XXXXXXXXXXXXXXXXXXXXXXXXXXXXXXXXXXXXXXXXXXXXXXXXXXXXXXXXXXXXXXXX",
"XXXXXXXXX..............XXXXXXXXXXXXXXXXXX..............XXXXXXXXX",
"XXXXXXXX.              .XXXXXXXXXXXXXXXX.              .XXXXXXXX",
"XXXXXXX. ++++++++++++++ .XXXXXXXXXXXXXX. ++++++++++++++ .XXXXXXX",
"XXXXXX. ++++++++++++++++ .XXXXXXXXXXXX. ++++++++++++++++ .XXXXXX",
"XXXXX. ++++++++++++++++++ .XXXXXXXXXX. ++++++++++++++++++ .XXXXX",
"XXXX. ++++++++++++++++++++ .XXXXXXXX. ++++++++++++++++++++ .XXXX",
"XXX. ++++++++++++++++++++++OoXXXXXX. ++++++++++++++++++++++OoXXX",
"XXX. ++++++++++++++++++++++OoXXXXXX. ++++++++++++++++++++++OoXXX",
"XXX. ++++++++++++++++++++++OoXXXXXX. ++++++++++++++++++++++OoXXX",
"XXX. ++++++++++++++++++++++OoXXXXXX. ++++++++++++++++++++++OoXXX",
"XXX. ++++++++++++++++++++++OoXXXXXX. ++++++++++++++++++++++OoXXX",
"XXX. ++++++++++++++++++++++OoXXXXXX. ++++++++++++++++++++++OoXXX",
"XXX. ++++++++++++++++++++++OoXXXXXX. ++++++++++++++++++++++OoXXX",
"XXX. ++++++++++++++++++++++OoXXXXXX. ++++++++++++++++++++++OoXXX",
"XXX. ++++++++++++++++++++++OoXXXXXX. ++++++++++++++++++++++OoXXX",
"XXX. ++++++++++++++++++++++OoXXXXXX. ++++++++++++++++++++++OoXXX",
"XXX. ++++++++++++++++++++++OoXXXXXX. ++++++++++++++++++++++OoXXX",
"XXX. ++++++++++++++++++++++OoXXXXXX. ++++++++++++++++++++++OoXXX",
"XXX. ++++++++++++++++++++++OoXXXXXX. ++++++++++++++++++++++OoXXX",
"XXX. ++++++++++++++++++++++OoXXXXXX. ++++++++++++++++++++++OoXXX",
"XXX. ++++++++++++++++++++++OoXXXXXX. ++++++++++++++++++++++OoXXX",
"XXX. ++++++++++++++++++++++OoXXXXXX. ++++++++++++++++++++++OoXXX",
"XXXX. ++++++++++++++++++++OoXXXXXXXX. ++++++++++++++++++++OoXXXX",
"XXXXX. ++++++++++++++++++OoXXXXXXXXXX. ++++++++++++++++++OoXXXXX",
"XXXXXX. ++++++++++++++++OoXXXXXXXXXXXX. ++++++++++++++++OoXXXXXX",
"XXXXXXX. ++++++++++++++OoXXXXXXXXXXXXXX. ++++++++++++++OoXXXXXXX",
"XXXXXXXX.OOOOOOOOOOOOOOoXXXXXXXXXXXXXXXX.OOOOOOOOOOOOOOoXXXXXXXX",
"XXXXXXXXXooooooooooooooXXXXXXXXXXXXXXXXXXooooooooooooooXXXXXXXXX",
"XXXXXXXXXXXXXXXXXXXXXXXXXXXXXXXXXXXXXXXXXXXXXXXXXXXXXXXXXXXXXXXX",
"XXXXXXXXXXXXXXXXXXXXXXXXXXXXXXXXXXXXXXXXXXXXXXXXXXXXXXXXXXXXXXXX"
};
