/* XPM */
static char *result[] = {
/* columns rows colors chars-per-pixel */
"32 32 3 1 ",
"  c #434343",
". c #535353",
"X c gray39",
/* pixels */
"XXXXXXXXXXXXXXXXXXXXXXXXXXXXXXXX",
"X .XXXXXXXXXXXXXX .XXXXXXXXXXXXX",
"X  .XXXXXXXXXXXXX  .XXXXXXXXXXXX",
"X.  .XXXXXXXXXXXX.  .XXXXXXXXXXX",
"XX.  .XXXXXXXXXXXX.  .XXXXXXXXXX",
"XXX.  .XXXXXXXXXXXX.  .XXXXXXXXX",
"XXXX.  .XXXXXXXXXXXX.  .XXXXXXXX",
" XXXX.  .XXXXXX. XXXX.  .XXXXXX.",
" XXXXX.  XXXXX.  XXXXX.  XXXXX. ",
"XXXXXXXXXXXXX.  .XXXXXXXXXXXX.  ",
"XXXXXXXXXXXX.  .XXXXXXXXXXXX.  .",
"XXXXXXXXXXX.  .XXXXXXXXXXXX.  .X",
"XXXXXXXXXX.  .XXXXXXXXXXXX.  .XX",
"XXXXXXXXX.  .XXXXXXXXXXXX.  .XXX",
"XXXXXXXXX  .XXXXXXXXXXXXX  .XXXX",
"XXXXXXXXXXXXXXXXXXXXXXXXXXXXXXXX",
"XXXXXXXXXXXXXXXXXXXXXXXXXXXXXXXX",
"X .XXXXXXXXXXXXXX .XXXXXXXXXXXXX",
"X  .XXXXXXXXXXXXX  .XXXXXXXXXXXX",
"X.  .XXXXXXXXXXXX.  .XXXXXXXXXXX",
"XX.  .XXXXXXXXXXXX.  .XXXXXXXXXX",
"XXX.  .XXXXXXXXXXXX.  .XXXXXXXXX",
"XXXX.  .XXXXXXXXXXXX.  .XXXXXXXX",
" XXXX.  .XXXXXX. XXXX.  .XXXXXXX",
" XXXXX.  XXXXX.  XXXXX.  XXXXX. ",
"XXXXXXXXXXXXX.  .XXXXXXXXXXXX.  ",
"XXXXXXXXXXXX.  .XXXXXXXXXXXX.  .",
"XXXXXXXXXXX.  .XXXXXXXXXXXX.  .X",
"XXXXXXXXXX.  .XXXXXXXXXXXX.  .XX",
"XXXXXXXXX.  .XXXXXXXXXXXX.  .XXX",
"XXXXXXXXX  .XXXXXXXXXXXXX  .XXXX",
"XXXXXXXXXXXXXXXXXXXXXXXXXXXXXXXX"
};
