/* XPM */
static char *result[] = {
/* columns rows colors chars-per-pixel */
"64 64 14 1 ",
"  c gray12",
". c gray15",
"X c #2A2A2A",
"o c gray17",
"O c gray20",
"+ c gray22",
"@ c #3C3C3C",
"# c #3E3E3E",
"$ c gray25",
"% c gray26",
"& c #434343",
"* c gray27",
"= c #494949",
"- c #535353",
/* pixels */
"@%-------------------------------------------------------------@",
"*@#&&&&&&&&&&&&&&&&&&&&&&&&&&&&&&&&&&&&&&&&&&&&&&&&&&&&&&&&&&&@O",
"-#@@@@@@@@++@@@$=&&$@@$&$@@@@@@@+++@@$&=&&$@++$&$@@@@@@@@@@@@@Oo",
"-&@O O@@@++@@@$=&&$@@$&$@@@@@@@+++@@$&=&&$@++$&$@@@@@@@@@O O@+O ",
"-&@ O@&@@+@@@$=&&$@@$&$@@@@@@@+++@@$&=&&$@++$&$@@@@@@@@@@ O@&+O ",
"-&@O@&-@@@@@$=&&$@@$&$@@@@@@@+++@@$&=&&$@++$&$@@@@@@@@@@@O@&-+O ",
"-&@@&-@@@@@$=&&$@@$&$@@@@@@@+++@@$&=&&$@++$&$@@@@@@@@@@@@+&-++O ",
"-&@@@++@@@$=&&$@@$&$@@@@@@@+++@@$&=&&$@++$&$@@@@@@@@@@@@@@@+++O ",
"-&@@++@@@$=&&$@@$&$@@@@@@@+++@@$&=&&$@++$&$@@@@@@@@@@@@@@@+++@O ",
"-&@@+@@@$=&&$@@$&$@@@@@@@+++@@$&=&&$@++$&$@@@@@@@@@@@@@@@+++@@O ",
"-&@@@@@$=&&$@@$&$@@@@@@@+++@@$&=&&$@++$&$@@@@@@@@@@@@@@@+++@@$O ",
"-&@@@@$=&&$@@$&$@@@@@@@+++@@$&=&&$@++$&$@@@@@@@@@@@@@@@+++@@$&O ",
"-&@@@$=&&$@@$&$@@@@@@@+++@@$&=&&$@++$&$@@@@@@@@@@@@@@@+++@@$&=O ",
"-&@@$=&&$@@$&$@@@@@@@+++@@$&=&&$@++$&$@@@@@@@@@@@@@@@+++@@$&=&O ",
"-&@$=&&$@@$&$@@@@@@@+++@@$&=&&$@++$&$@@@@@@@@@@@@@@@+++@@$&=&&O ",
"-&$=&&$@@$&$@@@@@@@+++@@$&=&&$@++$&$@@@@@@@@@@@@@@@+++@@$&=&&$O ",
"-&=&&$@@$&$@@@@@@@+++@@$&=&&$@++$&$@@@@@@@@@@@@@@@+++@@$&=&&$@O ",
"-&&&$@@$&$@@@@@@@+++@@$&=&&$@++$&$@@@@@@@@@@@@@@@+++@@$&=&&$@+O ",
"-&&$@@$&$@@@@@@@+++@@$&=&&$@++$&$@@@@@@@@@@@@@@@+++@@$&=&&$@++O ",
"-&$@@$&$@@@@@@@+++@@$&=&&$@++$&$@@@@@@@@@@@@@@@+++@@$&=&&$@++$O ",
"-$@@$&$@@@@@@@+++@@$&=&&$@++$&$@@@@@@@@@@@@@@@+++@@$&=&&$@++$&O ",
"-&@$&$@@@@@@@+++@@$&=&&$@++$&$@@@@@@@@@@@@@@@+++@@$&=&&$@++$&$O ",
"-&$&$@@@@@@@+++@@$&=&&$@++$&$@@@@@@@@@@@@@@@+++@@$&=&&$@++$&$@O ",
"-&&$@@@@@@@+++@@$&=&&$@++$&$@@@@@@@@@@@@@@@+++@@$&=&&$@++$&$@@O ",
"-&$@@@@@@@+++@@$&=&&$@++$&$@@@@@@@@@@@@@@@+++@@$&=&&$@++$&$@@@O ",
"-&@O O@@@+++@@$&=&&$@++$&$@@@@@@@@@@@@@@@+++@@$&=&&$@++$&O O@@O ",
"-&@ O@&@+++@@$&=&&$@++$&$@@@@@@@@@@@@@@@+++@@$&=&&$@++$&$ O@&@O ",
"-&@O@&-+++@@$&=&&$@++$&$@@@@@@@@@@@@@@@+++@@$&=&&$@++$&$@O@&-@O ",
"-&@+&-+++@@$&=&&$@++$&$@@@@@@@@@@@@@@@+++@@$&=&&$@++$&$@@+&-++O ",
"-&++++++@@$&=&&$@++$&$@@@@@@@@@@@@@@@+++@@$&=&&$@++$&$@@@@@@++O ",
"-@OOOOOOOOOOOOOOOOOOOOOOOOOOOOOOOOOOOOOOOOOOOOOOOOOOOOOOOOOOOOX.",
"@Oo                                                           .X",
"-------------------------------@@%------------------------------",
"&&&&&&&&&&&&&&&&&&&&&&&&&&&&&&@O*@#&&&&&&&&&&&&&&&&&&&&&&&&&&&&&",
"+++@@$&=&&$@++$&$@@@@@@@@@@@@@Oo-#@@@@@@@@++@@@$=&&$@@$&$@@@@@@@",
"++@@$&=&&$@++$&$@@@@@@@@@O O@+O -&@O O@@@++@@@$=&&$@@$&$@@@@@@@+",
"+@@$&=&&$@++$&$@@@@@@@@@@ O@&+O -&@ O@&@@+@@@$=&&$@@$&$@@@@@@@++",
"@@$&=&&$@++$&$@@@@@@@@@@@O@&-+O -&@O@&-@@@@@$=&&$@@$&$@@@@@@@+++",
"@$&=&&$@++$&$@@@@@@@@@@@@+&-++O -&@@&-@@@@@$=&&$@@$&$@@@@@@@+++@",
"$&=&&$@++$&$@@@@@@@@@@@@@@@+++O -&@@@++@@@$=&&$@@$&$@@@@@@@+++@@",
"&=&&$@++$&$@@@@@@@@@@@@@@@+++@O -&@@++@@@$=&&$@@$&$@@@@@@@+++@@$",
"=&&$@++$&$@@@@@@@@@@@@@@@+++@@O -&@@+@@@$=&&$@@$&$@@@@@@@+++@@$&",
"&&$@++$&$@@@@@@@@@@@@@@@+++@@$O -&@@@@@$=&&$@@$&$@@@@@@@+++@@$&=",
"&$@++$&$@@@@@@@@@@@@@@@+++@@$&O -&@@@@$=&&$@@$&$@@@@@@@+++@@$&=&",
"$@++$&$@@@@@@@@@@@@@@@+++@@$&=O -&@@@$=&&$@@$&$@@@@@@@+++@@$&=&&",
"@++$&$@@@@@@@@@@@@@@@+++@@$&=&O -&@@$=&&$@@$&$@@@@@@@+++@@$&=&&$",
"++$&$@@@@@@@@@@@@@@@+++@@$&=&&O -&@$=&&$@@$&$@@@@@@@+++@@$&=&&$@",
"+$&$@@@@@@@@@@@@@@@+++@@$&=&&$O -&$=&&$@@$&$@@@@@@@+++@@$&=&&$@+",
"$&$@@@@@@@@@@@@@@@+++@@$&=&&$@O -&=&&$@@$&$@@@@@@@+++@@$&=&&$@++",
"&$@@@@@@@@@@@@@@@+++@@$&=&&$@+O -&&&$@@$&$@@@@@@@+++@@$&=&&$@++$",
"$@@@@@@@@@@@@@@@+++@@$&=&&$@++O -&&$@@$&$@@@@@@@+++@@$&=&&$@++$&",
"@@@@@@@@@@@@@@@+++@@$&=&&$@++$O -&$@@$&$@@@@@@@+++@@$&=&&$@++$&$",
"@@@@@@@@@@@@@@+++@@$&=&&$@++$&O -$@@$&$@@@@@@@+++@@$&=&&$@++$&$@",
"@@@@@@@@@@@@@+++@@$&=&&$@++$&$O -&@$&$@@@@@@@+++@@$&=&&$@++$&$@@",
"@@@@@@@@@@@@+++@@$&=&&$@++$&$@O -&$&$@@@@@@@+++@@$&=&&$@++$&$@@@",
"@@@@@@@@@@@+++@@$&=&&$@++$&$@@O -&&$@@@@@@@+++@@$&=&&$@++$&$@@@@",
"@@@@@@@@@@+++@@$&=&&$@++$&$@@@O -&$@@@@@@@+++@@$&=&&$@++$&$@@@@@",
"@@@@@@@@@+++@@$&=&&$@++$&O O@@O -&@O O@@@+++@@$&=&&$@++$&$@@@@@@",
"@@@@@@@@+++@@$&=&&$@++$&$ O@&@O -&@ O@&@+++@@$&=&&$@++$&$@@@@@@@",
"@@@@@@@+++@@$&=&&$@++$&$@O@&-@O -&@O@&-+++@@$&=&&$@++$&$@@@@@@@@",
"@@@@@@+++@@$&=&&$@++$&$@@+&-++O -&@+&-+++@@$&=&&$@++$&$@@@@@@@@@",
"@@@@@+++@@$&=&&$@++$&$@@@@@@++O -&++++++@@$&=&&$@++$&$@@@@@@@@@@",
"OOOOOOOOOOOOOOOOOOOOOOOOOOOOOOX.-@OOOOOOOOOOOOOOOOOOOOOOOOOOOOOO",
"                              .X@Oo                             "
};
