/* XPM */
static char *tile0671689510948[] = {
/* columns rows colors chars-per-pixel */
"64 64 22 1 ",
"  c #444444",
". c gray28",
"X c gray29",
"o c #4B4B4B",
"O c #4C4C4C",
"+ c gray30",
"@ c #4E4E4E",
"# c gray31",
"$ c #505050",
"% c #515151",
"& c #535353",
"* c gray33",
"= c #565656",
"- c #585858",
"; c gray35",
": c gray36",
"> c gray37",
", c #5F5F5F",
"< c #606060",
"1 c gray38",
"2 c gray39",
"3 c #646464",
/* pixels */
"@@@@@@@@@@@@@===================================================",
"================================================================",
"&&&&&&&&&&&&&&&&&&&&&&&&&&&&&&&&&&&&&&&&&&&&&&&&&&&&&&&&&&&&&&&&",
"&&&&&&&&&&&&&&&&&&&&&&&&&&&&&&&&&&&&&&&&&&&&&&&&&&&&&&&&&&&&&&&&",
"&&&&&&&&&&&&&&&&&&&&&&&&&&&&&&&&&&&&&&&&&&&&&&&&&&&&&&&&&&&&&&&&",
"&&&&&&&&&&&&&&&&&&&&&&&&&&&&&&&&&&&&&&&&&&&&&&&&&&&&&&&&&&&&&&&&",
"&&@@&&@&&@&@@&&@&&&&&&&@@&&@&&@@&&&@@&&@@&&@@&&&@@&&@&&@@&&&&&&&",
"&@&&@&&@&&&@&&@&@&@@&@@&&@@&&@&&&@@&&@&&&&@&&@@&&&@&&@@&&@@&@@&@",
"o@@@o@@@o@@o@@@o@o@@@oo@@oo@@oo@oo@@@o@@@@o@@@oo@oo@@oo@@oo@@@o@",
"@@o@@@o@@o@@@o@@@@@o@@@@@@@@@@@@@@@o@@@oo@o@o@@@@@@@@@@@@@@@o@o@",
"oooooooooooo@ooooo@oo@oooo@ooo@oo@oooo@oooo@o@o@oo@ooo@oo@ooooo@",
"o@@oo@@oo@@ooo@o@oooooo@@ooo@oooooo@@ooo@@ooo@oo@ooo@oooooo@@@oo",
"&=&&=&=&=&&=&=&&=&&=&&=&&&=&=&&==&=&&=&=&&=&=&=&&&=&=&&=&&=&&&=&",
";;;;;;;;;;;;;;;;;;;;;;;;;;;;;;;;;;;;;;;;;;;;;;;;;;;;;;;;;;;;;;;;",
";=;======;==;=;===;=;==;===;==;;==;===;=;=====;====;==;=;==;===;",
",,,,,,,,,,,,,,,,,,,,,,,,,,,,,,,,,,,,,,,,,,,,,,,,,,,,,,,,,,,,,,,,",
";,,;,;,;,;,;,;,;,;,;,;,;,;,;,;,;,;,;,;,;,;,;,;,;,;,;;,;,;,,;,;,;",
",;;,;,;,;,;,;,;,;,;,;,;,;,;,;,;,;,;,;,;,;,;,;,;,;,;,,,,;,;;,;,;,",
"<<<3<<<<<3<<<3<3<3<3<<<<<3<<<3<3<<<3<<<3<<<3<<<3<3<<<<<<<<<3<<<<",
"<<<<3<3<<<3<<<<<<<<<3<3<<<3<<<<<3<<<3<<<3<<<3<<<<<<<3<<<<<<<3<3<",
"<<<<<<<<<<<<<<<<<<<<<<<<<<<<<<<<<<<<<<<<<<<<<<<<<<<<<<<<<<<<<<<<",
"3333333333333333333333333333333333333333333333333333333333333333",
"33<33<33<33<3<<333<33<33<33<3<<33<33<33<3<33<33<33<3<3<333<33<33",
",,,<<,,,,<<<<<,,,,,<<,,,,<<<<<,,<,,,,<<<<,,,,<<,<<<<<<<<,,,<<,,,",
",,,,,,,,,,,,,,,,,,,,,,,,,,,,,,,,<,,,,,,,,,,,,,,,,,,,,,,,,,,,,,,,",
",,,,,,,,,,,,,,,,,,,,,,,,,,,,,,,,,,,,,,,,,,,,,,,,,,,,,,,,,,,,,,,,",
",,,,,,,,,,,,,,,,,,,,,,,,,,,,,,,,,,,,,,,,,,,,,,,,,,,,,,,,,,,,,,,,",
";;;;;;;;;;;;;;;;;;;;;;;;;;;;;;;;;;;;;;;;;;;;;;;;;;;;;;;;;;;;;;;;",
";;;;;;;;;;;;;;;;;;;;;;;;;;;;;;;;;;;;;;;;;;;;;;;;;;;;;;;;;;;;;;;;",
";;;;;;;;;;;;;;;;;;;;;;;;;;;;;;;;;;;;;;;;;;;;;;;;;;;;;;;;;;;;;;;;",
"==&&&&==&&&&==&&==&&&&==&&&&==&&=&&&=&=&&&=&=&&&=&=&&&=&=&&&=&=&",
"&&&==&&&&==&&&&=&&&==&&&&==&&&&==&=&&&=&=&&&=&=&&&=&=&&&=&=&&&=&",
"&@&@&@&@@&&@@&&@&@&@&@&@@&&@@&&@@&@&@@@&@&@@@&&@@@&@@&@&@&@&@@@&",
"@@@@@@@@@@@@@@@@@@@@@@@@@@@@@@@@@@@@@&@@@@@&@@@@&@@@@&@@@@@@@&@@",
"@@@&@@@&@&&@@&&@@@@&@@@&@&&@@&&@@@@&&@@&@&&@@@@@@&&@@@@@@@@&&@@&",
"@&@@@&@@@@@@@@@@@&@@@&@@@@@@@@@@@&@@@@@@@@@@&@@&@@@@@@&@@&@@@@@@",
"@@o@@o@@@@@o@@oo@@o@@o@@@@@o@@oo@oo@@@o@@@ooo@@@@@@@o@o@@oo@@@o@",
"o@o@@o@o@o@@o@@@o@o@@o@o@o@@o@@@@@@@o@o@o@@@@@o@@oo@o@@@@@@@o@o@",
"oooooooooooooooooooooooooooooooooooooooooooooooooooooooooooooooo",
"oooooooooooooooooooooooooooooooooooooooooooooooooooooooooooooooo",
"o@o@ooo@o@ooo@o@o@o@ooo@o@ooo@o@o@ooo@oooo@o@ooo@oooo@@ooo@ooo@o",
"ooooo@ooooo@ooooooooo@ooooo@ooooooo@o@o@@o@ooo@ooo@ooooo@ooo@o@o",
"@ooooo@ooooo@ooo@ooooo@ooooo@oooooo@ooooooooooooo@oo@ooooooooooo",
"oooooooooooooooooooooooooooooooooooo.ooooooooooooooooooooooooooo",
"                                                                ",
"                                                                ",
"                                                                ",
"                                                                ",
"                                                                ",
"                                                                ",
"................................................................",
"o.oooooo.oooooo.oooo.oooooo.o.ooooo.ooooooo.oooooo.o.oooooo..ooo",
"oooooooooooooooooooooooooooooooooooooooooooooooooooooooooooooooo",
"@o@oo@o@@@o@oo@@@@@oo@@@ooo@@@@ooo@@@@@ooo@@@@@o@o@o@o@o@@o@@o@@",
"&@&&&&@&@&@&&@@&&@@&&@&@&&@&@@&&&@@&&@@&&@@&&@@&@@&&&@&&@&@&&@@&",
"@&&@@&&@@&&@&&@&@&&@&&@&@&&@&&@&&&@&@&&@&&@&@&&@&&@&@&&@@&&@&&@&",
"&@&&@&@&&@&&@&@&&@&&@&@&@&&@&@&&@&@&&@&@@&&@&@&&&@&&@&@&&@&&@&@&",
"&&&&&&&&&&&&&&&&&&&&&&&&&&&&&&&&&&&&&&&&&&&&&&&&&&&&&&&&&&&&&&&&",
"&&&&&&&&&&&&&&&&&&&&&&&&&&&&&&&&&&&&&&&&&&&&&&&&&&&&&&&&&&&&&&&&",
"&&&&&&&&&&&&&&&&&&&&&&&&&&&&&&&&&&&&&&&&&&&&&&&&&&&&&&&&&&&&&&&&",
"&&&&&&&&&&&&&&&&&&&&&&&&&&&&&&&&&&&&&&&&&&&&&&&&&&&&&&&&&&&&&&&&",
"&&&&&&&&&&&&&&&&&&&&&&&&&&&&&&&&&&&&&&&&&&&&&&&&&&&&&&&&&&&&&&&&",
"================================================================",
"================================================================"
};
