/* XPM */
static char *result[] = {
/* columns rows colors chars-per-pixel */
"64 64 3 1 ",
"  c #CBCBCB",
". c #FFFFFE",
"X c None",
/* pixels */
"XXX ........... XXXXXXXXXXXXX........ XXXXXXXXX ..... XXXXXXXXXX",
"XXXXX.........XXXXXXXXXXXXXXX..... XXXXXXXXXXX ..... XXXXXXXXXXX",
"XXXXX.........XXXXXXXXXXXXXXX.... XXXXXXXXXXX ..... XXXXXXXXXXXX",
"XXXXX........ XXXXXXXXXXXXXX ... XXXXXXXXX ........XXXXXXXXXXXXX",
"XXXX ........XXXXXXXXXXXXXX ....XXXXXXXXX ........ XXXXXXXXXXXXX",
"XXX ........ XXXXXXXXXXXXXX.... XXXXXXXXX........ XXXXXXXXXXXXXX",
"X ..........XXXXXXXXXXXXXX ... XXXXXXXXX ...... XXXXXXXXXXXXXXXX",
"............ XXXXXXXXXXXX ....XXXXXXXXX ..... XXXXXXXXXXXXXXXXXX",
".............XXXXXXXXXXXX... XXXXXXXXX ..... XXXXXXXXXXXXXXXXX .",
"............. XXXXXXXXX ... XXXXXXXXXX......XXXXXXXXXXXXXXXX....",
"..............XXXXXXXX ... XXXXXXXXXX ......XXXXXXXXXXXXXXXX ...",
"............. XXXXXXX ...XXXXXXXXXXXX.......XXXXXXXXXXXXXXXXX...",
"............ XXXXXXXXX  XXXXXXXXXXXX ...... XXXXXXXXXXXXXXXXX...",
"......... XXXXXXXXXXXXXXXXXXXXXXXXX ...... XXXXXXXXXXXXXXXXXX...",
"....... XXXXXXXXXXXXXXXXXXXXXXXXXXX ......XXXXXXXXXXXXXXXXXX ...",
"..... XXXXXXXXXXXXXXXXXXXXXXXXXXXX .......XXXXXXXXXXXXXXXXX ....",
"... XXXXXXXXXXXXXXXXXXXXXXXXXXXXXX....... XXXXXXXXXXXXXXXX .....",
"...XXXXXXXXXXXXXXXXXXXXXXXXXXXXXX ...... XXXXXXXXXXXXXXX .......",
"...XXXXXXXXXXXXXXXXXXXXXXXXXXXXX ...... XXXXXXXXXXXXXXX ........",
".. XXXXXXXXXXXXXXXXXXXXXXXXXXX ....... XXXXXXXXXXXXXXXX.........",
". XXXXXXXXXXXXXXXXXXXXXXXXXXX ...... XXXXXXXXXXXXXXXXXX.........",
" XXXXXXXXXXXXXXXXXXXXXXXXXXX ..... XXXXXXXXXXXXXXXXXX ......... ",
"XXXXXXXXXXXXXXXXXXXXXXXXXX ...... XXXXXXXXXXXXXXXXXX.......... X",
"XXXXXXXXXXXXXXXXXXXXXXXXX ...... XXXXXXXXXXXXXXXXXX.......... XX",
"XXXXXXXXXXXXXXXXXXXXXXXX .......XXXXXXXXXXXXXXXXXX ..........XXX",
"XXXXXXXXXXXXXXXXXXXXXXXX....... XXXXXXXXXXXXXXXXX ......... XXXX",
"XXXXXXXXXXXXXXXXXXXXXXXX.......XXXXXXXXXXXXXXXXX ......... XXXXX",
"XXXXXXXXXXXXXXXXXXXXXXXX..... XXXXXXXXXXX.XXXXXX..........XXXXXX",
"XXXXXXXXXXXXXXXXXXXXXXXX....XXXXXXXXXXX.. XXXXXX..........XXXXXX",
"XXXXXXXXXXXXXXXXXXXXXXX .. XXXXXXXXXXX.. XXXXXX...........XXXXXX",
"XXXXXXXXXXXXXXXXXXXXXX.. XXXXXXXXXXXX.. XXXXXX .......... XXXXXX",
"XXXXXXXXXXXXXXXXXXXXX.. XXXXXXXXXXX ...XXXXX ........... XXXXXXX",
"XXXXXXXXXXXXXXXXXXX .. XXXXXXXXXXX ... XXX ......... XXXXXXXXXXX",
"XXXXXXXXXXXXXXXXXX .. XXXXXXXXXXXX... XXXX......... XXXXXXXXXXXX",
"XXXXXXXXXXXXXXXX ...XXXXXXXXXXX .... XXXXX........ XXXXXXXXXXXXX",
"XXXXXXXXXXXX ......XXXXXXXXXXXX.... XXXXXX........XXXXXXXXXXXXXX",
"XXXXXXXXXXX ...... XXXXXXXXXXX .. XXXXXXXX....... XXXXXXXXXXXXXX",
"XXXXXXXXXXX.......XXXXXXXX ......XXXXXXXX .......XXXXXXXXXXXXXXX",
"XXXXXXXXXX.......XXXXXXXXX...... XXXXXXXX.......XXXXXXXXXXXXXXXX",
"XXXXXXXXX.......XXXXXXXXX ..... XXXXXXXX ..... XXXXXXXXXXXXXXXXX",
"XXXXXXXX....... XXXXXXXX .... XXXXXXXXX ......XXXXXXXXXXXXXXXXXX",
"XXXXXX ........XXXXXXXX ... XXXXXXXXXXX...... XXXXXXXXXXXXXXXXXX",
"XXXXX......... XXXXX ..... XXXXXXXXXXX..... XXXXXXXXXXXXXXXXXXXX",
"XXXX..........XXXXX .... XXXXXXXXXXXX......XXXXXXXXXXXXXXXXXXXXX",
"XXX .........XXXXXX.... XXXXXXXXXXXX.......XXXXXXXXXXXXXXXXXXXXX",
"XX .......  XXXXXX.... XXXXXXXXXXXX ...... XXXXXXXXXXXXXXXXXXXXX",
"XX....... XXXXXXXX.. XXXXXXXXXXXXX .......XXXXXXXXXXXXXXXXXXXXXX",
"X ...... XXXXXXXX . XXXXXXXXXXXXX ....... XXXXXXXXXXXXXXXXXXXXXX",
"X...... XXXXXXXXX. XXXXXXXXXXXX ........XXXXXXXXXXXXXXXX ..XXXXX",
"X......XXXXXXXXXXXXXXXXXXXXXXX ....... XXXXXXXXXXXXXXX....XXXXXX",
"X......XXXXXXXXXXXXXXXXXXXXXXX....... XXXXXXXXXXXXXXX ..XXXXXXXX",
" ...... XXXXXXXXXXXXXXXXXXXXXX.......XXXXXXXXXXXXXXX ..XXXXXXXXX",
"........XXXXXXXXXXXXXXXXXXXXX .......XXXXXXXXXXXXXX ...XXXXXXXXX",
"........XXXXXXXXXXXXXXXXXXXXX........XXXXXXXXXXXXX ...XXXXXXXXX ",
"....... XXXXXXXXXXXXXXXXXXXX ....... XXXXXXXXXXXX ... XXXXXXXXX.",
".......XXXXXXXXXXXXXXXXXXXX ........XXXXXXXXXXX .... XXXXXXXXX .",
"...... XXXXXXXXXXXXXXXXXXX ....... XXXXXXXXX ........XXXXXXXX ..",
"......XXXXXXXXXXXXXXXXXX ....... XXXXXXXXXXX..... XXXXXXXXXX ...",
"......XXXXXXXXXXXXXXXX ........XXXXXXXXXXXXXX ...XXXXXXXXX .....",
"......XXXXXXXXXXXXXX ......... XXXXXXXXXXXXX...XXXXXXXXXX ......",
"......XXXXXXXXXXXXX.......... XXXXXXXXXXXXX...XXXXXXXXXX .......",
"......XXXXXXXXXXX ......... XXXXXXXXXXXX ....XXXXXXXXXX ........",
"......XXXXXXXXXX ........... XXXXXXXXX ......XXXXXXXX ..........",
"......XXXXXXXXXX............. XXXXXXXX.....XXXXXXX ............."
};
