/* XPM */
static char *tile0691689510949[] = {
/* columns rows colors chars-per-pixel */
"64 64 33 1 ",
"  c #7B3323",
". c #833A27",
"X c #853B28",
"o c #863C28",
"O c #863D29",
"+ c #873D29",
"@ c #863D2A",
"# c #873E2A",
"$ c #883E2A",
"% c #893E2A",
"& c #89402B",
"* c #8A402B",
"= c #8B412C",
"- c #8C422C",
"; c #8D422C",
": c #8D432D",
"> c #8E432D",
", c #8F432D",
"< c #8E442E",
"1 c #8F442E",
"2 c #8F452E",
"3 c #8F452F",
"4 c #90452E",
"5 c #91452E",
"6 c #90452F",
"7 c #90462F",
"8 c #91462F",
"9 c #91472F",
"0 c #92462F",
"q c #92472F",
"w c #93472F",
"e c #944931",
"r c #974B33",
/* pixels */
"                                                                ",
" ###XX#..###.X.$+XX+$XXXX$XX++++%+++XX++%%+++++%++XXX+%%%%%%%+% ",
" #2>->->433>>>4>414491144%444%4>1144444%e%44%404%4%%4ee0ewwwww% ",
" .>4>-$-42>>>>>4499e914>44>411>411%1%%4041%%44%00444%4re0www44% ",
" .>44>-->22>>>44991%4444%0044%441111444%14%4%41%0444%9re0ee>%1$ ",
" .242>->>2*>=>44e144%0%4%4%4004941114%40%414111440e44e1%w9>199$ ",
" $>4>>>->>>4--=414400%4%0%04%%04e%%11%%141111444104141e440>993$ ",
" .>>>>>>>44-->>414%%0r4%00%0040w1444e0440%4111040e4%%114>>9>39# ",
" X>>>>>>>4>>*>>291414eeerr<<19914419e114%4%094erre4>%4%4>>4e49+ ",
" X>>>>>>*>>222>211%140r1<<<<19<%%>%0911414%04eerr1%>1111>>%rr1% ",
" X>>>>>>>242>9491441004e<<9991<<%>1499390%001rrr14>>414144rrrr% ",
" #>>>>>>*ww*494240%444%e1<11999<4%4499>>4414err1>>>411444errrr> ",
" #>>>>>>e9><99>44%01411191199<994>>14>>>%e%040r4>>>>1111eerrrr% ",
" X1>>>3>>9%39>4>0%4%%4>1<<<9919<919>>4->4441%414>>>>>>1e999rrr> ",
" X1>>>993r1914>4041111e41%<9991914>>>>>-%%044141>>>>>444e%-rrr- ",
" #1>>99939191>4>%49%49111<1<199e>>>>%>%>044%4%4%>>>%4>44%>9399@ ",
" $4>w9993399222>>92492>>1>>141e%4%04%%%4404%4%%0>%4>>111>99<66% ",
" $www49939332222242222>>>>>><4%4400044004444%40%4%>>>>199<9<66% ",
" $ewrr99>>93222222>*2222>>>>>>>1000%40040%>444044>9>>19r999933@ ",
" $wrrrr42>>322222>->>2229%1>>>>e0040%4ee444%%4%4>9199eerr<<933- ",
" >rrrr94>>>>33-2------>319440%000%441111444%%%e04%1e19rrrrrre3@ ",
" %91rr143>>>3333------334e9944%0040%%>91%444444044411errrrrrrr- ",
" X4>9rre>3-2333%---$-23919444444e04%4444%444ww441441199rrrr73e- ",
" %4444rre--333---$-$-2e394%4%4404%404>4%41400e1400%49911ee3373@ ",
" #<111rre911933%$-$939392>>>=44%%044%444%0ere00000199111424999# ",
" X111ee1999939---$--3333>>>-=404%0e4>40404er41ee01e1111142>499$ ",
" X>11e11999933>-**>>32233>--=w>>0e0%ww00041ee111e001<%11494>99$ ",
" X<91011199933<%>>2322222>--===>4%4rwww0411%441010e111<144e499% ",
" +1e1444199<<<>>===4442>>2----->>>%4r004111411e11000<11<1<3999@ ",
" $%411w099<9<<>3===444>23>2---->>%444er%114111114%00<999999393@ ",
" $e4ee0rrr<<>><-44=4=4>e-3332>>->>444ee44%4411411e01<<9999993<@ ",
" $wrrrrrrr<%><<<=44=44>>---33>->>>%4ee4441%%441119e19<39999399X ",
" #rrrrrrrre322333>><<<<-4>%44>4%>>4eee4411>4>411119r3999999919@ ",
" >rrrrrrrr<-233233<<<<-->14>>>>>94eee0%41>111>11991<3999999991% ",
" %rrrrrr332->2>>>>><<<--->14>>1441eee%111194111e9999939999<<99@ ",
" >rrrrr4>23->3>>>-<<<<>>>>9>>>1<44ee44411>>91199999<393<r<<<<9@ ",
" -r9wr44>>>23->>----><<>>99e>>>900e0414%>>>4944r99r191<r%>0e<>% ",
" %9eww44>>-->------->e<999419->90r%0%111>>>>44errrrr36r<44%09<X ",
" $9eww9>>--->2------>1ee9<14-->>044%414%4>>4444wrrrrrr<=4>44ee% ",
" +wwe4e3>>>33322---->>e<<>44->>>0%4%4%44%>>419e49rrrrr%<>>%44e% ",
" $wwwwrw222737333----3333-3=33>>0e%4%44%>>>11eeewrrrrrr%%4>9er% ",
" $wwwwwre723733333--3>3>>3--33>>0ee%40%44>111119rw4rrrrr>>rrer> ",
" %ewwwwre233733333>>-->>->-%-->>4e%0e4<<1111411e490eeerrr91rrr% ",
" %wwwer43333223332>--%----%--->34%4011%999>41141414440er4999rr> ",
" %r9wr44222:3-e>2------@>9%>>>><%044%1199991111141111e0493939r@ ",
" >rrre9422---3-2*>2*@3--e39>-%>>%444119911>>14%4111e09e%3939<1@ ",
" >rree4422:-3---*222e33e39>>>->>414%41999%e>>44>111111939333<-X ",
" %rreee22332232->---23ee3->>>991%0441911<1ee>>>41111<99333<r>-X ",
" -rrreee22ee222-><>><er91<<>>>1re41140www000>11>11%ee191919e%%X ",
" -rrrreeeee22e332293399r11>><<19ee4144w0w0ee1111%e1re1999919e>X ",
" %rrrrreee72777733>999e9r<>>%999e%%14440wwe111119119eee991r99eX ",
" -rrrrr7772277779393999rr99%<9<6r1441%4ewwe191999>19err99rre99% ",
" -rrrr7w94>32393393994e999<9-<1ree4%>404rww41991<>%1er9errrr94$ ",
" -rrre7w1>49394e9993ew499<39<<1119914errrrrr99e>>1444999errrre$ ",
" %r337ee192>22ww9>4w4w009993916<49e91rrrr9wrr999>11%%91949rrrr% ",
" -333e37e13>27rw9r94e4e099399<<<41919rrr994wrrere%4ee11991rrrr> ",
" @3339991119rrrrrrr9911ee911000%>4>9rrr1999999r9e94er7779<6rrr< ",
" @33933<1>999rrrrr911141er110%441%4rrre939993r992eee237399<<6r% ",
" -3339<<>>>>99rrr91>11114er4000411e9ee1e939>9e>122e>-377<9<9e6= ",
" %333<-->%->919r1991<14%%e100000119914%499>34>1<222--2739<1936@ ",
" %r3<<3-%->399<9199944%4re1ee1e04199444%>>>>---->>----23332333@ ",
" <rr<<r<-%<9<9<99191444e1ee4190%>191%444>->-----2%-----333>3=3> ",
" ===--%-@@@@@@%<++++++%%%$%%%%%+XX+%+X+XXX.X..##.#..XXX##X#..%@ ",
"                                                                "
};
