/* XPM */
static char * Basic_wall_xpm[] = {
"64 64 2 1",
" 	c #000000",
".	c #FFFFFF",
"                                                                ",
"                                                                ",
"                                                                ",
"                                                                ",
"    ........................................................    ",
"    ........................................................    ",
"    ........................................................    ",
"    ........................................................    ",
"    ........................................................    ",
"    ........................................................    ",
"    ........................................................    ",
"    ........................................................    ",
"    ........................................................    ",
"    ........................................................    ",
"    ........................................................    ",
"    ........................................................    ",
"    ........................................................    ",
"    ........................................................    ",
"    ........................................................    ",
"    ........................................................    ",
"    ........................................................    ",
"    ........................................................    ",
"    ........................................................    ",
"    ........................................................    ",
"    ........................................................    ",
"    ........................................................    ",
"    ........................................................    ",
"    ........................................................    ",
"    ........................................................    ",
"    ........................................................    ",
"    ........................................................    ",
"    ........................................................    ",
"    ........................................................    ",
"    ........................................................    ",
"    ........................................................    ",
"    ........................................................    ",
"    ........................................................    ",
"    ........................................................    ",
"    ........................................................    ",
"    ........................................................    ",
"    ........................................................    ",
"    ........................................................    ",
"    ........................................................    ",
"    ........................................................    ",
"    ........................................................    ",
"    ........................................................    ",
"    ........................................................    ",
"    ........................................................    ",
"    ........................................................    ",
"    ........................................................    ",
"    ........................................................    ",
"    ........................................................    ",
"    ........................................................    ",
"    ........................................................    ",
"    ........................................................    ",
"    ........................................................    ",
"    ........................................................    ",
"    ........................................................    ",
"    ........................................................    ",
"    ........................................................    ",
"                                                                ",
"                                                                ",
"                                                                ",
"                                                                "};
