/* XPM */
static char * east_xpm[] = {
"64 64 65 1",
" 	c #000000",
".	c #FFFFFF",
"+	c #727272",
"@	c #949494",
"#	c #888888",
"$	c #474747",
"%	c #FCFCFC",
"&	c #E6E6E6",
"*	c #404040",
"=	c #656565",
"-	c #B8B8B8",
";	c #FAFAFA",
">	c #FBFBFB",
",	c #D1D1D1",
"'	c #F0F0F0",
")	c #323232",
"!	c #6D6D6D",
"~	c #D5D5D5",
"{	c #515151",
"]	c #BDBDBD",
"^	c #F8F8F8",
"/	c #F2F2F2",
"(	c #C2C2C2",
"_	c #D0D0D0",
":	c #4D4D4D",
"<	c #DEDEDE",
"[	c #979797",
"}	c #C0C0C0",
"|	c #EDEDED",
"1	c #686868",
"2	c #D3D3D3",
"3	c #EFEFEF",
"4	c #222222",
"5	c #F5F5F5",
"6	c #555555",
"7	c #B2B2B2",
"8	c #B6B6B6",
"9	c #E3E3E3",
"0	c #353535",
"a	c #7D7D7D",
"b	c #C5C5C5",
"c	c #9F9F9F",
"d	c #4B4B4B",
"e	c #A9A9A9",
"f	c #F6F6F6",
"g	c #A8A8A8",
"h	c #9B9B9B",
"i	c #C3C3C3",
"j	c #777777",
"k	c #EEEEEE",
"l	c #8A8A8A",
"m	c #424242",
"n	c #E9E9E9",
"o	c #D6D6D6",
"p	c #8E8E8E",
"q	c #ECECEC",
"r	c #A2A2A2",
"s	c #8B8B8B",
"t	c #909090",
"u	c #B4B4B4",
"v	c #818181",
"w	c #383838",
"x	c #565656",
"y	c #A1A1A1",
"z	c #F4F4F4",
"                                                                ",
"                                                                ",
"                                                                ",
"                                                                ",
"    ........................................................    ",
"    ........................................................    ",
"    ........................................................    ",
"    ........................................................    ",
"    ........................................................    ",
"    ........................................................    ",
"    ........................................................    ",
"    ........................................................    ",
"    ........................................................    ",
"    ........................................................    ",
"    ........................................................    ",
"    ........................................................    ",
"    ........................................................    ",
"    ........................................................    ",
"    ........................................................    ",
"    ........................................................    ",
"    ........................................................    ",
"    ........................................................    ",
"    ........................................................    ",
"    ........................................................    ",
"    ........................................................    ",
"    ........................................................    ",
"    .............+    @....#$%...&#*=-;>       ,............    ",
"    .............+,.......')!~..%{]^/(_....:<...............    ",
"    .............+,.......][}@..| %........:<...............    ",
"    .............+,.......12345.>67|.......:<...............    ",
"    .............+    8..90;.ab..|c{def....:<...............    ",
"    .............+,......gh..ij.....kl[....:<...............    ",
"    .............+,.....>m     n.....o6....:<...............    ",
"    .............+,.....2{%...p7qr&>3s@....:<...............    ",
"    .............+    j.tu....o6%2vwxyz....:<...............    ",
"    ........................................................    ",
"    ........................................................    ",
"    ........................................................    ",
"    ........................................................    ",
"    ........................................................    ",
"    ........................................................    ",
"    ........................................................    ",
"    ........................................................    ",
"    ........................................................    ",
"    ........................................................    ",
"    ........................................................    ",
"    ........................................................    ",
"    ........................................................    ",
"    ........................................................    ",
"    ........................................................    ",
"    ........................................................    ",
"    ........................................................    ",
"    ........................................................    ",
"    ........................................................    ",
"    ........................................................    ",
"    ........................................................    ",
"    ........................................................    ",
"    ........................................................    ",
"    ........................................................    ",
"    ........................................................    ",
"                                                                ",
"                                                                ",
"                                                                ",
"                                                                "};
