/* XPM */
static char * north_xpm[] = {
"64 64 71 1",
" 	c #000000",
".	c #FFFFFF",
"+	c #727272",
"@	c #404040",
"#	c #F6F6F6",
"$	c #D4D4D4",
"%	c #7C7C7C",
"&	c #D2D2D2",
"*	c #767676",
"=	c #2E2E2E",
"-	c #535353",
";	c #AAAAAA",
">	c #F7F7F7",
",	c #4F4F4F",
"'	c #9D9D9D",
")	c #F2F2F2",
"!	c #D1D1D1",
"~	c #6D6D6D",
"{	c #4B4B4B",
"]	c #B4B4B4",
"^	c #C9C9C9",
"/	c #474747",
"(	c #F8F8F8",
"_	c #ECECEC",
":	c #919191",
"<	c #797979",
"[	c #FCFCFC",
"}	c #828282",
"|	c #A7A7A7",
"1	c #4D4D4D",
"2	c #DEDEDE",
"3	c #BEBEBE",
"4	c #F4F4F4",
"5	c #FBFBFB",
"6	c #CECECE",
"7	c #565656",
"8	c #CBCBCB",
"9	c #C1C1C1",
"0	c #7E7E7E",
"a	c #D6D6D6",
"b	c #A3A3A3",
"c	c #AFAFAF",
"d	c #E3E3E3",
"e	c #F9F9F9",
"f	c #9B9B9B",
"g	c #818181",
"h	c #ADADAD",
"i	c #EFEFEF",
"j	c #3D3D3D",
"k	c #D8D8D8",
"l	c #3B3B3B",
"m	c #BBBBBB",
"n	c #898989",
"o	c #888888",
"p	c #A8A8A8",
"q	c #E2E2E2",
"r	c #E5E5E5",
"s	c #DCDCDC",
"t	c #454545",
"u	c #C5C5C5",
"v	c #C7C7C7",
"w	c #EDEDED",
"x	c #FAFAFA",
"y	c #DADADA",
"z	c #383838",
"A	c #D0D0D0",
"B	c #757575",
"C	c #2A2A2A",
"D	c #515151",
"E	c #B9B9B9",
"F	c #848484",
"                                                                ",
"                                                                ",
"                                                                ",
"                                                                ",
"    ........................................................    ",
"    ........................................................    ",
"    ........................................................    ",
"    ........................................................    ",
"    ........................................................    ",
"    ........................................................    ",
"    ........................................................    ",
"    ........................................................    ",
"    ........................................................    ",
"    ........................................................    ",
"    ........................................................    ",
"    ........................................................    ",
"    ........................................................    ",
"    ........................................................    ",
"    ........................................................    ",
"    ........................................................    ",
"    ........................................................    ",
"    ........................................................    ",
"    ........................................................    ",
"    ........................................................    ",
"    ........................................................    ",
"    ........................................................    ",
"    ........+@#..$%...&*=-;>..+  ,')       !+!...$~.........    ",
"    ........+{]..$%..^/$(_:<[.+!.)}|...12...+!...$~.........    ",
"    ........+3@4.$%.5/6...578.+!..90...12...+!...$~.........    ",
"    ........+abc.$%.d e....;f.+!.)gh...12...+!...$~.........    ",
"    ........+aij)$%.kl.....mn.+   o5...12...+     ~.........    ",
"    ........+a.;p$%.q e....;f.+!.r1s...12...+!...$~.........    ",
"    ........+a.)l3%.5t6...578.+!..u+...12...+!...$~.........    ",
"    ........+a..c{%..v/$(w:*5.+!..x{y..12...+!...$~.........    ",
"    ........+a..4z%...ABCDp#..+!...EF..12...+!...$~.........    ",
"    ........................................................    ",
"    ........................................................    ",
"    ........................................................    ",
"    ........................................................    ",
"    ........................................................    ",
"    ........................................................    ",
"    ........................................................    ",
"    ........................................................    ",
"    ........................................................    ",
"    ........................................................    ",
"    ........................................................    ",
"    ........................................................    ",
"    ........................................................    ",
"    ........................................................    ",
"    ........................................................    ",
"    ........................................................    ",
"    ........................................................    ",
"    ........................................................    ",
"    ........................................................    ",
"    ........................................................    ",
"    ........................................................    ",
"    ........................................................    ",
"    ........................................................    ",
"    ........................................................    ",
"    ........................................................    ",
"                                                                ",
"                                                                ",
"                                                                ",
"                                                                "};
