/* XPM */
static char * south_xpm[] = {
"64 64 86 1",
" 	c #000000",
".	c #FFFFFF",
"+	c #E6E6E6",
"@	c #888888",
"#	c #404040",
"$	c #656565",
"%	c #B8B8B8",
"&	c #FAFAFA",
"*	c #D2D2D2",
"=	c #767676",
"-	c #2E2E2E",
";	c #535353",
">	c #AAAAAA",
",	c #F7F7F7",
"'	c #3B3B3B",
")	c #E3E3E3",
"!	c #C3C3C3",
"~	c #8C8C8C",
"{	c #FBFBFB",
"]	c #D1D1D1",
"^	c #727272",
"/	c #D4D4D4",
"(	c #6D6D6D",
"_	c #FCFCFC",
":	c #515151",
"<	c #BDBDBD",
"[	c #F8F8F8",
"}	c #F2F2F2",
"|	c #C2C2C2",
"1	c #D0D0D0",
"2	c #C9C9C9",
"3	c #474747",
"4	c #ECECEC",
"5	c #919191",
"6	c #797979",
"7	c #4D4D4D",
"8	c #DEDEDE",
"9	c #EDEDED",
"0	c #CECECE",
"a	c #565656",
"b	c #CBCBCB",
"c	c #555555",
"d	c #B2B2B2",
"e	c #F9F9F9",
"f	c #9B9B9B",
"g	c #9F9F9F",
"h	c #4B4B4B",
"i	c #A9A9A9",
"j	c #F6F6F6",
"k	c #D8D8D8",
"l	c #BBBBBB",
"m	c #898989",
"n	c #EEEEEE",
"o	c #8A8A8A",
"p	c #979797",
"q	c #E2E2E2",
"r	c #E0E0E0",
"s	c #C0C0C0",
"t	c #D6D6D6",
"u	c #454545",
"v	c #777777",
"w	c #CDCDCD",
"x	c #A7A7A7",
"y	c #ABABAB",
"z	c #A2A2A2",
"A	c #EFEFEF",
"B	c #8B8B8B",
"C	c #949494",
"D	c #C7C7C7",
"E	c #6E6E6E",
"F	c #E9E9E9",
"G	c #DCDCDC",
"H	c #FEFEFE",
"I	c #D3D3D3",
"J	c #818181",
"K	c #383838",
"L	c #A1A1A1",
"M	c #F4F4F4",
"N	c #757575",
"O	c #2A2A2A",
"P	c #A8A8A8",
"Q	c #FDFDFD",
"R	c #BCBCBC",
"S	c #666666",
"T	c #353535",
"U	c #737373",
"                                                                ",
"                                                                ",
"                                                                ",
"                                                                ",
"    ........................................................    ",
"    ........................................................    ",
"    ........................................................    ",
"    ........................................................    ",
"    ........................................................    ",
"    ........................................................    ",
"    ........................................................    ",
"    ........................................................    ",
"    ........................................................    ",
"    ........................................................    ",
"    ........................................................    ",
"    ........................................................    ",
"    ........................................................    ",
"    ........................................................    ",
"    ........................................................    ",
"    ........................................................    ",
"    ........................................................    ",
"    ........................................................    ",
"    ........................................................    ",
"    ........................................................    ",
"    ........................................................    ",
"    ........................................................    ",
"    ........+@#$%&...*=-;>,..')...!~{       ]^].../(........    ",
"    ......._:<[}|1..23/[456_.')...!~....78...^].../(........    ",
"    .......9 _.....{30...{ab.')...!~....78...^].../(........    ",
"    .......{cd9....) e....>f.')...!~....78...^].../(........    ",
"    ........9g:hij.k'.....lm.')...!~....78...^     (........    ",
"    ...........nop.q e....>f.3r...s5....78...^].../(........    ",
"    ............tc.{u0...{ab.vw...xy....78...^].../(........    ",
"    .......4z+{ABC..D3/[95={.|EF{G'q....78...^].../(........    ",
"    .......HIJKaLM...1NO:Pj..QRSTU*.....78...^].../(........    ",
"    ........................................................    ",
"    ........................................................    ",
"    ........................................................    ",
"    ........................................................    ",
"    ........................................................    ",
"    ........................................................    ",
"    ........................................................    ",
"    ........................................................    ",
"    ........................................................    ",
"    ........................................................    ",
"    ........................................................    ",
"    ........................................................    ",
"    ........................................................    ",
"    ........................................................    ",
"    ........................................................    ",
"    ........................................................    ",
"    ........................................................    ",
"    ........................................................    ",
"    ........................................................    ",
"    ........................................................    ",
"    ........................................................    ",
"    ........................................................    ",
"    ........................................................    ",
"    ........................................................    ",
"    ........................................................    ",
"                                                                ",
"                                                                ",
"                                                                ",
"                                                                "};
