/* XPM */
static char * west_xpm[] = {
"64 64 87 1",
" 	c #000000",
".	c #FFFFFF",
"+	c #C0C0C0",
"@	c #929292",
"#	c #696969",
"$	c #D4D4D4",
"%	c #727272",
"&	c #949494",
"*	c #E6E6E6",
"=	c #888888",
"-	c #404040",
";	c #656565",
">	c #B8B8B8",
",	c #FAFAFA",
"'	c #FBFBFB",
")	c #D1D1D1",
"!	c #E3E3E3",
"~	c #424242",
"{	c #FEFEFE",
"]	c #F4F4F4",
"^	c #626262",
"/	c #555555",
"(	c #F3F3F3",
"_	c #FCFCFC",
":	c #515151",
"<	c #BDBDBD",
"[	c #F8F8F8",
"}	c #F2F2F2",
"|	c #C2C2C2",
"1	c #D0D0D0",
"2	c #4D4D4D",
"3	c #DEDEDE",
"4	c #353535",
"5	c #E7E7E7",
"6	c #D5D5D5",
"7	c #A5A5A5",
"8	c #878787",
"9	c #686868",
"0	c #EDEDED",
"a	c #898989",
"b	c #C5C5C5",
"c	c #ADADAD",
"d	c #CECECE",
"e	c #A6A6A6",
"f	c #B2B2B2",
"g	c #BBBBBB",
"h	c #989898",
"i	c #767676",
"j	c #EEEEEE",
"k	c #DCDCDC",
"l	c #B6B6B6",
"m	c #9F9F9F",
"n	c #4B4B4B",
"o	c #A9A9A9",
"p	c #F6F6F6",
"q	c #DFDFDF",
"r	c #4F4F4F",
"s	c #F7F7F7",
"t	c #585858",
"u	c #F9F9F9",
"v	c #535353",
"w	c #161616",
"x	c #F0F0F0",
"y	c #8A8A8A",
"z	c #979797",
"A	c #262626",
"B	c #C1C1C1",
"C	c #9B9B9B",
"D	c #787878",
"E	c #5D5D5D",
"F	c #D6D6D6",
"G	c #828282",
"H	c #C7C7C7",
"I	c #AEAEAE",
"J	c #A0A0A0",
"K	c #ECECEC",
"L	c #A2A2A2",
"M	c #EFEFEF",
"N	c #8B8B8B",
"O	c #E8E8E8",
"P	c #CBCBCB",
"Q	c #777777",
"R	c #D3D3D3",
"S	c #818181",
"T	c #383838",
"U	c #565656",
"V	c #A1A1A1",
"                                                                ",
"                                                                ",
"                                                                ",
"                                                                ",
"    ........................................................    ",
"    ........................................................    ",
"    ........................................................    ",
"    ........................................................    ",
"    ........................................................    ",
"    ........................................................    ",
"    ........................................................    ",
"    ........................................................    ",
"    ........................................................    ",
"    ........................................................    ",
"    ........................................................    ",
"    ........................................................    ",
"    ........................................................    ",
"    ........................................................    ",
"    ........................................................    ",
"    ........................................................    ",
"    ........................................................    ",
"    ........................................................    ",
"    ........................................................    ",
"    ........................................................    ",
"    ........................................................    ",
"    ........................................................    ",
"    ..........+@...#@...#$.%    &..*=-;>,'       )..........    ",
"    ..........!~{.]^/{.] (.%)....._:<[}|1....23.............    ",
"    .........._45.6785.69..%).....0 _........23.............    ",
"    ...........ab.cd>b.ce..%).....'/f0.......23.............    ",
"    ...........gh.ijkh.i1..%    l..0m:nop....23.............    ",
"    ...........qrst.uvswx..%).........jyz....23.............    ",
"    ...........'ABC..DBE...%)..........F/....23.............    ",
"    ............GvH..IvJ...%).....KL*'MN&....23.............    ",
"    ............l O..6 P...%    Q.{RSTUV]....23.............    ",
"    ........................................................    ",
"    ........................................................    ",
"    ........................................................    ",
"    ........................................................    ",
"    ........................................................    ",
"    ........................................................    ",
"    ........................................................    ",
"    ........................................................    ",
"    ........................................................    ",
"    ........................................................    ",
"    ........................................................    ",
"    ........................................................    ",
"    ........................................................    ",
"    ........................................................    ",
"    ........................................................    ",
"    ........................................................    ",
"    ........................................................    ",
"    ........................................................    ",
"    ........................................................    ",
"    ........................................................    ",
"    ........................................................    ",
"    ........................................................    ",
"    ........................................................    ",
"    ........................................................    ",
"    ........................................................    ",
"                                                                ",
"                                                                ",
"                                                                ",
"                                                                "};
