/* XPM */
static char * fire_3_xpm[] = {
"64 64 386 2",
"  	c None",
". 	c #CCCCCC",
"+ 	c #8C898D",
"@ 	c #938D8F",
"# 	c #AEAEAE",
"$ 	c #959092",
"% 	c #918C8E",
"& 	c #9C9A9C",
"* 	c #A4A2A3",
"= 	c #A7A5A6",
"- 	c #928D8F",
"; 	c #A3A2A3",
"> 	c #A4A2A2",
", 	c #C3C5C6",
"' 	c #AEAEAF",
") 	c #A7A7A8",
"! 	c #8E8A8D",
"~ 	c #8F8D91",
"{ 	c #969294",
"] 	c #949093",
"^ 	c #908B8E",
"/ 	c #918C8F",
"( 	c #8D8A8D",
"_ 	c #B9B9B9",
": 	c #B3B3B4",
"< 	c #CACACB",
"[ 	c #979294",
"} 	c #B7BABD",
"| 	c #A6A3A5",
"1 	c #A4A1A4",
"2 	c #AEAEAD",
"3 	c #938E90",
"4 	c #999496",
"5 	c #979293",
"6 	c #CACACA",
"7 	c #9D999B",
"8 	c #928C8F",
"9 	c #C6C6C6",
"0 	c #B9BBBC",
"a 	c #C5C5C5",
"b 	c #A9A8A8",
"c 	c #9E9A9B",
"d 	c #ADADAE",
"e 	c #ACADAD",
"f 	c #ACACAD",
"g 	c #ACADAC",
"h 	c #AAABAC",
"i 	c #9D989A",
"j 	c #C2C1C2",
"k 	c #BDBCBC",
"l 	c #9B9698",
"m 	c #A9A9A9",
"n 	c #B72A18",
"o 	c #C12204",
"p 	c #C1C1C1",
"q 	c #A09FA0",
"r 	c #B8B6B7",
"s 	c #BCBBBB",
"t 	c #B52C1E",
"u 	c #ADAAAB",
"v 	c #A19D9E",
"w 	c #B42F26",
"x 	c #9E999A",
"y 	c #A19C9E",
"z 	c #B62B1B",
"A 	c #F0DA29",
"B 	c #E1B521",
"C 	c #C8C8C8",
"D 	c #C12203",
"E 	c #9A9597",
"F 	c #FAF02E",
"G 	c #E5C023",
"H 	c #999597",
"I 	c #A9AAAB",
"J 	c #C5C4C5",
"K 	c #C0BFBF",
"L 	c #BA2712",
"M 	c #EED528",
"N 	c #DAA11C",
"O 	c #CC6D10",
"P 	c #BE2408",
"Q 	c #BB260D",
"R 	c #BE2306",
"S 	c #CB4D26",
"T 	c #D65D2F",
"U 	c #FAF7CF",
"V 	c #F8F3A7",
"W 	c #F7ED2F",
"X 	c #D7A01D",
"Y 	c #D45A2D",
"Z 	c #E36E39",
"` 	c #FFFEF9",
" .	c #FDF9C8",
"..	c #D55A2D",
"+.	c #F4D4C9",
"@.	c #D04C23",
"#.	c #BB2818",
"$.	c #C73715",
"%.	c #E19B8A",
"&.	c #EFBAAB",
"*.	c #F3D0A2",
"=.	c #C12104",
"-.	c #C12102",
";.	c #C12205",
">.	c #CF4C23",
",.	c #F1D4CA",
"'.	c #F1C933",
").	c #C83916",
"!.	c #D6592C",
"~.	c #CE4921",
"{.	c #DEAD1F",
"].	c #E2932F",
"^.	c #F4E38A",
"/.	c #FCF6A9",
"(.	c #EDB135",
"_.	c #CE7872",
":.	c #E9CCC7",
"<.	c #DE9587",
"[.	c #C63312",
"}.	c #C93B18",
"|.	c #EFD829",
"1.	c #F5EC30",
"2.	c #CF7F79",
"3.	c #EFBAAA",
"4.	c #DC6433",
"5.	c #436072",
"6.	c #B0B6B8",
"7.	c #E9B2A2",
"8.	c #CE7812",
"9.	c #EDB235",
"0.	c #BB250C",
"a.	c #C5411F",
"b.	c #DF6E3B",
"c.	c #D65F31",
"d.	c #C8421E",
"e.	c #C23213",
"f.	c #E19682",
"g.	c #E7A490",
"h.	c #78535F",
"i.	c #BAAE9D",
"j.	c #F9F6D5",
"k.	c #E5AE8D",
"l.	c #F0D333",
"m.	c #DEA928",
"n.	c #B62C20",
"o.	c #BA2815",
"p.	c #CA7615",
"q.	c #E8AF37",
"r.	c #C53C1A",
"s.	c #F9E9E1",
"t.	c #E8AA37",
"u.	c #CE7813",
"v.	c #D85B2D",
"w.	c #CC431E",
"x.	c #F7E299",
"y.	c #DDA029",
"z.	c #E7A830",
"A.	c #CA3F1B",
"B.	c #C02206",
"C.	c #E3B921",
"D.	c #EACD64",
"E.	c #E3AE87",
"F.	c #C73614",
"G.	c #B22C1F",
"H.	c #F5DD30",
"I.	c #D5981C",
"J.	c #F6E72C",
"K.	c #FBF37F",
"L.	c #DDABA6",
"M.	c #C32A0B",
"N.	c #FEFBE1",
"O.	c #E9AB36",
"P.	c #E9CBC7",
"Q.	c #E46E39",
"R.	c #FBF380",
"S.	c #F6DE30",
"T.	c #E36E38",
"U.	c #B9260E",
"V.	c #C32809",
"W.	c #D45429",
"X.	c #C32B0B",
"Y.	c #FAF159",
"Z.	c #E9AC5A",
"`.	c #EBCDC7",
" +	c #C83B18",
".+	c #DC7B2D",
"++	c #E89537",
"@+	c #F9EE75",
"#+	c #FAEAE3",
"$+	c #FAEFB0",
"%+	c #FAF03A",
"&+	c #C42E0F",
"*+	c #FDFBE1",
"=+	c #F5DC31",
"-+	c #FAF15B",
";+	c #EAA18B",
">+	c #E8C465",
",+	c #E4BA23",
"'+	c #DC812B",
")+	c #F8E999",
"!+	c #FBF274",
"~+	c #F3DDBA",
"{+	c #FAEBC9",
"]+	c #EFBB34",
"^+	c #D7941E",
"/+	c #EDCFC8",
"(+	c #B9270F",
"_+	c #F5DD31",
":+	c #F9F5C9",
"<+	c #C02205",
"[+	c #DA5F2F",
"}+	c #E58E34",
"|+	c #F8E52F",
"1+	c #FAEFA9",
"2+	c #F8EA2E",
"3+	c #DF6835",
"4+	c #D6572A",
"5+	c #C5300F",
"6+	c #E07832",
"7+	c #E68438",
"8+	c #FCF59F",
"9+	c #FFFCEA",
"0+	c #FCFBF1",
"a+	c #FAF25F",
"b+	c #FAF150",
"c+	c #DCA31F",
"d+	c #F4E12B",
"e+	c #FBF3C8",
"f+	c #E18731",
"g+	c #ECAD35",
"h+	c #F9EA2F",
"i+	c #D75B2D",
"j+	c #DD6433",
"k+	c #FCFBF6",
"l+	c #F9EB68",
"m+	c #D8951E",
"n+	c #FAF048",
"o+	c #FDFAD3",
"p+	c #F6E130",
"q+	c #D66B27",
"r+	c #F8E92F",
"s+	c #FAFAF5",
"t+	c #FAF280",
"u+	c #F7E530",
"v+	c #ECB235",
"w+	c #F4D4AA",
"x+	c #FBF37E",
"y+	c #F9ED2F",
"z+	c #DFA127",
"A+	c #F9EAC8",
"B+	c #E1932F",
"C+	c #EFC25D",
"D+	c #FDFBDD",
"E+	c #FDF9CC",
"F+	c #FCF7B6",
"G+	c #ECB135",
"H+	c #C02204",
"I+	c #E79537",
"J+	c #FEFBE2",
"K+	c #F9EC2E",
"L+	c #F6DD30",
"M+	c #F9EBA9",
"N+	c #EDB181",
"O+	c #E99C36",
"P+	c #F8EB2D",
"Q+	c #F7E476",
"R+	c #FEFDF0",
"S+	c #DE6634",
"T+	c #ECC92B",
"U+	c #F7E249",
"V+	c #FCF7BC",
"W+	c #EDB4A3",
"X+	c #EAA07D",
"Y+	c #F0C25C",
"Z+	c #FAF380",
"`+	c #FEFCEC",
" @	c #FAECE3",
".@	c #FAEBCE",
"+@	c #EFC033",
"@@	c #E47738",
"#@	c #E99A82",
"$@	c #FFFDF0",
"%@	c #FEFEF8",
"&@	c #E58038",
"*@	c #B72810",
"=@	c #BF2306",
"-@	c #DA6434",
";@	c #E38666",
">@	c #EFC6B8",
",@	c #F3DAB7",
"'@	c #F9F4B7",
")@	c #F1D0B8",
"!@	c #F0CBB7",
"~@	c #F9F4B0",
"{@	c #F9F4B3",
"]@	c #FAF9EA",
"^@	c #F6F5DE",
"/@	c #FAF7D0",
"(@	c #F9F5C1",
"_@	c #F9F3A7",
":@	c #D46C2A",
"<@	c #D9862A",
"[@	c #F0D233",
"}@	c #ECBD35",
"|@	c #E38339",
"1@	c #B72711",
"2@	c #E68360",
"3@	c #FEFDF8",
"4@	c #C7540B",
"5@	c #FAECE5",
"6@	c #FAF273",
"7@	c #F7F2A9",
"8@	c #F5E8E2",
"9@	c #F5E9CD",
"0@	c #F7E52F",
"a@	c #E78E37",
"b@	c #FFFEF7",
"c@	c #FBF0B6",
"d@	c #F8F3B6",
"e@	c #FEFDF4",
"f@	c #F8EFE2",
"g@	c #F4E6E1",
"h@	c #FEFCF7",
"i@	c #FDFAE1",
"j@	c #FBF4F0",
"k@	c #D25127",
"l@	c #D95E2F",
"m@	c #FEFCE2",
"n@	c #FFFEF3",
"o@	c #F7E0A9",
"p@	c #F7E65B",
"q@	c #FDF8C8",
"r@	c #FEFBDD",
"s@	c #FDFAE0",
"t@	c #E2A828",
"u@	c #FAF0C1",
"v@	c #DE8B2C",
"w@	c #B9270E",
"x@	c #FAF27F",
"y@	c #FDF7BC",
"z@	c #FAF7D3",
"A@	c #FAECE1",
"B@	c #F0C533",
"C@	c #FAEF2E",
"D@	c #EFC034",
"E@	c #CA4D17",
"F@	c #C53917",
"G@	c #DC6735",
"H@	c #E7AE33",
"I@	c #F3E52D",
"J@	c #F7EEA7",
"K@	c #F8F188",
"L@	c #F7EE4E",
"M@	c #E27C55",
"N@	c #EBB552",
"O@	c #F7F4CA",
"P@	c #FBFAEE",
"Q@	c #FBFBF1",
"R@	c #F6E7DF",
"S@	c #E27A39",
"T@	c #EECA33",
"U@	c #EAB036",
"V@	c #E06E3A",
"W@	c #C63C1A",
"X@	c #BF2307",
"Y@	c #D6871F",
"Z@	c #F7EB2D",
"`@	c #EACDA7",
" #	c #F3E287",
".#	c #E9CCC6",
"+#	c #F5E6B5",
"@#	c #F5DA31",
"##	c #F9ED2E",
"$#	c #E2942F",
"%#	c #C63615",
"&#	c #E28832",
"*#	c #E89437",
"=#	c #F0C15C",
"-#	c #F9F4B5",
";#	c #FEFBE3",
">#	c #FAF3E2",
",#	c #F4E7E2",
"'#	c #FBF5F0",
")#	c #F1DB2A",
"!#	c #C42E0E",
"~#	c #F9F39F",
"                                                .                                                                               ",
"                                                .                                                                               ",
"                                                            + @ # #       @ $           @                                       ",
"                                          %         @     @ & * # = @             @       @ @     @                             ",
"                    . .                 @ %       - @     @ ; # # > @           @ @       @ @     @                             ",
"                                      , ' ) ! !             ~ { { ]           ! ^ / ! (                                         ",
"                                      . _ : @ @             + @ @             @ @ @ @ @                                         ",
"                                        . < @ @                                 @ @ @ @           @                             ",
"                                [ #       } |       @                             | 1       @     |                             ",
"                              @ [ # 2             - @                                     @ @                                   ",
"                              @ 3 4 5 @                   .               . 6           # 7 @     #                             ",
"                              @ 8 @ @ @                   9 0             9 a           b c @     #                             ",
"                    @ @           @ @             d #     # e #           # e           @                                       ",
"                                  %                 f   g f h f           f             %                                       ",
"                                                      # #             # #                                                       ",
"                                  .                                                         . i @ @                             ",
"                                  j j                                                     k j l @ @                             ",
"                              # m @ @       . .             n o           . p @         @ @ @ @ @                               ",
"                              * q @         r s             t o           . s @         @ @ @ @                                 ",
"                              @ ^           @ u . v @       w o o o           @                                                 ",
"                                      o       x y           z o A B o           @ @         # C j @                             ",
"                                      D         E           n o F G o           E H       I I J K E                             ",
"                                                            n o F G o o o                     @ @                               ",
"                                                            L o F M N O o                     @                                 ",
"                                            @ @           o P o F F F N o     o         o                                       ",
"                                      Q                   R S T U V W X R               R                                       ",
"                                      o                   o Y Z `  .F N o               o                                       ",
"                                  o o o               o o o ..Z ` +.Z @.o           #.o o o o                                   ",
"                                  o o o               o $.@.%.&. .*.Z @.=.          #.o o o o -.                                ",
"                                  o o o         o ;.o o >.Z ,.` F '.Z >.o               o o o o o                               ",
"                                ).!.~.o         o {.G !.].'.^./.(.].>.$.o           #._.:.<.!.[.o                               ",
"                              o }.Z !.o         o |.F Z (.F 1.F Z !.o o o           #.2.` 3.Z }.o                               ",
"                              o }.Z !.o     o o o 4.Z 5.6.` 7.Z F G o         o     #.8.F 9.Z }.o                               ",
"                              0.a.b.c.d.    P e.d.f.g.h.i.j.k.b.l.m.P n.      P n.  o.p.1.q.b.r.P                               ",
"                                  Z Z Z     o >.Z s.` o N F t.Z Z !.o o o     o o o o u.F 9.Z }.o                               ",
"                        o         >.v.Z w.o o >.Z x./.o N F y.>.'.z.!.A.o o B.o o o C.D. .E.>.F.                                ",
"                        o G.      o @.Z }.o o >.Z H.F o N F I.o F '.Z @.o o o o o o J.K.` L.o                                   ",
"                              o o o @.Z }.M.Z (.F N.` F F F O.Z ` P.o !.Q.F R.` /.F F S.T.@.o     o U.                          ",
"                              o V.}.W.Z }.X.Z (.F N.` F Y.K.Z.Z ` `. +.+++F @+#+$+K.%+S.Z @.o     o                             ",
"                              o }.Z Z Z  +&+Z (.F *+` F /.` 7.Z ` +.Z '.F F =+Z +.` -+S.Z @.o                                   ",
"                            o o }.Z ;++.>+,+>.'+(.)+/.F !+/.~++.` {+'.]+(.N ^+>./+` -+S.Z @.o                                   ",
"                          (+o o }.Z 3.` K.J.o >.Z _+F F F F :+` `  .F (.Z o <+o :.` -+S.Z @.o                                   ",
"                          (+o [+}+|+1+` K.2+3+4+5+6+7+F 8+9+0+` a+b+F c+5+d+d+d+e+` -+S.Z @.o o o                               ",
"                          (+o f+g+F /.` K.h+Z !.o i+j+F /.` k+` K.l+S.m+o F n+K.o+` -+p+++q+ +V.o                               ",
"                          (+o A F F /.` K.r+Z !.o ;.o F /.` s+` ` +.Z >.o F t+` ` ` -+F F 9.Z }.o                               ",
"                          (+o A u+v+w+` x+y+'.z+o {.G F /.` s+` ` A+'.B+!.v+C+/.D+` E+F+F G+Z  +o H+                            ",
"                          (+o A S.Z 3.` K.F F G o |.F F /.` s+` `  .F (.Z Z I+F  .` ` J+F 9.Z }.o o U.                          ",
"                          (+o A K+L+M+` N+O+F J.A P+F F /.` k+` `  .F (.Z S.Q+J+R+` ` J+F 9.Z S+i+o U.                          ",
"                          (+o T+U+K.V+` W+X+F Y.K.x+K.F /.` k+` ` o+K.Y+++F Z+` `+J+ @.@F +@++@@j+o U.                          ",
"                          (+o j+#@` ` ` ` $@F /.` %@` F /.` s+` ` ` ` /.F F t+` /.F &@++F F F ++j+o U.                          ",
"                          *@=@-@;@>@,@'@)@!@~@{@'@]@k+~@{@'@^@k+k+k+k+/@~@~@(@k+_@W :@<@W [@}@|@-@=@1@                          ",
"                          (+o j+Z Z v+F ++2@`  .F *+` `  .F :+` ` ` ` ` ` ` 3@` /.F 4@u.F 9.Z Z j+o U.                          ",
"                          (+o j+Z Z v+F .@5@`  .F 6@K.` $@J+7@K.` o+K.o+` ` 3@` `+J+8@9@F 0@S.a@j+o (+                          ",
"                          (+o j+Z Z 9.F J+b@J+c@L+K+F ` ` ` d@K.`  .F  .` ` e@J+f@g@h@J+F F F ++j+o U.                          ",
"                          (+o j+Z Z v+F J+$@F '.Z _+F ` ` ` s+` `  .F  .` ` i@F N o j@J+F F F ++j+o U.                          ",
"                          (+o k@l@Z 9.F m@n@/.o@3.p@F q@r@` s+` ` r@/.r@` ` s@F t@@.u@F+F F F v@k@o w@                          ",
"                          (+o o }.Z v+F J+` ` ` ` x@F F /.` s+` ` ` ` ` ` ` i@F (.Z r+F F F F u.o o U.                          ",
"                              o }.Z v+F !+K.K.y@` K.F ++Y+K.z@` ` ` ` ` ` ` A@++B@S.C@F F D@++E@o                               ",
"                              =@F@G@H@W W W I@J@k+K@L@M@N@L@O@k+P@Q@k+Q@P@k+R@S@T@W W W W U@V@W@X@                              ",
"                              o o o N F F J.o L.` %@` ` ` ` s+` F /.` /.F ` i@F F F F F F 9.Z }.o                               ",
"                                o o Y@'.r+Z@N `@` 3@` ` ` ` s+` F  #.#+#/.` i@F @#'.##r+'.$#!.[.o                               ",
"                                  o @.Z S.F F /.` %@` ` ` ` s+` F G o :.` ` i@F (.Z r+S.Z @.o o o                               ",
"                                    %# +&#*#*#=#x+x+x+` ` ` -#x+;#>#,#'#` x+6@F 0@S.C@)# +!#o                                   ",
"                                      o j+Z Z (.F F F ` ` ` ~#F ` ` ` ` ` F F F F F F A o o o                                   "};
