/* XPM */
static char * fire_1_xpm[] = {
"64 64 253 2",
"  	c None",
". 	c #BFC1C3",
"+ 	c #CCCCCC",
"@ 	c #AEAEAE",
"# 	c #A2A5A6",
"$ 	c #A3A5A7",
"% 	c #A4A6A8",
"& 	c #BFC2C3",
"* 	c #8B888C",
"= 	c #A1A4A6",
"- 	c #938D8F",
"; 	c #A6A7A9",
"> 	c #C5C6C7",
", 	c #A9A8A8",
"' 	c #928C8F",
") 	c #918C8E",
"! 	c #928C8E",
"~ 	c #A6A8A9",
"{ 	c #A8A2A3",
"] 	c #C12204",
"^ 	c #BD250E",
"/ 	c #D04C23",
"( 	c #E36E39",
"_ 	c #C42F0F",
": 	c #C83B18",
"< 	c #E16E3A",
"[ 	c #CF4C23",
"} 	c #BE240B",
"| 	c #BF2306",
"1 	c #BE2306",
"2 	c #BD2409",
"3 	c #BB260D",
"4 	c #BB260C",
"5 	c #78525D",
"6 	c #AC5E51",
"7 	c #E06E3A",
"8 	c #C53B1A",
"9 	c #C9441F",
"0 	c #C12203",
"a 	c #436072",
"b 	c #9E6660",
"c 	c #D5592C",
"d 	c #D05027",
"e 	c #C12103",
"f 	c #9E434A",
"g 	c #B4473E",
"h 	c #D25C30",
"i 	c #C73715",
"j 	c #BF2307",
"k 	c #C58D42",
"l 	c #F1C933",
"m 	c #D9862B",
"n 	c #C93C19",
"o 	c #C02205",
"p 	c #DAA11C",
"q 	c #FAF02E",
"r 	c #D4931C",
"s 	c #DD6433",
"t 	c #BE2408",
"u 	c #D96434",
"v 	c #DF6E3B",
"w 	c #E69E38",
"x 	c #E59E38",
"y 	c #DF803B",
"z 	c #B92918",
"A 	c #E8A736",
"B 	c #C02307",
"C 	c #FDF9C8",
"D 	c #FCF5A1",
"E 	c #C0A453",
"F 	c #884E5A",
"G 	c #A24146",
"H 	c #C53A1A",
"I 	c #D6592C",
"J 	c #CA3F1B",
"K 	c #E36E38",
"L 	c #FFFEF9",
"M 	c #9FA260",
"N 	c #894E5A",
"O 	c #C83D1A",
"P 	c #CF4C24",
"Q 	c #A1AAAE",
"R 	c #E46E39",
"S 	c #E26E3A",
"T 	c #E57F38",
"U 	c #E89537",
"V 	c #E89536",
"W 	c #FAEAE3",
"X 	c #FCF2EC",
"Y 	c #B3ABAB",
"Z 	c #7C6369",
"` 	c #E68738",
" .	c #D45429",
"..	c #EDB135",
"+.	c #EFBAAA",
"@.	c #E9AF9D",
"#.	c #EEBB34",
"$.	c #EFC033",
"%.	c #EEB78A",
"&.	c #FDF8C8",
"*.	c #FAF268",
"=.	c #F4D4C9",
"-.	c #F9E6DE",
";.	c #F2DA9C",
">.	c #F7E130",
",.	c #E99B37",
"'.	c #DD6736",
").	c #F6DE30",
"!.	c #F7E430",
"~.	c #FBF37F",
"{.	c #FAF02D",
"].	c #F8F29B",
"^.	c #DA6333",
"/.	c #C83917",
"(.	c #DF6835",
"_.	c #E06A37",
":.	c #FFFDED",
"<.	c #FFFCEA",
"[.	c #FDF9CE",
"}.	c #FAF260",
"|.	c #FAF6C4",
"1.	c #F2CD32",
"2.	c #E68438",
"3.	c #E47739",
"4.	c #DB6232",
"5.	c #C93B18",
"6.	c #E47F38",
"7.	c #F7E230",
"8.	c #ECAE9C",
"9.	c #FEFAF5",
"0.	c #FDFAD3",
"a.	c #FAF7D5",
"b.	c #DC6534",
"c.	c #C42E0E",
"d.	c #ECB235",
"e.	c #FBFBF6",
"f.	c #C12205",
"g.	c #DB812C",
"h.	c #FAECB6",
"i.	c #FCF4C8",
"j.	c #F4D3C9",
"k.	c #EDB4A3",
"l.	c #F9EAE2",
"m.	c #F9EAC8",
"n.	c #F7E589",
"o.	c #C12608",
"p.	c #FAEAE2",
"q.	c #FCF6A9",
"r.	c #C2280A",
"s.	c #D85D2E",
"t.	c #E7A332",
"u.	c #F6DD30",
"v.	c #ECAB77",
"w.	c #ECAC99",
"x.	c #FDF6F0",
"y.	c #FDF7BD",
"z.	c #FBF380",
"A.	c #FDF8C2",
"B.	c #FEFBE2",
"C.	c #F7E6CA",
"D.	c #EBA736",
"E.	c #C22709",
"F.	c #E47738",
"G.	c #EFC034",
"H.	c #ECB076",
"I.	c #ECAC98",
"J.	c #FFFDF0",
"K.	c #FFFDF5",
"L.	c #FCF59A",
"M.	c #FBFAEE",
"N.	c #FAEEC3",
"O.	c #FCFADE",
"P.	c #F9EF2E",
"Q.	c #FAF6CC",
"R.	c #FBF9DE",
"S.	c #C1270B",
"T.	c #DA6434",
"U.	c #E38339",
"V.	c #ECBD35",
"W.	c #F0D233",
"X.	c #F7ED2F",
"Y.	c #FBF8E0",
"Z.	c #FCFBF6",
"`.	c #FAF8DE",
" +	c #F9F4B0",
".+	c #FBFAEA",
"++	c #FCFBF7",
"@+	c #F7F6DE",
"#+	c #F3DAD1",
"$+	c #EEC0B2",
"%+	c #F9F4B7",
"&+	c #F6F1A3",
"*+	c #EAB036",
"=+	c #BF280D",
"-+	c #F7EE2F",
";+	c #CF4921",
">+	c #EEB99B",
",+	c #FDF7BC",
"'+	c #F9F4B2",
")+	c #FFFEF5",
"!+	c #FFFEF6",
"~+	c #FEFCEC",
"{+	c #F8F073",
"]+	c #C93E1B",
"^+	c #FEFCEA",
"/+	c #E26E39",
"(+	c #E89B37",
"_+	c #FCF5E2",
":+	c #FCF7B6",
"<+	c #F9F6C6",
"[+	c #FAF5B3",
"}+	c #D65A2D",
"|+	c #D25127",
"1+	c #C22809",
"2+	c #D35429",
"3+	c #F6E075",
"4+	c #F9EA7F",
"5+	c #E99A82",
"6+	c #F2C8B1",
"7+	c #FFFDF4",
"8+	c #F7F07E",
"9+	c #F8EF2F",
"0+	c #C12709",
"a+	c #BC250B",
"b+	c #BD240A",
"c+	c #CD4C25",
"d+	c #F2DB31",
"e+	c #F4E230",
"f+	c #E27A39",
"g+	c #ECBCA8",
"h+	c #FBFAF0",
"i+	c #F9F5BF",
"j+	c #F4EB45",
"k+	c #F7EE4E",
"l+	c #F8F3A1",
"m+	c #F5EB30",
"n+	c #F5E730",
"o+	c #E9AC36",
"p+	c #BF280C",
"q+	c #F3DA32",
"r+	c #F6DE89",
"s+	c #FBF388",
"t+	c #F3DBA5",
"u+	c #ECB935",
"v+	c #DC6231",
"w+	c #C32E0E",
"x+	c #DE6634",
"y+	c #E89437",
"z+	c #FBF37E",
"A+	c #FBF267",
"B+	c #F3D132",
"C+	c #C73615",
"D+	c #F6ED2F",
"                                                                                    .                                           ",
"                                                                                    +                                           ",
"                                                        + +                           + +                                       ",
"                                                                                                                                ",
"                                                                                                                                ",
"                                                            @             @         @                                           ",
"                                                            @             @         @                                           ",
"                                                  @ @                 @ @             # @ @ $                                   ",
"                                            %     @       &           @                 @ @ %     *                             ",
"                                          = @           + +                     - -       @ ;   - -                             ",
"                                                                  + >       - - - -             , ,                             ",
"                                                                  + >       - - - -               @                             ",
"                                                        - '                         -                                           ",
"                                                          '                         -                                           ",
"                                              - - - )             - -       ' -       - - @ ;                                   ",
"                                                  - !             , , @         -                                               ",
"                                                  - '             ~ ~ ~ {       ! -                                             ",
"                                                        - -               ]               ] ^                                   ",
"                                                          -               /               ]                                     ",
"                                                                -         (                                                     ",
"                                                  (                   ] _ :                                                     ",
"                                                  ( <                 ] ] ]                                                     ",
"                                                      ]               ] [ (                                                     ",
"                                                    } ]               ] [ (                                                     ",
"                                                  ] |                 ] [ (                     ( (                             ",
"                                                  1 2             3 4 5 6 7                   3 8 9                             ",
"                                                  ] |             ] 0 a b (                   ] ] ]                             ",
"                                                  ( c ]           ] ] ] ] ]           ] ]     ] ] ]                             ",
"                                                  ( d ] e         ] ] f g / h           ]     / i ]                             ",
"                                                      ] ] ] ] ]   ] 0 a b ( 7 (               ( [ ]                             ",
"                                                  ] j ] ] ]       ] ] f k l m [ ]               n ]                             ",
"                                                  ] o ] ] ]       ] ] ] p q r ] ] ]             ] ]                             ",
"                                                      ] s (           ( ( ( 7 ( ] ]   ] ]       ] ]                             ",
"                                                      t u v           w w x y v t z   z t       z t                             ",
"                                                      ] s (       ( ( q q q A ( ] ] ] ] ]     ] ] ]     ]                       ",
"                                                  ] B ] s ( (     ( ( C D q E b F G ] ] ] ] H I J ]                             ",
"                                                  ] o ] s ( ( (   ( K L C q M a a N ] ] ] ] O ( [ ]                             ",
"                                          0 ]     ] P ( ( ( ( ( ( ( K L L L Q a ( ( ( / ] R S ( [ ]                             ",
"                                            ]     ] P ( ( ( ( T U U V W X L Y Z U ` (  .: ( S (  .:                             ",
"                                                  ] P ( ( ( ( ..q q q ( +.L @.( q l ( ( ( ( < ( ( (                             ",
"                                                  ] P ( #.$.( %.&.*.q =.-.L ;.l q >.l ,.( ( '.[ / [                             ",
"                                                  ] P ( ).!.( +.L ~.{.L L L ].q q q q ..( ( ^.] ] ]                             ",
"                                              ] /.(._.( ).!.( +.L :.<.L [.}.|.<.q 1.2.3.( ( 4.] ] ]                             ",
"                                              ] 5.( 6.U 7.!.( 8.W 9.L L 0.~.a.L q l ( ` U ( b.: c.]                             ",
"                                              ] 5.( d.q q !.( ( ( W L L L L e.L q l ( l q ( < ( [ ] f.]                         ",
"                                              ] c.P g.d.h.i.j.k.( l.L L L L e.L &.m.j.n.q ( < ( 4.I o.]                         ",
"                                              ] ] ] P ( p.L L =.( W L L L L e.L L L L q.q ( < ( ( ( r.]                         ",
"                                            ] s.s s t.u.v.w.L x.p.9.L ~.y.L e.L L 0.z.A.B.p.C.u.D.( E.]                         ",
"                                          ] ] s F.U G.q H.I.L J.B.K.L q L.B.M.L L 0.~.N.W L O.q ..( E.]                         ",
"                                          ] ] s U q P.q B.L L C q B.L q q q Q.L L L L +.( L R.q ..( S.]                         ",
"                                          1 | T.U.V.W.X.Y.Z.Z.`. +.+++ + + +@+Z.Z.Z.Z.#+$+%+&+X.*+7 =+|                         ",
"                                          ] ] s ( ( d.q B.L L L L L L L L L e.L L L L L L q -+q ..( S.]                         ",
"                                          ] ] i ;+( >+B.K.L L L L L L ~.,+L '+~.L L L ,+~.q -+q ..( S.] ]                       ",
"                                            ] ] 5.( >+B.)+!+B.~+L L L ~.y.L ].q L L L q.q ~.{+q ..( ]+i ]                       ",
"                                              ] 5.( d.q B.^+q q.L L L L L L ].q L L L q.q L R.q ..( /+s ]                       ",
"                                              ] 5.( (+l _+J.q.:+&.J.L L L L <+q.L L L [.q.C [+q ..( }+|+]                       ",
"                                              ] 5.( /+( p.L L C q B.L L L L e.L L L L L L q -+q ..( S.] ]                       ",
"                                              ] 1+: 2+( 3+4+5+6+B.7+L L 0.~.8+~.L L L ,+~.q 9+q ..( 0+]                         ",
"                                              a+b+| c+7 d+e+f+g+Z.h+M.M.i+X.j+k+M.M.M.l+X.X.m+n+o+7 p+j                         ",
"                                                  ] P ( ).q q q.L ~.q q q q Q.L q q q q q q q+( ( ( r.]                         ",
"                                                  ] P ( #.l l r+C *.q q.s+q t+=.q q q q q l u+( v+I r.                          ",
"                                                  ] P ( ( ( ( ..q q {.L &.q A ( q q q q q ( < ( [ ]                             ",
"                                                  ] w+: x+( ( T y+>.q z+A+q e+).q B+y+y+y+( b.: C+                              ",
"                                                  ] o ] s ( ( ( ( ).q q q q D+q q l ( ( ( ( 4.]                                 "};
