/* XPM */
static char * fire_2_xpm[] = {
"64 64 308 2",
"  	c None",
". 	c #CCCCCC",
"+ 	c #848489",
"@ 	c #908B8E",
"# 	c #8C8C90",
"$ 	c #938D8F",
"% 	c #AEAEAE",
"& 	c #ACADAD",
"* 	c #928D8F",
"= 	c #A9A8A8",
"- 	c #A5A3A4",
"; 	c #999496",
"> 	c #8F8B8D",
", 	c #A0A3A5",
"' 	c #8E8A8E",
") 	c #8A888B",
"! 	c #88868A",
"~ 	c #BFC1C3",
"{ 	c #87868A",
"] 	c #C4C5C7",
"^ 	c #ADADAD",
"/ 	c #989395",
"( 	c #C12204",
"_ 	c #B72A19",
": 	c #C7C8C9",
"< 	c #B82B1E",
"[ 	c #B03025",
"} 	c #C4C4C4",
"| 	c #BFC0C1",
"1 	c #B8B6B7",
"2 	c #BAA5A5",
"3 	c #A77171",
"4 	c #AAABAB",
"5 	c #F0DA29",
"6 	c #FAF02E",
"7 	c #B22C1E",
"8 	c #E9B72D",
"9 	c #F0C333",
"0 	c #C44F2D",
"a 	c #E36E39",
"b 	c #C12205",
"c 	c #DD6433",
"d 	c #D96D3D",
"e 	c #EBC732",
"f 	c #F0CF33",
"g 	c #E6C837",
"h 	c #EFE733",
"i 	c #CE7813",
"j 	c #E0B723",
"k 	c #C12103",
"l 	c #D04C23",
"m 	c #DA8756",
"n 	c #FCF6A9",
"o 	c #E1BC80",
"p 	c #E99A82",
"q 	c #FFFEF9",
"r 	c #E2C2BE",
"s 	c #C12104",
"t 	c #F0C033",
"u 	c #EDC45A",
"v 	c #DDABA6",
"w 	c #CD837E",
"x 	c #E9CBC7",
"y 	c #E7B7AD",
"z 	c #D26C44",
"A 	c #E26E39",
"B 	c #F6DE30",
"C 	c #BE2408",
"D 	c #F4D4C9",
"E 	c #B32F26",
"F 	c #BA260F",
"G 	c #CB401C",
"H 	c #B22F24",
"I 	c #BE2407",
"J 	c #C02C0E",
"K 	c #C8421E",
"L 	c #DE943D",
"M 	c #E59E38",
"N 	c #F2DF32",
"O 	c #EEDD2C",
"P 	c #CF8618",
"Q 	c #C7821F",
"R 	c #E38D39",
"S 	c #DF6E3B",
"T 	c #C7411E",
"U 	c #BB250C",
"V 	c #C83B18",
"W 	c #F1C933",
"X 	c #C74A26",
"Y 	c #D6592C",
"Z 	c #CD451F",
"` 	c #CB6515",
" .	c #EBA636",
"..	c #F3CFA2",
"+.	c #FDF9C8",
"@.	c #FBF268",
"#.	c #E1703A",
"$.	c #EDB135",
"%.	c #E2932F",
"&.	c #CF4C23",
"*.	c #C83A17",
"=.	c #F4D3C9",
"-.	c #FBF37F",
";.	c #CA441F",
">.	c #E58138",
",.	c #E36E38",
"'.	c #FAEAE3",
").	c #D16C42",
"!.	c #D86D41",
"~.	c #F9EE2E",
"{.	c #CA4420",
"].	c #D77427",
"^.	c #E89378",
"/.	c #FAEFB0",
"(.	c #EAA042",
"_.	c #E89537",
":.	c #E57F38",
"<.	c #FDF9F3",
"[.	c #D78640",
"}.	c #DC903F",
"|.	c #F5DE31",
"1.	c #F4DC31",
"2.	c #C94723",
"3.	c #FAF15E",
"4.	c #ECB235",
"5.	c #FAEAE2",
"6.	c #E9B337",
"7.	c #EDE538",
"8.	c #E26E3A",
"9.	c #CA4723",
"0.	c #E99B37",
"a.	c #FAEBC9",
"b.	c #FDF9CD",
"c.	c #FCF7B6",
"d.	c #F6DFA1",
"e.	c #FDF6F0",
"f.	c #FCF5E2",
"g.	c #F0D733",
"h.	c #EFC033",
"i.	c #E4A535",
"j.	c #E3BC96",
"k.	c #FDF8C8",
"l.	c #F4D469",
"m.	c #EFC733",
"n.	c #FEFBE2",
"o.	c #FDF8C7",
"p.	c #F5EC30",
"q.	c #DE6533",
"r.	c #DCABA6",
"s.	c #F8ED2E",
"t.	c #F0C133",
"u.	c #F7E52F",
"v.	c #FFFEF6",
"w.	c #FFFCEA",
"x.	c #FFFDF3",
"y.	c #FBF491",
"z.	c #FBF48B",
"A.	c #F9F4B4",
"B.	c #F8E72F",
"C.	c #F7E42E",
"D.	c #F4E12B",
"E.	c #F9EDA8",
"F.	c #E06835",
"G.	c #D5552A",
"H.	c #CA4520",
"I.	c #FAF274",
"J.	c #FCF5A2",
"K.	c #FCF5A1",
"L.	c #F9F5BF",
"M.	c #FBF274",
"N.	c #FAEF74",
"O.	c #F9EE2F",
"P.	c #D95E2F",
"Q.	c #F8F4C0",
"R.	c #F8EE2F",
"S.	c #FEFCEF",
"T.	c #FEFCE7",
"U.	c #FEFEF9",
"V.	c #F9F7E1",
"W.	c #FEFDF0",
"X.	c #FBEEE7",
"Y.	c #F9EA68",
"Z.	c #ECAC35",
"`.	c #CE4922",
" +	c #C02204",
".+	c #B42F25",
"++	c #FAFAF5",
"@+	c #F8EF2F",
"#+	c #DC6736",
"$+	c #EFBB34",
"%+	c #F6DD30",
"&+	c #FAEEE7",
"*+	c #F7DDD4",
"=+	c #FDF7BD",
"-+	c #FBF380",
";+	c #FBFBF6",
">+	c #FCF59A",
",+	c #EDB181",
"'+	c #E79537",
")+	c #E68738",
"!+	c #E27E58",
"~+	c #E99A81",
"{+	c #F3D35B",
"]+	c #F6DDD4",
"^+	c #FEFCE5",
"/+	c #FDF9CE",
"(+	c #FBF192",
"_+	c #FCF2EC",
":+	c #EEB4A3",
"<+	c #E89980",
"[+	c #E8AD9B",
"}+	c #FBECE4",
"|+	c #EFBAAA",
"1+	c #FDFCF6",
"2+	c #B22F26",
"3+	c #BF2306",
"4+	c #E06E3A",
"5+	c #E5A875",
"6+	c #F9F4B7",
"7+	c #F8F07D",
"8+	c #F7ED2F",
"9+	c #FCFBF7",
"0+	c #FCFBF6",
"a+	c #F9F5B8",
"b+	c #F9F5C1",
"c+	c #FAF7D0",
"d+	c #F9F4B0",
"e+	c #F7F7F3",
"f+	c #F9F2EB",
"g+	c #EEC0B2",
"h+	c #F2D7B4",
"i+	c #F7F2B5",
"j+	c #C8411D",
"k+	c #E7A637",
"l+	c #E17B3A",
"m+	c #F3D232",
"n+	c #FCF7BD",
"o+	c #F8F3BD",
"p+	c #FEFCE8",
"q+	c #FCFAE0",
"r+	c #EEBB34",
"s+	c #DF6E3A",
"t+	c #FFFCEC",
"u+	c #FFFEF7",
"v+	c #F7F2AB",
"w+	c #FEFCE3",
"x+	c #FAF15A",
"y+	c #FDFDF7",
"z+	c #EFC730",
"A+	c #C93C18",
"B+	c #FFFDEF",
"C+	c #E5C023",
"D+	c #D76132",
"E+	c #EAA18B",
"F+	c #FFFEF8",
"G+	c #FDF8C6",
"H+	c #FDFAD3",
"I+	c #FEFCEC",
"J+	c #F8F5CD",
"K+	c #FFFDEC",
"L+	c #FBF7C6",
"M+	c #E0A127",
"N+	c #C12203",
"O+	c #E78A6C",
"P+	c #FBF5A1",
"Q+	c #F2CABD",
"R+	c #FCF5DC",
"S+	c #F9F5BD",
"T+	c #ECAD4C",
"U+	c #E79437",
"V+	c #C84420",
"W+	c #F5E730",
"X+	c #F6EB7E",
"Y+	c #EDBDAE",
"Z+	c #E27C55",
"`+	c #FAF3ED",
" @	c #FCFBF5",
".@	c #FBFAEE",
"+@	c #F8F07A",
"@@	c #F7ED37",
"#@	c #F7EE4E",
"$@	c #F6F1AF",
"%@	c #E59338",
"&@	c #DE6A38",
"*@	c #D2562B",
"=@	c #BF2307",
"-@	c #E16D39",
";@	c #E68B6C",
">@	c #FFFEF5",
",@	c #FBF159",
"'@	c #F9EB68",
")@	c #F4E3DC",
"!@	c #FCF7B7",
"~@	c #F7E230",
"{@	c #F2C933",
"]@	c #EBBBAC",
"^@	c #BE3619",
"/@	c #E78E37",
"(@	c #F8E92F",
"_@	c #FBF379",
":@	c #FCF6CE",
"<@	c #F4E45B",
"[@	c #FBF37E",
"}@	c #EBA735",
"|@	c #CE4921",
"1@	c #F6ED2F",
"2@	c #C93B18",
"3@	c #C02205",
"                                                      . .                 + @                                                   ",
"                                                        .                 # $                                                   ",
"                                                                        %         $ $           $                               ",
"                                                $         $         & % %                                                       ",
"                                                $ *       $ $       & % %               $ $                                     ",
"                                                = - $         $         ;               $ $ $                                   ",
"                                                % = $         $         $               $ $ $                                   ",
"                                                      $ $                         $ >                                           ",
"                                          ,             ' ) ! !         ~         '                 {                           ",
"                                          %               $ $ $         . ]                       $ @                           ",
"                                          ;     % ^       $ $                     .             % / @                           ",
"                                          $     % ^       $ $                     .             % ; @                           ",
"                                                % % %               & %                 % %                                     ",
"                                                % % %               ^                   % %                                     ",
"                                                      % %       % %           % %       % %                                     ",
"                                      ( _                                                         . :                           ",
"                                      < [                                                         } |                           ",
"                                                    .           ( (               . 1 $           $ @                           ",
"                                                    .             (               . 2 3             @                           ",
"                                                      . .                             (                                         ",
"                                                                  (                               % 4                           ",
"                                                                ( (                               % 4                           ",
"                                                                ( ( 5 6   7 (                                                   ",
"                                                                ( ( 8 9   0 (                                                   ",
"                                            a a                 b ( c a a d                                                     ",
"                                                                    e f f g                                                     ",
"                                                                    6 6 6 h                                                     ",
"                                                    (         a     ( i 6 j (     a a                                           ",
"                                                    ( k       a     l m n o (     a                                             ",
"                                                    ( ( (           a p q r (               ( (                                 ",
"                                      a             ( s           a t u v w (               x y a                               ",
"                                      a z           (           A a B 5 ( C (               q D a                               ",
"                                      ( E       ( ( (           a a B 5 ( F       ( (       a a a G (     (                     ",
"                                      C H       I J K           L M N O P Q       C C       M R S T C     U                     ",
"                                      ( C (     ( V a         a W 6 6 6 6 h       ( (       6 W a G (                           ",
"                                        X Y Z ( ( ` W  .a     a ..+.@.6         ( ( (     #.$.%.&.*.                            ",
"                                          a l ( ( i 6 $.a     a =.q -.6       ( ( ( (   a A a Y (                               ",
"                                      ( ;.a l ( a p q n 6 >.a a ,.,.'.q   ).a a !.      6 ~.a a                                 ",
"                                      ( {.a ].i a ^.'./.-.(._._.:.a '.<.  [._._.}.      |.1.a a                                 ",
"                                      ( 2.a W 6 a a a D q 3.6 6 4.a '.5.a 6.6 6 7.    6 _.8.a a                                 ",
"                                      ( 9.a 0.$.W W W a.q b.c.6 d.D e.f.W g.6 h.i.( j.k.l.m.l &.                                ",
"                                      ( 2.a a a 6 6 6 +.q q n.6 o.q q n.6 p.6 _.q.( r.q -.s.( (                                 ",
"                                      ( ;.a t.u.6 6 6 +.q q v.w.x.q y.z.w.A.6 B.C.D.E.q -.~.F.G.(                               ",
"                                      ( H.a W 6 -.I.6 +.q q q q q q J.K.q L.6 M.-.-./.'.N.O.a P.V                               ",
"                                      ( 2.a W 6 q n.6 +.q q q q q q q q q Q.6 n.q q D a B R.a a a                               ",
"                                    ( ( 2.a 0.4.q S.k.T.q q q q U.q q q q V.k.W.q q X.=.Y.R.W Z.a `. +                          ",
"                                  .+( ( 2.a a a q q q q q q q q q q q q q ++q q q q q q -.@+6 W a G (                           ",
"                                  .+( c #+a $+%+q &+p *+q q q q =+-+T.q q ;+q J.>+q q q ,+'+_.)+a G (                           ",
"                                  .+( a !+~+{+6 q &+~+]+q ^+T.q n 6 /+T.q ;+q K.(+'._+q :+<+a a a G (                           ",
"                                  .+( a [+q n 6 q q q q q 3.-.q n 6 6 -.q ++q q }+a |+q q 1+a a a G (                           ",
"                                  2+3+4+5+6+7+8+9+;+0+0+0+a+b+0+c+d+d+b+0+e+0+0+f+g+h+6+6+i+4+4+4+j+3+                          ",
"                                  .+( a k+6 6 6 q q q q q q q q q q q q q ++q q q q +.6 6 R.a a a G (                           ",
"                                  .+( a l+_.m+6 q q q q q q q q n+-.T.T.-.o+q q p+-.@.6 /+q+B r+a G (                           ",
"                                  .+( a s+a $+%+q q q t+n.u+q q n+-.T.n.6 v+q q w+6 x+-.T.y+6 z+c A+(                           ",
"                                      a s+a a a q q q n 6 B+q q q q q n.6 v+q q w+6 n q q 1+6 C+( ( (                           ",
"                                      Y D+a E+|+q F+q /+n G+H+q q q q I+n J+q q K+n /+q H+L+W M+( N+N+                          ",
"                                      ( 2.a D q q q q q q 3.-.q q q q q q ++q q q q q q -.R.a Y (                               ",
"                                      ( H.a O+p -.P+q Q+p R+T.q q q J.-.-.S+q q q q H+-.T+U+a Y (                               ",
"                                      3+V+4+4+4+W+X+0+Y+Z+`+ @.@.@.@+@@@#@$@0+0+ @.@L.8+%@4+&@*@=@                              ",
"                                      ( 2.a a a a p q q q q n.6 6 6 6 -.q ++q q w+6 6 6 _.-@( ( (                               ",
"                                      ( 9.a a a a ;@D a.+.>@I+n n n ,@'@D )@q H+!@6 ~@W )+-@( ( (                               ",
"                                      ( 2.a a a a a a {@6 B+q q q q -.B a ]@q -.6 6 W a a -@( ( (                               ",
"                                        ^@V P.a a /@B (@6 _@K.q q q T.:@B <@[@T+}@6 W a |@V ( (                                 ",
"                                          ( Y a a _.6 6 6 6 -.q q q q n.6 1@6 _./@6 W a 2@3@( (                                 "};
